<svg id="my-svg" width="100%" xmlns="http://www.w3.org/2000/svg" xmlns:xlink="http://www.w3.org/1999/xlink" class="flowchart" style="max-width: 1817.19px; background-color: transparent;" viewBox="0 0 1817.1890869140625 2062.171875" role="graphics-document document" aria-roledescription="flowchart-v2"><style>#my-svg{font-family:Segoe UI,Noto Sans Thai,Tahoma,sans-serif;font-size:15px;fill:#0b2545;}@keyframes edge-animation-frame{from{stroke-dashoffset:0;}}@keyframes dash{to{stroke-dashoffset:0;}}#my-svg .edge-animation-slow{stroke-dasharray:9,5!important;stroke-dashoffset:900;animation:dash 50s linear infinite;stroke-linecap:round;}#my-svg .edge-animation-fast{stroke-dasharray:9,5!important;stroke-dashoffset:900;animation:dash 20s linear infinite;stroke-linecap:round;}#my-svg .error-icon{fill:#f7f9fc;}#my-svg .error-text{fill:#080603;stroke:#080603;}#my-svg .edge-thickness-normal{stroke-width:1px;}#my-svg .edge-thickness-thick{stroke-width:3.5px;}#my-svg .edge-pattern-solid{stroke-dasharray:0;}#my-svg .edge-thickness-invisible{stroke-width:0;fill:none;}#my-svg .edge-pattern-dashed{stroke-dasharray:3;}#my-svg .edge-pattern-dotted{stroke-dasharray:2;}#my-svg .marker{fill:#7a8699;stroke:#7a8699;}#my-svg .marker.cross{stroke:#7a8699;}#my-svg svg{font-family:Segoe UI,Noto Sans Thai,Tahoma,sans-serif;font-size:15px;}#my-svg p{margin:0;}#my-svg .label{font-family:Segoe UI,Noto Sans Thai,Tahoma,sans-serif;color:#0b2545;}#my-svg .cluster-label text{fill:#080603;}#my-svg .cluster-label span{color:#080603;}#my-svg .cluster-label span p{background-color:transparent;}#my-svg .label text,#my-svg span{fill:#0b2545;color:#0b2545;}#my-svg .node rect,#my-svg .node circle,#my-svg .node ellipse,#my-svg .node polygon,#my-svg .node path{fill:#eef4ff;stroke:#5b8def;stroke-width:1px;}#my-svg .rough-node .label text,#my-svg .node .label text,#my-svg .image-shape .label,#my-svg .icon-shape .label{text-anchor:middle;}#my-svg .node .katex path{fill:#000;stroke:#000;stroke-width:1px;}#my-svg .rough-node .label,#my-svg .node .label,#my-svg .image-shape .label,#my-svg .icon-shape .label{text-align:center;}#my-svg .node.clickable{cursor:pointer;}#my-svg .root .anchor path{fill:#7a8699!important;stroke-width:0;stroke:#7a8699;}#my-svg .arrowheadPath{fill:#0b0b0b;}#my-svg .edgePath .path{stroke:#7a8699;stroke-width:1px;}#my-svg .flowchart-link{stroke:#7a8699;fill:none;}#my-svg .edgeLabel{background-color:#fff4e6;text-align:center;}#my-svg .edgeLabel p{background-color:#fff4e6;}#my-svg .edgeLabel rect{opacity:0.5;background-color:#fff4e6;fill:#fff4e6;}#my-svg .labelBkg{background-color:rgba(255, 244, 230, 0.5);}#my-svg .cluster rect{fill:#f7f9fc;stroke:hsl(216, 5.4545454545%, 87.8431372549%);stroke-width:1px;}#my-svg .cluster text{fill:#080603;}#my-svg .cluster span{color:#080603;}#my-svg .node .collapsed-indicator{fill:hsl(216, 5.4545454545%, 87.8431372549%);stroke:none;opacity:0.6;}#my-svg .node .collapsed-separator{stroke:hsl(216, 5.4545454545%, 87.8431372549%);stroke-width:0.75px;}#my-svg div.mermaidTooltip{position:absolute;text-align:center;max-width:200px;padding:2px;font-family:Segoe UI,Noto Sans Thai,Tahoma,sans-serif;font-size:12px;background:#f7f9fc;border:1px solid hsl(216, 5.4545454545%, 87.8431372549%);border-radius:2px;pointer-events:none;z-index:100;}#my-svg .flowchartTitleText{text-anchor:middle;font-size:18px;fill:#0b2545;}#my-svg rect.text{fill:none;stroke-width:0;}#my-svg .icon-shape,#my-svg .image-shape{background-color:#fff4e6;text-align:center;}#my-svg .icon-shape p,#my-svg .image-shape p{background-color:#fff4e6;padding:2px;}#my-svg .icon-shape .label rect,#my-svg .image-shape .label rect{opacity:0.5;background-color:#fff4e6;fill:#fff4e6;}#my-svg .label-icon{display:inline-block;height:1em;overflow:visible;vertical-align:-0.125em;}#my-svg .node .label-icon path{fill:currentColor;stroke:revert;stroke-width:revert;}#my-svg .node .neo-node{stroke:#5b8def;}#my-svg [data-look="neo"].node rect,#my-svg [data-look="neo"].cluster rect,#my-svg [data-look="neo"].node polygon{stroke:url(#my-svg-gradient);filter:drop-shadow( 1px 2px 2px rgba(185,185,185,1));}#my-svg [data-look="neo"].swimlane.cluster rect{filter:none;}#my-svg [data-look="neo"].node path{stroke:url(#my-svg-gradient);stroke-width:1px;}#my-svg [data-look="neo"].node .outer-path{filter:drop-shadow( 1px 2px 2px rgba(185,185,185,1));}#my-svg [data-look="neo"].node .neo-line path{stroke:#5b8def;filter:none;}#my-svg [data-look="neo"].node circle{stroke:url(#my-svg-gradient);filter:drop-shadow( 1px 2px 2px rgba(185,185,185,1));}#my-svg [data-look="neo"].node circle .state-start{fill:#000000;}#my-svg [data-look="neo"].icon-shape .icon{fill:url(#my-svg-gradient);filter:drop-shadow( 1px 2px 2px rgba(185,185,185,1));}#my-svg [data-look="neo"].icon-shape .icon-neo path{stroke:url(#my-svg-gradient);filter:drop-shadow( 1px 2px 2px rgba(185,185,185,1));}#my-svg :root{--mermaid-font-family:"trebuchet ms",verdana,arial,sans-serif;}#my-svg .entry&gt;*{fill:rgb(31, 111, 235)!important;stroke:rgb(11, 61, 145)!important;color:rgb(255, 255, 255)!important;}#my-svg .entry span{fill:rgb(31, 111, 235)!important;stroke:rgb(11, 61, 145)!important;color:rgb(255, 255, 255)!important;}#my-svg .entry tspan{fill:rgb(255, 255, 255)!important;}#my-svg .play&gt;*{fill:rgb(238, 244, 255)!important;stroke:rgb(91, 141, 239)!important;color:rgb(11, 37, 69)!important;}#my-svg .play span{fill:rgb(238, 244, 255)!important;stroke:rgb(91, 141, 239)!important;color:rgb(11, 37, 69)!important;}#my-svg .play tspan{fill:rgb(11, 37, 69)!important;}#my-svg .ask&gt;*{fill:rgb(255, 244, 230)!important;stroke:rgb(232, 163, 61)!important;color:rgb(74, 47, 0)!important;}#my-svg .ask span{fill:rgb(255, 244, 230)!important;stroke:rgb(232, 163, 61)!important;color:rgb(74, 47, 0)!important;}#my-svg .ask tspan{fill:rgb(74, 47, 0)!important;}#my-svg .done&gt;*{fill:rgb(233, 247, 239)!important;stroke:rgb(47, 158, 95)!important;color:rgb(8, 54, 29)!important;}#my-svg .done span{fill:rgb(233, 247, 239)!important;stroke:rgb(47, 158, 95)!important;color:rgb(8, 54, 29)!important;}#my-svg .done tspan{fill:rgb(8, 54, 29)!important;}#my-svg .soft&gt;*{fill:rgb(243, 232, 255)!important;stroke:rgb(139, 92, 246)!important;color:rgb(46, 16, 101)!important;}#my-svg .soft span{fill:rgb(243, 232, 255)!important;stroke:rgb(139, 92, 246)!important;color:rgb(46, 16, 101)!important;}#my-svg .soft tspan{fill:rgb(46, 16, 101)!important;}#my-svg .note&gt;*{fill:rgb(246, 248, 250)!important;stroke:rgb(139, 148, 158)!important;color:rgb(36, 41, 47)!important;}#my-svg .note span{fill:rgb(246, 248, 250)!important;stroke:rgb(139, 148, 158)!important;color:rgb(36, 41, 47)!important;}#my-svg .note tspan{fill:rgb(36, 41, 47)!important;}#my-svg .fix&gt;*{fill:rgb(233, 247, 239)!important;stroke:rgb(47, 158, 95)!important;color:rgb(8, 54, 29)!important;}#my-svg .fix span{fill:rgb(233, 247, 239)!important;stroke:rgb(47, 158, 95)!important;color:rgb(8, 54, 29)!important;}#my-svg .fix tspan{fill:rgb(8, 54, 29)!important;}</style><g><marker id="my-svg_flowchart-v2-pointEnd" class="marker flowchart-v2" viewBox="0 0 10 10" refX="5" refY="5" markerUnits="userSpaceOnUse" markerWidth="8" markerHeight="8" orient="auto"><path d="M 0 0 L 10 5 L 0 10 z" class="arrowMarkerPath" style="stroke-width: 1; stroke-dasharray: 1, 0;"/></marker><marker id="my-svg_flowchart-v2-pointStart" class="marker flowchart-v2" viewBox="0 0 10 10" refX="4.5" refY="5" markerUnits="userSpaceOnUse" markerWidth="8" markerHeight="8" orient="auto"><path d="M 0 5 L 10 10 L 10 0 z" class="arrowMarkerPath" style="stroke-width: 1; stroke-dasharray: 1, 0;"/></marker><marker id="my-svg_flowchart-v2-pointEnd-margin" class="marker flowchart-v2" viewBox="0 0 11.5 14" refX="11.5" refY="7" markerUnits="userSpaceOnUse" markerWidth="10.5" markerHeight="14" orient="auto"><path d="M 0 0 L 11.5 7 L 0 14 z" class="arrowMarkerPath" style="stroke-width: 0; stroke-dasharray: 1, 0;"/></marker><marker id="my-svg_flowchart-v2-pointStart-margin" class="marker flowchart-v2" viewBox="0 0 11.5 14" refX="1" refY="7" markerUnits="userSpaceOnUse" markerWidth="11.5" markerHeight="14" orient="auto"><polygon points="0,7 11.5,14 11.5,0" class="arrowMarkerPath" style="stroke-width: 0; stroke-dasharray: 1, 0;"/></marker><marker id="my-svg_flowchart-v2-circleEnd" class="marker flowchart-v2" viewBox="0 0 10 10" refX="11" refY="5" markerUnits="userSpaceOnUse" markerWidth="11" markerHeight="11" orient="auto"><circle cx="5" cy="5" r="5" class="arrowMarkerPath" style="stroke-width: 1; stroke-dasharray: 1, 0;"/></marker><marker id="my-svg_flowchart-v2-circleStart" class="marker flowchart-v2" viewBox="0 0 10 10" refX="-1" refY="5" markerUnits="userSpaceOnUse" markerWidth="11" markerHeight="11" orient="auto"><circle cx="5" cy="5" r="5" class="arrowMarkerPath" style="stroke-width: 1; stroke-dasharray: 1, 0;"/></marker><marker id="my-svg_flowchart-v2-circleEnd-margin" class="marker flowchart-v2" viewBox="0 0 10 10" refY="5" refX="12.25" markerUnits="userSpaceOnUse" markerWidth="14" markerHeight="14" orient="auto"><circle cx="5" cy="5" r="5" class="arrowMarkerPath" style="stroke-width: 0; stroke-dasharray: 1, 0;"/></marker><marker id="my-svg_flowchart-v2-circleStart-margin" class="marker flowchart-v2" viewBox="0 0 10 10" refX="-2" refY="5" markerUnits="userSpaceOnUse" markerWidth="14" markerHeight="14" orient="auto"><circle cx="5" cy="5" r="5" class="arrowMarkerPath" style="stroke-width: 0; stroke-dasharray: 1, 0;"/></marker><marker id="my-svg_flowchart-v2-crossEnd" class="marker cross flowchart-v2" viewBox="0 0 11 11" refX="12" refY="5.2" markerUnits="userSpaceOnUse" markerWidth="11" markerHeight="11" orient="auto"><path d="M 1,1 l 9,9 M 10,1 l -9,9" class="arrowMarkerPath" style="stroke-width: 2; stroke-dasharray: 1, 0;"/></marker><marker id="my-svg_flowchart-v2-crossStart" class="marker cross flowchart-v2" viewBox="0 0 11 11" refX="-1" refY="5.2" markerUnits="userSpaceOnUse" markerWidth="11" markerHeight="11" orient="auto"><path d="M 1,1 l 9,9 M 10,1 l -9,9" class="arrowMarkerPath" style="stroke-width: 2; stroke-dasharray: 1, 0;"/></marker><marker id="my-svg_flowchart-v2-crossEnd-margin" class="marker cross flowchart-v2" viewBox="0 0 15 15" refX="17.7" refY="7.5" markerUnits="userSpaceOnUse" markerWidth="12" markerHeight="12" orient="auto"><path d="M 1,1 L 14,14 M 1,14 L 14,1" class="arrowMarkerPath" style="stroke-width: 2.5;"/></marker><marker id="my-svg_flowchart-v2-crossStart-margin" class="marker cross flowchart-v2" viewBox="0 0 15 15" refX="-3.5" refY="7.5" markerUnits="userSpaceOnUse" markerWidth="12" markerHeight="12" orient="auto"><path d="M 1,1 L 14,14 M 1,14 L 14,1" class="arrowMarkerPath" style="stroke-width: 2.5; stroke-dasharray: 1, 0;"/></marker><g class="root"><g class="clusters"/><g class="edgePaths"><path d="M956.84,45L956.757,49.083C956.673,53.167,956.507,61.333,956.423,68.917C956.34,76.5,956.34,83.5,956.34,87L956.34,90.5" id="my-svg-L_start_greet_0" class="edge-thickness-normal edge-pattern-solid edge-thickness-normal edge-pattern-solid flowchart-link" style=";" data-edge="true" data-et="edge" data-id="L_start_greet_0" data-points="W3sieCI6OTU2LjgzOTg0Mzc1MTg2MjYsInkiOjQ1fSx7IngiOjk1Ni4zMzk4NDM3NTE4NjI2LCJ5Ijo2OS41fSx7IngiOjk1Ni4zMzk4NDM3NTE4NjI2LCJ5Ijo5NC41fV0=" data-look="classic" marker-end="url(#my-svg_flowchart-v2-pointEnd)"/><path d="M956.34,190L956.34,194.167C956.34,198.333,956.34,206.667,956.34,214.333C956.34,222,956.34,229,956.34,232.5L956.34,236" id="my-svg-L_greet_known_0" class="edge-thickness-normal edge-pattern-solid edge-thickness-normal edge-pattern-solid flowchart-link" style=";" data-edge="true" data-et="edge" data-id="L_greet_known_0" data-points="W3sieCI6OTU2LjMzOTg0Mzc1MTg2MjYsInkiOjE5MH0seyJ4Ijo5NTYuMzM5ODQzNzUxODYyNiwieSI6MjE1fSx7IngiOjk1Ni4zMzk4NDM3NTE4NjI1LCJ5IjoyNDB9XQ==" data-look="classic" marker-end="url(#my-svg_flowchart-v2-pointEnd)"/><path d="M913.554,362.793L899.466,375.965C885.377,389.138,857.2,415.483,843.112,441.413C829.023,467.344,829.023,492.859,829.023,505.617L829.023,518.375" id="my-svg-L_known_skipped_0" class="edge-thickness-normal edge-pattern-solid edge-thickness-normal edge-pattern-solid flowchart-link" style=";" data-edge="true" data-et="edge" data-id="L_known_skipped_0" data-points="W3sieCI6OTEzLjU1NDQ4OTg1NzM5MzIsInkiOjM2Mi43OTI3NzExMDU1MzA2fSx7IngiOjgyOS4wMjM0Mzc1MDE4NjI2LCJ5Ijo0NDEuODI4MTI1fSx7IngiOjgyOS4wMjM0Mzc1MDE4NjI2LCJ5Ijo1MjIuMzc1fV0=" data-look="classic" marker-end="url(#my-svg_flowchart-v2-pointEnd)"/><path d="M999.125,362.793L1013.214,375.965C1027.302,389.138,1055.479,415.483,1069.568,434.031C1083.656,452.578,1083.656,463.328,1083.656,468.703L1083.656,474.078" id="my-svg-L_known_didq_0" class="edge-thickness-normal edge-pattern-solid edge-thickness-normal edge-pattern-solid flowchart-link" style=";" data-edge="true" data-et="edge" data-id="L_known_didq_0" data-points="W3sieCI6OTk5LjEyNTE5NzY0NjMzMTksInkiOjM2Mi43OTI3NzExMDU1MzA1Nn0seyJ4IjoxMDgzLjY1NjI1MDAwMTg2MjYsInkiOjQ0MS44MjgxMjV9LHsieCI6MTA4My42NTYyNTAwMDE4NjI5LCJ5Ijo0NzguMDc4MTI0OTk5OTk5OTR9XQ==" data-look="classic" marker-end="url(#my-svg_flowchart-v2-pointEnd)"/><path d="M1021.444,599.959L987.224,616.37C953.004,632.78,884.564,665.601,850.343,692.261C816.123,718.922,816.123,739.422,816.123,759.922C816.123,780.422,816.123,800.922,823.635,844.688C831.146,888.454,846.169,955.486,853.68,989.003L861.191,1022.519" id="my-svg-L_didq_m2_0" class="edge-thickness-normal edge-pattern-solid edge-thickness-normal edge-pattern-solid flowchart-link" style=";" data-edge="true" data-et="edge" data-id="L_didq_m2_0" data-points="W3sieCI6MTAyMS40NDM3Mzc1Nzk4NDU0LCJ5Ijo1OTkuOTU5MzYyNTc3OTgyM30seyJ4Ijo4MTYuMTIzNDM3NTAxNDkwMSwieSI6Njk4LjQyMTg3NX0seyJ4Ijo4MTYuMTIzNDM3NTAxNDkwMSwieSI6NzU5LjkyMTg3NX0seyJ4Ijo4MTYuMTIzNDM3NTAxNDkwMSwieSI6ODIxLjQyMTg3NX0seyJ4Ijo4NjIuMDY2MTk2NzMwNTg4OSwieSI6MTAyNi40MjE4NzV9XQ==" data-look="classic" marker-end="url(#my-svg_flowchart-v2-pointEnd)"/><path d="M1141.403,604.425L1167.778,620.091C1194.153,635.757,1246.904,667.09,1273.279,688.131C1299.654,709.172,1299.654,719.922,1299.654,725.297L1299.654,730.672" id="my-svg-L_didq_m1_0" class="edge-thickness-normal edge-pattern-solid edge-thickness-normal edge-pattern-solid flowchart-link" style=";" data-edge="true" data-et="edge" data-id="L_didq_m1_0" data-points="W3sieCI6MTE0MS40MDMwNTUzMTExNjAyLCJ5Ijo2MDQuNDI1MDY5NjkwNzAyOH0seyJ4IjoxMjk5LjY1MzkwNjI1MjIzNTIsInkiOjY5OC40MjE4NzV9LHsieCI6MTI5OS42NTM5MDYyNTIyMzUyLCJ5Ijo3MzQuNjcxODc1fV0=" data-look="classic" marker-end="url(#my-svg_flowchart-v2-pointEnd)"/><path d="M1206.076,776.629L1164.26,784.094C1122.443,791.56,1038.811,806.491,984.254,847.5C929.697,888.509,904.216,955.596,891.476,989.139L878.736,1022.683" id="my-svg-L_m1_m2_0" class="edge-thickness-normal edge-pattern-solid edge-thickness-normal edge-pattern-solid flowchart-link" style=";" data-edge="true" data-et="edge" data-id="L_m1_m2_0" data-points="W3sieCI6MTIwNi4wNzU3ODEyNTIyMzUyLCJ5Ijo3NzYuNjI4NTc4MzQ2NzYxMn0seyJ4Ijo5NTUuMTc4MTI1MDAxNDkwMSwieSI6ODIxLjQyMTg3NX0seyJ4Ijo4NzcuMzE1NDA3ODQ2MjI0LCJ5IjoxMDI2LjQyMTg3NX1d" data-look="classic" marker-end="url(#my-svg_flowchart-v2-pointEnd)"/><path d="M810.704,1076.922L733.546,1111.089C656.388,1145.255,502.073,1213.589,424.915,1275.63C347.758,1337.672,347.758,1393.422,347.758,1421.297L347.758,1449.172" id="my-svg-L_m2_routed_0" class="edge-thickness-normal edge-pattern-solid edge-thickness-normal edge-pattern-solid flowchart-link" style=";" data-edge="true" data-et="edge" data-id="L_m2_routed_0" data-points="W3sieCI6ODEwLjcwMzYyNTQ3NjM1MzksInkiOjEwNzYuOTIxODc1fSx7IngiOjM0Ny43NTc4MTI1LCJ5IjoxMjgxLjkyMTg3NX0seyJ4IjozNDcuNzU3ODEyNSwieSI6MTQ1My4xNzE4NzV9XQ==" data-look="classic" marker-end="url(#my-svg_flowchart-v2-pointEnd)"/><path d="M1393.232,781.865L1421.349,788.457C1449.465,795.05,1505.698,808.236,1533.815,853.204C1561.931,898.172,1561.931,974.922,1561.931,1051.672C1561.931,1128.422,1561.931,1205.172,1577.155,1271.503C1592.379,1337.834,1622.826,1393.747,1638.05,1421.703L1653.274,1449.659" id="my-svg-L_m1_exhausted_0" class="edge-thickness-normal edge-pattern-dotted edge-thickness-normal edge-pattern-solid flowchart-link" style=";" data-edge="true" data-et="edge" data-id="L_m1_exhausted_0" data-points="W3sieCI6MTM5My4yMzIwMzEyNTIyMzUyLCJ5Ijo3ODEuODY0NTA0OTA5Mjk4fSx7IngiOjE1NjEuOTMxMjUwMDAyMjM1MiwieSI6ODIxLjQyMTg3NX0seyJ4IjoxNTYxLjkzMTI1MDAwMjIzNTIsInkiOjEwNTEuNjcxODc1fSx7IngiOjE1NjEuOTMxMjUwMDAyMjM1MiwieSI6MTI4MS45MjE4NzV9LHsieCI6MTY1NS4xODY1MDI5Mjc0NjM0LCJ5IjoxNDUzLjE3MTg3NX1d" data-look="classic" marker-end="url(#my-svg_flowchart-v2-pointEnd)"/><path d="M943.538,1073.131L1066.479,1107.929C1189.421,1142.728,1435.305,1212.325,1558.247,1274.998C1681.189,1337.672,1681.189,1393.422,1681.189,1421.297L1681.189,1449.172" id="my-svg-L_m2_exhausted_0" class="edge-thickness-normal edge-pattern-dotted edge-thickness-normal edge-pattern-solid flowchart-link" style=";" data-edge="true" data-et="edge" data-id="L_m2_exhausted_0" data-points="W3sieCI6OTQzLjUzNzUwMDAwMTQ5MDEsInkiOjEwNzMuMTMwNTA5NjU4NDcyMn0seyJ4IjoxNjgxLjE4OTA2MjUwMjIzNTIsInkiOjEyODEuOTIxODc1fSx7IngiOjE2ODEuMTg5MDYyNTAyMjM1MiwieSI6MTQ1My4xNzE4NzV9XQ==" data-look="classic" marker-end="url(#my-svg_flowchart-v2-pointEnd)"/><path d="M853.801,1076.922L834.959,1111.089C816.118,1145.255,778.435,1213.589,759.594,1279.38C740.752,1345.172,740.752,1408.422,740.752,1440.047L740.752,1471.672" id="my-svg-L_m2_abandoned_0" class="edge-thickness-normal edge-pattern-dotted edge-thickness-normal edge-pattern-solid flowchart-link" style=";" data-edge="true" data-et="edge" data-id="L_m2_abandoned_0" data-points="W3sieCI6ODUzLjgwMDc0NTYyNDQ1NDMsInkiOjEwNzYuOTIxODc1fSx7IngiOjc0MC43NTIzNDM3NTE0OTAxLCJ5IjoxMjgxLjkyMTg3NX0seyJ4Ijo3NDAuNzUyMzQzNzUxNDkwMSwieSI6MTQ3NS42NzE4NzV9XQ==" data-look="classic" marker-end="url(#my-svg_flowchart-v2-pointEnd)"/><path d="M1681.189,1548.672L1681.189,1577.214C1681.189,1605.755,1681.189,1662.839,1681.189,1708.672C1681.189,1754.505,1681.189,1789.089,1681.189,1806.38L1681.189,1823.672" id="my-svg-L_exhausted_floor_0" class="edge-thickness-normal edge-pattern-dotted edge-thickness-normal edge-pattern-solid flowchart-link" style=";" data-edge="true" data-et="edge" data-id="L_exhausted_floor_0" data-points="W3sieCI6MTY4MS4xODkwNjI1MDIyMzUyLCJ5IjoxNTQ4LjY3MTg3NX0seyJ4IjoxNjgxLjE4OTA2MjUwMjIzNTIsInkiOjE3MTkuOTIxODc1fSx7IngiOjE2ODEuMTg5MDYyNTAyMjM1MiwieSI6MTgyMy42NzE4NzV9XQ==" data-look="classic"/><path d="M1237.79,785.172L1222.987,791.214C1208.185,797.255,1178.58,809.339,1163.777,821.422C1148.975,833.505,1148.975,845.589,1148.975,851.63L1148.975,857.672" id="my-svg-L_m1_strikes_0" class="edge-thickness-normal edge-pattern-dotted edge-thickness-normal edge-pattern-solid flowchart-link" style=";" data-edge="true" data-et="edge" data-id="L_m1_strikes_0" data-points="W3sieCI6MTIzNy43ODk4MDI0NjYzNjAyLCJ5Ijo3ODUuMTcxODc1fSx7IngiOjExNDguOTc1MDAwMDAxNDkwMSwieSI6ODIxLjQyMTg3NX0seyJ4IjoxMTQ4Ljk3NTAwMDAwMTQ5MDEsInkiOjg1Ny42NzE4NzV9XQ==" data-look="classic"/><path d="M881.649,1076.922L900.491,1111.089C919.332,1145.255,957.015,1213.589,975.856,1253.797C994.698,1294.005,994.698,1306.089,994.698,1312.13L994.698,1318.172" id="my-svg-L_m2_noop_0" class="edge-thickness-normal edge-pattern-dotted edge-thickness-normal edge-pattern-solid flowchart-link" style=";" data-edge="true" data-et="edge" data-id="L_m2_noop_0" data-points="W3sieCI6ODgxLjY0OTI1NDM3ODUyNTksInkiOjEwNzYuOTIxODc1fSx7IngiOjk5NC42OTc2NTYyNTE0OTAxLCJ5IjoxMjgxLjkyMTg3NX0seyJ4Ijo5OTQuNjk3NjU2MjUxNDkwMSwieSI6MTMxOC4xNzE4NzV9XQ==" data-look="classic"/><path d="M301.587,1548.672L273.989,1577.214C246.391,1605.755,191.196,1662.839,163.598,1697.422C136,1732.005,136,1744.089,136,1750.13L136,1756.172" id="my-svg-L_routed_noid_0" class="edge-thickness-normal edge-pattern-dotted edge-thickness-normal edge-pattern-solid flowchart-link" style=";" data-edge="true" data-et="edge" data-id="L_routed_noid_0" data-points="W3sieCI6MzAxLjU4Njg3MzkyOTc5NDU0LCJ5IjoxNTQ4LjY3MTg3NX0seyJ4IjoxMzYsInkiOjE3MTkuOTIxODc1fSx7IngiOjEzNiwieSI6MTc1Ni4xNzE4NzV9XQ==" data-look="classic"/><path d="M368.306,1548.672L380.588,1577.214C392.871,1605.755,417.435,1662.839,429.718,1706.797C442,1750.755,442,1781.589,442,1797.005L442,1812.422" id="my-svg-L_routed_ai_0" class="edge-thickness-normal edge-pattern-dotted edge-thickness-normal edge-pattern-solid flowchart-link" style=";" data-edge="true" data-et="edge" data-id="L_routed_ai_0" data-points="W3sieCI6MzY4LjMwNjA1MjAxMTk4NjMsInkiOjE1NDguNjcxODc1fSx7IngiOjQ0MiwieSI6MTcxOS45MjE4NzV9LHsieCI6NDQyLCJ5IjoxODEyLjQyMTg3NX1d" data-look="classic"/><path d="M1274.019,785.172L1269.958,789.172C1265.898,793.172,1257.776,801.172,1270.381,805.172C1282.987,809.172,1316.321,809.172,1329.401,805.64C1342.482,802.108,1335.31,795.043,1331.724,791.511L1328.138,787.979" id="my-svg-L_m1_m1_2" class="edge-thickness-normal edge-pattern-dotted edge-thickness-normal edge-pattern-solid flowchart-link" style=";" data-edge="true" data-et="edge" data-id="L_m1_m1_2" data-points="W3sieCI6MTI3NC4wMTkzODg0ODU3Mzc2LCJ5Ijo3ODUuMTcxODc1fSx7IngiOjEyNDkuNjUzOTA2MjUyMjM1MiwieSI6ODA5LjE3MTg3NX0seyJ4IjoxMzQ5LjY1MzkwNjI1MjIzNTIsInkiOjgwOS4xNzE4NzV9LHsieCI6MTMyNS4yODg0MjQwMTg3MzI3LCJ5Ijo3ODUuMTcxODc1fV0=" data-look="classic" marker-end="url(#my-svg_flowchart-v2-pointEnd)"/><path d="M842.09,1076.922L838.03,1080.922C833.969,1084.922,825.847,1092.922,838.453,1096.922C851.058,1100.922,884.392,1100.922,897.472,1097.39C910.553,1093.858,903.381,1086.793,899.795,1083.261L896.209,1079.729" id="my-svg-L_m2_m2_2" class="edge-thickness-normal edge-pattern-dotted edge-thickness-normal edge-pattern-solid flowchart-link" style=";" data-edge="true" data-et="edge" data-id="L_m2_m2_2" data-points="W3sieCI6ODQyLjA5MDQ4MjIzNDk5MjcsInkiOjEwNzYuOTIxODc1fSx7IngiOjgxNy43MjUwMDAwMDE0OTAxLCJ5IjoxMTAwLjkyMTg3NX0seyJ4Ijo5MTcuNzI1MDAwMDAxNDkwMSwieSI6MTEwMC45MjE4NzV9LHsieCI6ODkzLjM1OTUxNzc2Nzk4NzUsInkiOjEwNzYuOTIxODc1fV0=" data-look="classic" marker-end="url(#my-svg_flowchart-v2-pointEnd)"/></g><g class="edgeLabels"><g class="edgeLabel"><g class="label" data-id="L_start_greet_0" transform="translate(0, 0)"><foreignObject width="0" height="0"><div xmlns="http://www.w3.org/1999/xhtml" class="labelBkg" style="display: table-cell; white-space: nowrap; line-height: 1.5; max-width: 200px; text-align: center;"><span class="edgeLabel"></span></div></foreignObject></g></g><g class="edgeLabel"><g class="label" data-id="L_greet_known_0" transform="translate(0, 0)"><foreignObject width="0" height="0"><div xmlns="http://www.w3.org/1999/xhtml" class="labelBkg" style="display: table-cell; white-space: nowrap; line-height: 1.5; max-width: 200px; text-align: center;"><span class="edgeLabel"></span></div></foreignObject></g></g><g class="edgeLabel" transform="translate(829.0234375018626, 441.828125)"><g class="label" data-id="L_known_skipped_0" transform="translate(-10.734375, -11.25)"><foreignObject width="21.46875" height="22.5"><div xmlns="http://www.w3.org/1999/xhtml" class="labelBkg" style="display: table-cell; white-space: nowrap; line-height: 1.5; max-width: 200px; text-align: center;"><span class="edgeLabel"><p>yes</p></span></div></foreignObject></g></g><g class="edgeLabel" transform="translate(1083.6562500018626, 441.828125)"><g class="label" data-id="L_known_didq_0" transform="translate(-8.640625, -11.25)"><foreignObject width="17.28125" height="22.5"><div xmlns="http://www.w3.org/1999/xhtml" class="labelBkg" style="display: table-cell; white-space: nowrap; line-height: 1.5; max-width: 200px; text-align: center;"><span class="edgeLabel"><p>no</p></span></div></foreignObject></g></g><g class="edgeLabel" transform="translate(816.1234375014901, 759.921875)"><g class="label" data-id="L_didq_m2_0" transform="translate(-49.7578125, -11.25)"><foreignObject width="99.515625" height="22.5"><div xmlns="http://www.w3.org/1999/xhtml" class="labelBkg" style="display: table-cell; white-space: nowrap; line-height: 1.5; max-width: 200px; text-align: center;"><span class="edgeLabel"><p>yes, skip step 1</p></span></div></foreignObject></g></g><g class="edgeLabel" transform="translate(1299.6539062522352, 698.421875)"><g class="label" data-id="L_didq_m1_0" transform="translate(-8.640625, -11.25)"><foreignObject width="17.28125" height="22.5"><div xmlns="http://www.w3.org/1999/xhtml" class="labelBkg" style="display: table-cell; white-space: nowrap; line-height: 1.5; max-width: 200px; text-align: center;"><span class="edgeLabel"><p>no</p></span></div></foreignObject></g></g><g class="edgeLabel" transform="translate(972.68922, 818.29558)"><g class="label" data-id="L_m1_m2_0" transform="translate(-59.0390625, -11.25)"><foreignObject width="118.078125" height="22.5"><div xmlns="http://www.w3.org/1999/xhtml" class="labelBkg" style="display: table-cell; white-space: nowrap; line-height: 1.5; max-width: 200px; text-align: center;"><span class="edgeLabel"><p>1-5, incl. <b>เรื่องอื่นๆ</b></p></span></div></foreignObject></g></g><g class="edgeLabel" transform="translate(347.7578125, 1281.921875)"><g class="label" data-id="L_m2_routed_0" transform="translate(-75.9921875, -11.25)"><foreignObject width="151.984375" height="22.5"><div xmlns="http://www.w3.org/1999/xhtml" class="labelBkg" style="display: table-cell; white-space: nowrap; line-height: 1.5; max-width: 200px; text-align: center;"><span class="edgeLabel"><p>a reason, incl. <b>เรื่องอื่นๆ</b></p></span></div></foreignObject></g></g><g class="edgeLabel" transform="translate(1299.6539062522352, 824.421875)"><g class="label" data-id="L_m1_m1_2" transform="translate(-95.6484375, -11.25)"><foreignObject width="191.296875" height="22.5"><div xmlns="http://www.w3.org/1999/xhtml" class="labelBkg" style="display: table-cell; white-space: nowrap; line-height: 1.5; max-width: 200px; text-align: center;"><span class="edgeLabel"><p><b>wrong key - NEVER a strike</b></p></span></div></foreignObject></g></g><g class="edgeLabel" transform="translate(867.7250000014901, 1116.171875)"><g class="label" data-id="L_m2_m2_2" transform="translate(-95.6484375, -11.25)"><foreignObject width="191.296875" height="22.5"><div xmlns="http://www.w3.org/1999/xhtml" class="labelBkg" style="display: table-cell; white-space: nowrap; line-height: 1.5; max-width: 200px; text-align: center;"><span class="edgeLabel"><p><b>wrong key - NEVER a strike</b></p></span></div></foreignObject></g></g><g class="edgeLabel" transform="translate(1561.9312500022352, 1051.671875)"><g class="label" data-id="L_m1_exhausted_0" transform="translate(-99.2578125, -11.25)"><foreignObject width="198.515625" height="22.5"><div xmlns="http://www.w3.org/1999/xhtml" class="labelBkg" style="display: table-cell; white-space: nowrap; line-height: 1.5; max-width: 200px; text-align: center;"><span class="edgeLabel"><p>silence x2 (re-prompted once)</p></span></div></foreignObject></g></g><g class="edgeLabel" transform="translate(1681.1890625022352, 1281.921875)"><g class="label" data-id="L_m2_exhausted_0" transform="translate(-99.2578125, -11.25)"><foreignObject width="198.515625" height="22.5"><div xmlns="http://www.w3.org/1999/xhtml" class="labelBkg" style="display: table-cell; white-space: nowrap; line-height: 1.5; max-width: 200px; text-align: center;"><span class="edgeLabel"><p>silence x2 (re-prompted once)</p></span></div></foreignObject></g></g><g class="edgeLabel" transform="translate(740.7523437514901, 1281.921875)"><g class="label" data-id="L_m2_abandoned_0" transform="translate(-30.6171875, -11.25)"><foreignObject width="61.234375" height="22.5"><div xmlns="http://www.w3.org/1999/xhtml" class="labelBkg" style="display: table-cell; white-space: nowrap; line-height: 1.5; max-width: 200px; text-align: center;"><span class="edgeLabel"><p>hangs up</p></span></div></foreignObject></g></g><g class="edgeLabel"><g class="label" data-id="L_exhausted_floor_0" transform="translate(0, 0)"><foreignObject width="0" height="0"><div xmlns="http://www.w3.org/1999/xhtml" class="labelBkg" style="display: table-cell; white-space: nowrap; line-height: 1.5; max-width: 200px; text-align: center;"><span class="edgeLabel"></span></div></foreignObject></g></g><g class="edgeLabel"><g class="label" data-id="L_m1_strikes_0" transform="translate(0, 0)"><foreignObject width="0" height="0"><div xmlns="http://www.w3.org/1999/xhtml" class="labelBkg" style="display: table-cell; white-space: nowrap; line-height: 1.5; max-width: 200px; text-align: center;"><span class="edgeLabel"></span></div></foreignObject></g></g><g class="edgeLabel"><g class="label" data-id="L_m2_noop_0" transform="translate(0, 0)"><foreignObject width="0" height="0"><div xmlns="http://www.w3.org/1999/xhtml" class="labelBkg" style="display: table-cell; white-space: nowrap; line-height: 1.5; max-width: 200px; text-align: center;"><span class="edgeLabel"></span></div></foreignObject></g></g><g class="edgeLabel"><g class="label" data-id="L_routed_noid_0" transform="translate(0, 0)"><foreignObject width="0" height="0"><div xmlns="http://www.w3.org/1999/xhtml" class="labelBkg" style="display: table-cell; white-space: nowrap; line-height: 1.5; max-width: 200px; text-align: center;"><span class="edgeLabel"></span></div></foreignObject></g></g><g class="edgeLabel"><g class="label" data-id="L_routed_ai_0" transform="translate(0, 0)"><foreignObject width="0" height="0"><div xmlns="http://www.w3.org/1999/xhtml" class="labelBkg" style="display: table-cell; white-space: nowrap; line-height: 1.5; max-width: 200px; text-align: center;"><span class="edgeLabel"></span></div></foreignObject></g></g></g><g class="nodes"><g class="node default entry" id="my-svg-flowchart-start-0" data-look="classic" transform="translate(956.3398437518626, 26.25)"><g class="basic label-container outer-path"><path d="M-37.8125 -18.25 C-8.361963738277566 -18.25, 21.088572523444867 -18.25, 37.8125 -18.25 C37.8125 -18.25, 37.8125 -18.25, 37.8125 -18.25 C38.07786475010116 -18.241490268965407, 38.34322950020233 -18.232980537930814, 38.981781514648006 -18.21250341769364 C39.43731079040876 -18.168559056315107, 39.89284006616951 -18.124614694936575, 40.14625820074223 -18.100167752274242 C40.45783770343062 -18.049793994614713, 40.76941720611901 -17.99942023695519, 41.30114497380004 -17.913454615086945 C41.63174085710179 -17.837998262063074, 41.962336740403536 -17.7625419090392, 42.441696156348506 -17.653131250462287 C42.70295508261094 -17.575590972523685, 42.964214008873384 -17.498050694585082, 43.563224978931075 -17.320267382944703 C43.88228380389811 -17.202850786009385, 44.201342628865156 -17.085434189074068, 44.66112283904857 -16.9162308215649 C45.04032605360555 -16.74836880714422, 45.41952926816251 -16.580506792723543, 45.730878238895436 -16.442681839219148 C46.091803398738165 -16.254387414512795, 46.452728558580894 -16.066092989806442, 46.768095324071865 -15.901566350251858 C47.115931244703326 -15.690706171054304, 47.46376716533479 -15.479845991856747, 47.76851194709251 -15.295107914276093 C48.11140633885596 -15.055919630240897, 48.454300730619394 -14.816731346205703, 48.72801718146469 -14.625798599090208 C49.00327398356104 -14.406288624309502, 49.27853078565739 -14.186778649528794, 49.642668214367134 -13.896388740236706 C49.8931372808527 -13.668919361102864, 50.14360634733826 -13.441449981969022, 50.50870654851363 -13.109875639283528 C50.80401516848925 -12.8049452438701, 51.099323788464865 -12.500014848456672, 51.3225734466245 -12.269491247269036 C51.58359242188216 -11.962883506530954, 51.844611397139815 -11.656275765792874, 52.08092455504155 -11.378688883921889 C52.311504323035514 -11.06973300105897, 52.54208409102949 -10.760777118196051, 52.78064364639444 -10.4411290472296 C53.03229233049578 -10.054529091316565, 53.283941014597126 -9.667929135403531, 53.418855424847564 -9.460664371667084 C53.551549595967344 -9.225052434102055, 53.68424376708713 -8.989440496537028, 53.992937341307254 -8.441323796895244 C54.10071758553106 -8.217515813636727, 54.208497829754855 -7.99370783037821, 54.500530370038575 -7.3872960119836915 C54.652042061657404 -7.013059204405905, 54.80355375327623 -6.638822396828119, 54.939548702408125 -6.302912243188873 C55.01414406348336 -6.078242900787022, 55.08873942455859 -5.853573558385171, 55.308188317919054 -5.192628456016347 C55.39121258601576 -4.876020938818192, 55.47423685411247 -4.559413421620037, 55.60493439731828 -4.061007044702739 C55.6619913375248 -3.768031715730834, 55.719048277731325 -3.4750563867589284, 55.82856754731371 -2.9126980843591777 C55.8612527092214 -2.6591984230184176, 55.89393787112908 -2.4056987616776575, 55.97816881132287 -1.7524202228151955 C55.99953884123726 -1.4195647573208354, 56.020908871151654 -1.0867092918264754, 56.05312344566255 -0.5849412906827067 C56.05312344566255 -0.333247554422059, 56.05312344566255 -0.08155381816141127, 56.05312344566255 0.5849412906827023 C56.025977120338815 1.007767219719254, 55.99883079501509 1.4305931487558055, 55.97816881132287 1.752420222815183 C55.9208239281423 2.197175812735676, 55.86347904496172 2.641931402656169, 55.82856754731371 2.9126980843591648 C55.75185066531341 3.3066230593119594, 55.675133783313115 3.700548034264754, 55.60493439731828 4.061007044702736 C55.50007732378054 4.460872511445304, 55.395220250242794 4.860737978187873, 55.30818831791906 5.192628456016335 C55.19757064214782 5.525791270906156, 55.086952966376565 5.858954085795977, 54.93954870240813 6.302912243188861 C54.784434247477876 6.686047945800565, 54.62931979254761 7.0691836484122685, 54.500530370038575 7.387296011983686 C54.386225115115195 7.62465331957274, 54.271919860191815 7.862010627161794, 53.992937341307254 8.44132379689524 C53.8016918860066 8.780899468483836, 53.610446430705956 9.12047514007243, 53.418855424847564 9.46066437166708 C53.19923638315231 9.798058195681099, 52.979617341457065 10.135452019695117, 52.78064364639445 10.441129047229591 C52.56550454107596 10.729395848780673, 52.35036543575747 11.017662650331756, 52.08092455504155 11.378688883921884 C51.82404400867621 11.680435390599776, 51.56716346231087 11.982181897277668, 51.32257344662452 12.269491247269025 C51.06996351630568 12.53033173998421, 50.817353585986844 12.791172232699392, 50.50870654851363 13.109875639283525 C50.20264281252087 13.387834626309452, 49.896579076528106 13.66579361333538, 49.64266821436715 13.896388740236693 C49.27889875428889 14.186485204337227, 48.91512929421062 14.476581668437763, 48.72801718146469 14.625798599090206 C48.372107144375924 14.874066033866145, 48.016197107287155 15.122333468642083, 47.76851194709252 15.295107914276088 C47.54882910519991 15.428280944031066, 47.3291462633073 15.561453973786044, 46.768095324071865 15.901566350251857 C46.51942903607504 16.03129539342144, 46.27076274807822 16.161024436591024, 45.73087823889544 16.442681839219148 C45.4314976971734 16.57520872423126, 45.132117155451354 16.707735609243375, 44.66112283904859 16.916230821564895 C44.369314412129924 17.023619020118492, 44.07750598521126 17.13100721867209, 43.56322497893109 17.3202673829447 C43.255726924977054 17.411531191268036, 42.94822887102302 17.50279499959137, 42.44169615634853 17.653131250462284 C42.08209957254505 17.73520682412842, 41.72250298874157 17.817282397794553, 41.30114497380005 17.91345461508694 C40.88426739557621 17.98085214900027, 40.46738981735237 18.048249682913596, 40.146258200742245 18.100167752274242 C39.90084790384899 18.12384218846647, 39.655437606955736 18.1475166246587, 38.98178151464801 18.21250341769364 C38.581060892377764 18.22535374809447, 38.180340270107514 18.238204078495304, 37.8125 18.25 C37.8125 18.25, 37.8125 18.25, 37.8125 18.25 C20.09946826104686 18.25, 2.3864365220937174 18.25, -37.8125 18.25 C-38.12915400512474 18.23984552238528, -38.44580801024947 18.22969104477056, -38.981781514648006 18.21250341769364 C-39.396288487365545 18.17251642855315, -39.810795460083085 18.132529439412657, -40.14625820074224 18.100167752274242 C-40.551525181535744 18.034647329711923, -40.95679216232924 17.969126907149604, -41.30114497380004 17.91345461508694 C-41.70070720150055 17.822257144001508, -42.10026942920106 17.73105967291608, -42.441696156348506 17.653131250462287 C-42.817628544722716 17.541556490902195, -43.19356093309693 17.429981731342103, -43.56322497893107 17.320267382944706 C-43.905473627433906 17.194316716583835, -44.247722275936745 17.068366050222966, -44.66112283904858 16.9162308215649 C-44.92305478987983 16.80028131686716, -45.184986740711075 16.68433181216942, -45.730878238895436 16.44268183921915 C-45.96077843333848 16.322743055036312, -46.19067862778154 16.202804270853477, -46.76809532407186 15.90156635025186 C-47.03101376945114 15.742183643582653, -47.29393221483043 15.582800936913443, -47.768511947092506 15.2951079142761 C-48.082638069724396 15.075987129428775, -48.396764192356294 14.856866344581448, -48.72801718146469 14.62579859909021 C-48.98646411236097 14.419694049262098, -49.244911043257254 14.213589499433985, -49.642668214367134 13.896388740236707 C-49.86010983130965 13.698914016919431, -50.077551448252166 13.501439293602155, -50.508706548513615 13.109875639283537 C-50.832123444096574 12.775921141573185, -51.15554033967953 12.441966643862836, -51.32257344662451 12.26949124726903 C-51.4801680300333 12.084371682211234, -51.63776261344209 11.89925211715344, -52.08092455504154 11.37868888392189 C-52.27110352847239 11.12386638518546, -52.46128250190323 10.86904388644903, -52.78064364639444 10.441129047229602 C-52.9342555707004 10.205139880918342, -53.087867495006364 9.969150714607082, -53.418855424847564 9.460664371667093 C-53.6137361726391 9.11463387014765, -53.80861692043063 8.768603368628206, -53.992937341307254 8.441323796895245 C-54.09448499470329 8.230457921846662, -54.196032648099326 8.019592046798081, -54.500530370038575 7.387296011983693 C-54.59372254034964 7.157109549567319, -54.68691471066071 6.926923087150945, -54.939548702408125 6.302912243188875 C-55.033626076626476 6.0195661812372165, -55.12770345084482 5.736220119285558, -55.308188317919054 5.192628456016342 C-55.41397500346673 4.789217975783498, -55.519761689014416 4.3858074955506545, -55.604934397318274 4.061007044702742 C-55.693656409342566 3.6054382643618945, -55.78237842136686 3.149869484021047, -55.82856754731371 2.91269808435918 C-55.87131681032191 2.5811432422644263, -55.914066073330105 2.2495884001696727, -55.97816881132287 1.7524202228152057 C-56.00729774494434 1.2987135692087723, -56.0364266785658 0.8450069156023391, -56.05312344566255 0.5849412906827091 C-56.05312344566255 0.3356394096502142, -56.05312344566255 0.08633752861771937, -56.05312344566255 -0.5849412906827002 C-56.02944523656248 -0.9537485101226719, -56.00576702746241 -1.3225557295626438, -55.97816881132287 -1.7524202228151808 C-55.92271534221724 -2.1825063786723966, -55.8672618731116 -2.612592534529613, -55.82856754731371 -2.912698084359171 C-55.770788985793324 -3.2093787862630783, -55.71301042427293 -3.5060594881669855, -55.60493439731828 -4.061007044702734 C-55.53398968680194 -4.331549973533604, -55.46304497628559 -4.602092902364473, -55.30818831791906 -5.192628456016333 C-55.20360474724099 -5.507617507769604, -55.099021176562914 -5.822606559522875, -54.93954870240813 -6.302912243188851 C-54.82073679907512 -6.59637994149327, -54.70192489574211 -6.889847639797689, -54.500530370038575 -7.387296011983684 C-54.3680163811399 -7.662464145276929, -54.23550239224123 -7.937632278570174, -53.992937341307254 -8.441323796895237 C-53.842249330034456 -8.708885619725846, -53.69156131876165 -8.976447442556456, -53.418855424847564 -9.460664371667086 C-53.290276772170635 -9.658195710381499, -53.16169811949371 -9.855727049095911, -52.780643646394445 -10.441129047229596 C-52.53778248981105 -10.766540871944825, -52.294921333227656 -11.091952696660055, -52.08092455504155 -11.378688883921884 C-51.80054595686659 -11.70803753933238, -51.52016735869164 -12.037386194742878, -51.32257344662452 -12.269491247269025 C-51.09655112478369 -12.502877851347412, -50.87052880294286 -12.736264455425799, -50.508706548513636 -13.10987563928352 C-50.166176947469125 -13.420951960115525, -49.82364734642462 -13.732028280947533, -49.64266821436715 -13.896388740236691 C-49.32343759851437 -14.150966661295827, -49.004206982661586 -14.405544582354963, -48.72801718146469 -14.625798599090205 C-48.513646864980124 -14.775334051928407, -48.299276548495556 -14.924869504766608, -47.76851194709252 -15.295107914276086 C-47.40600147586209 -15.514863892283966, -47.04349100463166 -15.734619870291846, -46.768095324071865 -15.901566350251855 C-46.45787817275883 -16.063406439388295, -46.1476610214458 -16.22524652852474, -45.73087823889544 -16.442681839219148 C-45.46740583935594 -16.559313254864243, -45.20393343981644 -16.675944670509335, -44.66112283904859 -16.91623082156489 C-44.44081147914033 -16.99730743854702, -44.220500119232064 -17.078384055529146, -43.56322497893109 -17.3202673829447 C-43.315851468475 -17.39368654235801, -43.068477958018924 -17.467105701771324, -42.44169615634853 -17.65313125046228 C-42.117635200773925 -17.72709604887682, -41.79357424519932 -17.80106084729136, -41.30114497380005 -17.91345461508694 C-40.93003937396968 -17.973452090500608, -40.5589337741393 -18.033449565914275, -40.146258200742245 -18.100167752274242 C-39.79715279639777 -18.133845530770678, -39.44804739205329 -18.167523309267114, -38.98178151464801 -18.21250341769364 C-38.57193424114578 -18.22564642203553, -38.16208696764355 -18.238789426377426, -37.81250000000001 -18.25 C-37.81250000000001 -18.25, -37.8125 -18.25, -37.8125 -18.25" stroke="none" stroke-width="0" fill="#1f6feb" style="fill:#1f6feb !important;stroke:#0b3d91 !important"/><path d="M-37.8125 -18.25 C-9.659773456088175 -18.25, 18.49295308782365 -18.25, 37.8125 -18.25 M-37.8125 -18.25 C-10.41798246243697 -18.25, 16.97653507512606 -18.25, 37.8125 -18.25 M37.8125 -18.25 C37.8125 -18.25, 37.8125 -18.25, 37.8125 -18.25 M37.8125 -18.25 C37.8125 -18.25, 37.8125 -18.25, 37.8125 -18.25 M37.8125 -18.25 C38.258709173691216 -18.235690940293193, 38.70491834738244 -18.22138188058638, 38.981781514648006 -18.21250341769364 M37.8125 -18.25 C38.23118354094054 -18.236573633760113, 38.64986708188108 -18.223147267520222, 38.981781514648006 -18.21250341769364 M38.981781514648006 -18.21250341769364 C39.25260959569477 -18.186376958433478, 39.523437676741544 -18.16025049917332, 40.14625820074223 -18.100167752274242 M38.981781514648006 -18.21250341769364 C39.3244468941335 -18.17944690065009, 39.66711227361899 -18.146390383606533, 40.14625820074223 -18.100167752274242 M40.14625820074223 -18.100167752274242 C40.463533593280076 -18.048873127316142, 40.78080898581792 -17.99757850235804, 41.30114497380004 -17.913454615086945 M40.14625820074223 -18.100167752274242 C40.387315450478305 -18.061195485563807, 40.62837270021437 -18.02222321885337, 41.30114497380004 -17.913454615086945 M41.30114497380004 -17.913454615086945 C41.538264775957074 -17.859333567595918, 41.77538457811411 -17.80521252010489, 42.441696156348506 -17.653131250462287 M41.30114497380004 -17.913454615086945 C41.540574474395235 -17.8588063939996, 41.78000397499042 -17.804158172912253, 42.441696156348506 -17.653131250462287 M42.441696156348506 -17.653131250462287 C42.75180086028064 -17.56109380210804, 43.061905564212765 -17.46905635375379, 43.563224978931075 -17.320267382944703 M42.441696156348506 -17.653131250462287 C42.84917156479402 -17.532194688117723, 43.25664697323954 -17.41125812577316, 43.563224978931075 -17.320267382944703 M43.563224978931075 -17.320267382944703 C43.839873971794894 -17.21845799625556, 44.11652296465872 -17.11664860956642, 44.66112283904857 -16.9162308215649 M43.563224978931075 -17.320267382944703 C43.866499201921364 -17.208659665448092, 44.16977342491165 -17.09705194795148, 44.66112283904857 -16.9162308215649 M44.66112283904857 -16.9162308215649 C44.96444974168729 -16.78195699963961, 45.267776644326005 -16.647683177714324, 45.730878238895436 -16.442681839219148 M44.66112283904857 -16.9162308215649 C45.012802339949616 -16.760552738717745, 45.36448184085066 -16.604874655870592, 45.730878238895436 -16.442681839219148 M45.730878238895436 -16.442681839219148 C46.14551388630949 -16.226366687550044, 46.560149533723546 -16.01005153588094, 46.768095324071865 -15.901566350251858 M45.730878238895436 -16.442681839219148 C46.036715597622 -16.28312668506968, 46.34255295634856 -16.12357153092021, 46.768095324071865 -15.901566350251858 M46.768095324071865 -15.901566350251858 C47.05222131232371 -15.729327506463948, 47.336347300575554 -15.557088662676037, 47.76851194709251 -15.295107914276093 M46.768095324071865 -15.901566350251858 C47.14245337122363 -15.674628302096382, 47.51681141837539 -15.447690253940904, 47.76851194709251 -15.295107914276093 M47.76851194709251 -15.295107914276093 C48.09949521466441 -15.064228314852665, 48.4304784822363 -14.833348715429238, 48.72801718146469 -14.625798599090208 M47.76851194709251 -15.295107914276093 C48.05908235810063 -15.092418574147189, 48.34965276910876 -14.889729234018283, 48.72801718146469 -14.625798599090208 M48.72801718146469 -14.625798599090208 C49.03993807938574 -14.377049983561868, 49.35185897730679 -14.128301368033528, 49.642668214367134 -13.896388740236706 M48.72801718146469 -14.625798599090208 C49.067026490645254 -14.355447696435306, 49.40603579982581 -14.085096793780401, 49.642668214367134 -13.896388740236706 M49.642668214367134 -13.896388740236706 C49.877359411000306 -13.683248405043246, 50.11205060763348 -13.470108069849788, 50.50870654851363 -13.109875639283528 M49.642668214367134 -13.896388740236706 C49.84430499191573 -13.713267553883854, 50.04594176946433 -13.530146367531005, 50.50870654851363 -13.109875639283528 M50.50870654851363 -13.109875639283528 C50.672006393604754 -12.941255142060319, 50.83530623869588 -12.772634644837112, 51.3225734466245 -12.269491247269036 M50.50870654851363 -13.109875639283528 C50.750123996483815 -12.860592303513213, 50.99154144445401 -12.611308967742898, 51.3225734466245 -12.269491247269036 M51.3225734466245 -12.269491247269036 C51.479660588121114 -12.084967752355553, 51.636747729617724 -11.900444257442068, 52.08092455504155 -11.378688883921889 M51.3225734466245 -12.269491247269036 C51.58706859789501 -11.958800192386239, 51.85156374916552 -11.648109137503443, 52.08092455504155 -11.378688883921889 M52.08092455504155 -11.378688883921889 C52.29152020613119 -11.096509897120267, 52.50211585722083 -10.814330910318645, 52.78064364639444 -10.4411290472296 M52.08092455504155 -11.378688883921889 C52.3356139545599 -11.037428291248906, 52.59030335407826 -10.696167698575923, 52.78064364639444 -10.4411290472296 M52.78064364639444 -10.4411290472296 C52.98144242565556 -10.132648200262498, 53.18224120491667 -9.824167353295396, 53.418855424847564 -9.460664371667084 M52.78064364639444 -10.4411290472296 C52.983310459986015 -10.129778397893464, 53.185977273577585 -9.818427748557328, 53.418855424847564 -9.460664371667084 M53.418855424847564 -9.460664371667084 C53.591243668201436 -9.154571589389768, 53.7636319115553 -8.848478807112452, 53.992937341307254 -8.441323796895244 M53.418855424847564 -9.460664371667084 C53.607276348962095 -9.12610394121424, 53.79569727307663 -8.791543510761395, 53.992937341307254 -8.441323796895244 M53.992937341307254 -8.441323796895244 C54.11249504499562 -8.193059667061304, 54.23205274868398 -7.944795537227364, 54.500530370038575 -7.3872960119836915 M53.992937341307254 -8.441323796895244 C54.1422131609016 -8.13134936351671, 54.29148898049595 -7.8213749301381785, 54.500530370038575 -7.3872960119836915 M54.500530370038575 -7.3872960119836915 C54.60021579921037 -7.141071074642713, 54.69990122838215 -6.894846137301734, 54.939548702408125 -6.302912243188873 M54.500530370038575 -7.3872960119836915 C54.631928721335406 -7.062739543866217, 54.76332707263224 -6.738183075748743, 54.939548702408125 -6.302912243188873 M54.939548702408125 -6.302912243188873 C55.01850113921115 -6.065120082900649, 55.097453576014175 -5.827327922612427, 55.308188317919054 -5.192628456016347 M54.939548702408125 -6.302912243188873 C55.04528181645178 -5.984460949973346, 55.15101493049543 -5.6660096567578195, 55.308188317919054 -5.192628456016347 M55.308188317919054 -5.192628456016347 C55.3772023265517 -4.9294481302395035, 55.44621633518435 -4.6662678044626595, 55.60493439731828 -4.061007044702739 M55.308188317919054 -5.192628456016347 C55.38774092996221 -4.889259867975623, 55.46729354200537 -4.5858912799348985, 55.60493439731828 -4.061007044702739 M55.60493439731828 -4.061007044702739 C55.68881486167562 -3.630298588370225, 55.77269532603295 -3.1995901320377103, 55.82856754731371 -2.9126980843591777 M55.60493439731828 -4.061007044702739 C55.67976433429521 -3.676771133639004, 55.75459427127213 -3.292535222575268, 55.82856754731371 -2.9126980843591777 M55.82856754731371 -2.9126980843591777 C55.871839287725905 -2.5770910106938683, 55.91511102813809 -2.2414839370285593, 55.97816881132287 -1.7524202228151955 M55.82856754731371 -2.9126980843591777 C55.88785476723074 -2.452878114268455, 55.94714198714778 -1.993058144177732, 55.97816881132287 -1.7524202228151955 M55.97816881132287 -1.7524202228151955 C56.002191507485776 -1.3782473393065509, 56.026214203648685 -1.004074455797906, 56.05312344566255 -0.5849412906827067 M55.97816881132287 -1.7524202228151955 C56.001322143202735 -1.3917883897530927, 56.0244754750826 -1.03115655669099, 56.05312344566255 -0.5849412906827067 M56.05312344566255 -0.5849412906827067 C56.05312344566255 -0.25016078890360777, 56.05312344566255 0.0846197128754912, 56.05312344566255 0.5849412906827023 M56.05312344566255 -0.5849412906827067 C56.05312344566255 -0.2085848961986963, 56.05312344566255 0.16777149828531412, 56.05312344566255 0.5849412906827023 M56.05312344566255 0.5849412906827023 C56.03517889900586 0.8644420894380737, 56.01723435234916 1.143942888193445, 55.97816881132287 1.752420222815183 M56.05312344566255 0.5849412906827023 C56.026360358646656 1.0017979737302514, 55.99959727163077 1.4186546567778007, 55.97816881132287 1.752420222815183 M55.97816881132287 1.752420222815183 C55.927247362275594 2.1473569260483663, 55.876325913228314 2.5422936292815494, 55.82856754731371 2.9126980843591648 M55.97816881132287 1.752420222815183 C55.92475208622301 2.1667097943641895, 55.87133536112316 2.5809993659131956, 55.82856754731371 2.9126980843591648 M55.82856754731371 2.9126980843591648 C55.74703786357824 3.3313357790360336, 55.66550817984278 3.7499734737129025, 55.60493439731828 4.061007044702736 M55.82856754731371 2.9126980843591648 C55.74954140853998 3.318480604781934, 55.67051526976625 3.724263125204703, 55.60493439731828 4.061007044702736 M55.60493439731828 4.061007044702736 C55.537293064787704 4.318952761580794, 55.46965173225713 4.576898478458853, 55.30818831791906 5.192628456016335 M55.60493439731828 4.061007044702736 C55.53140652383447 4.341400693478463, 55.45787865035066 4.62179434225419, 55.30818831791906 5.192628456016335 M55.30818831791906 5.192628456016335 C55.21744312624035 5.465938515069804, 55.12669793456163 5.739248574123273, 54.93954870240813 6.302912243188861 M55.30818831791906 5.192628456016335 C55.19938243069378 5.5203344524750015, 55.09057654346851 5.848040448933668, 54.93954870240813 6.302912243188861 M54.93954870240813 6.302912243188861 C54.825770195658464 6.583947354618312, 54.7119916889088 6.864982466047762, 54.500530370038575 7.387296011983686 M54.93954870240813 6.302912243188861 C54.80113614430675 6.644793937724018, 54.66272358620538 6.9866756322591765, 54.500530370038575 7.387296011983686 M54.500530370038575 7.387296011983686 C54.31366496634698 7.775326021028421, 54.12679956265538 8.163356030073157, 53.992937341307254 8.44132379689524 M54.500530370038575 7.387296011983686 C54.36494179652273 7.66884858602006, 54.22935322300689 7.950401160056434, 53.992937341307254 8.44132379689524 M53.992937341307254 8.44132379689524 C53.84618282681348 8.701901297884941, 53.69942831231971 8.96247879887464, 53.418855424847564 9.46066437166708 M53.992937341307254 8.44132379689524 C53.86447442066208 8.669422720782038, 53.7360115000169 8.897521644668835, 53.418855424847564 9.46066437166708 M53.418855424847564 9.46066437166708 C53.20622756503286 9.787317862917385, 52.99359970521815 10.11397135416769, 52.78064364639445 10.441129047229591 M53.418855424847564 9.46066437166708 C53.27511391673811 9.681489928122652, 53.13137240862864 9.902315484578223, 52.78064364639445 10.441129047229591 M52.78064364639445 10.441129047229591 C52.519925980153566 10.790466968124363, 52.25920831391267 11.139804889019135, 52.08092455504155 11.378688883921884 M52.78064364639445 10.441129047229591 C52.62754509885286 10.646267153370713, 52.47444655131127 10.851405259511834, 52.08092455504155 11.378688883921884 M52.08092455504155 11.378688883921884 C51.875909819964555 11.619510857412223, 51.670895084887555 11.860332830902562, 51.32257344662452 12.269491247269025 M52.08092455504155 11.378688883921884 C51.83486279935537 11.66772702346141, 51.588801043669186 11.956765163000934, 51.32257344662452 12.269491247269025 M51.32257344662452 12.269491247269025 C51.07538867492225 12.524729818298791, 50.828203903219986 12.779968389328557, 50.50870654851363 13.109875639283525 M51.32257344662452 12.269491247269025 C51.109597021327154 12.489406892078255, 50.89662059602979 12.709322536887488, 50.50870654851363 13.109875639283525 M50.50870654851363 13.109875639283525 C50.22643680946274 13.366225547841506, 49.94416707041185 13.622575456399487, 49.64266821436715 13.896388740236693 M50.50870654851363 13.109875639283525 C50.30916980679282 13.29108962866148, 50.10963306507202 13.472303618039435, 49.64266821436715 13.896388740236693 M49.64266821436715 13.896388740236693 C49.42139958373086 14.072844584963581, 49.20013095309457 14.249300429690472, 48.72801718146469 14.625798599090206 M49.64266821436715 13.896388740236693 C49.32463422487282 14.150012383618527, 49.006600235378485 14.403636027000363, 48.72801718146469 14.625798599090206 M48.72801718146469 14.625798599090206 C48.390327456284794 14.861356333023105, 48.0526377311049 15.096914066956005, 47.76851194709252 15.295107914276088 M48.72801718146469 14.625798599090206 C48.483427337662036 14.796413886003256, 48.23883749385937 14.967029172916304, 47.76851194709252 15.295107914276088 M47.76851194709252 15.295107914276088 C47.39482862770189 15.521636938497624, 47.02114530831126 15.748165962719161, 46.768095324071865 15.901566350251857 M47.76851194709252 15.295107914276088 C47.445675058703436 15.490813533217693, 47.12283817031435 15.686519152159299, 46.768095324071865 15.901566350251857 M46.768095324071865 15.901566350251857 C46.53159064379928 16.024950690461587, 46.29508596352669 16.14833503067132, 45.73087823889544 16.442681839219148 M46.768095324071865 15.901566350251857 C46.490405732315054 16.046436832402712, 46.21271614055825 16.19130731455357, 45.73087823889544 16.442681839219148 M45.73087823889544 16.442681839219148 C45.43849473368124 16.572111343728956, 45.146111228467035 16.701540848238764, 44.66112283904859 16.916230821564895 M45.73087823889544 16.442681839219148 C45.48045849204912 16.55353523271016, 45.23003874520279 16.66438862620117, 44.66112283904859 16.916230821564895 M44.66112283904859 16.916230821564895 C44.35854069114879 17.027583849030734, 44.055958543248984 17.138936876496576, 43.56322497893109 17.3202673829447 M44.66112283904859 16.916230821564895 C44.423359064458324 17.003730088478353, 44.185595289868054 17.091229355391807, 43.56322497893109 17.3202673829447 M43.56322497893109 17.3202673829447 C43.25014858098179 17.413186814484504, 42.93707218303249 17.50610624602431, 42.44169615634853 17.653131250462284 M43.56322497893109 17.3202673829447 C43.13896688520926 17.44618495818516, 42.71470879148743 17.57210253342562, 42.44169615634853 17.653131250462284 M42.44169615634853 17.653131250462284 C42.00960175665061 17.75175397751386, 41.57750735695269 17.85037670456544, 41.30114497380005 17.91345461508694 M42.44169615634853 17.653131250462284 C41.99790886142788 17.75442280454518, 41.554121566507234 17.85571435862807, 41.30114497380005 17.91345461508694 M41.30114497380005 17.91345461508694 C40.99391232614175 17.963125606935566, 40.68667967848346 18.012796598784195, 40.146258200742245 18.100167752274242 M41.30114497380005 17.91345461508694 C40.87039488060291 17.983094949638193, 40.439644787405776 18.052735284189442, 40.146258200742245 18.100167752274242 M40.146258200742245 18.100167752274242 C39.876587506343164 18.12618255983646, 39.60691681194409 18.152197367398678, 38.98178151464801 18.21250341769364 M40.146258200742245 18.100167752274242 C39.698351706350735 18.14337675310182, 39.250445211959224 18.186585753929396, 38.98178151464801 18.21250341769364 M38.98178151464801 18.21250341769364 C38.606708523859815 18.224531278472927, 38.23163553307162 18.23655913925222, 37.8125 18.25 M38.98178151464801 18.21250341769364 C38.62718898151121 18.22387451005884, 38.2725964483744 18.235245602424044, 37.8125 18.25 M37.8125 18.25 C37.8125 18.25, 37.8125 18.25, 37.8125 18.25 M37.8125 18.25 C37.8125 18.25, 37.8125 18.25, 37.8125 18.25 M37.8125 18.25 C13.823361313039602 18.25, -10.165777373920797 18.25, -37.8125 18.25 M37.8125 18.25 C20.568051350777335 18.25, 3.3236027015546696 18.25, -37.8125 18.25 M-37.8125 18.25 C-38.22061593649348 18.236912516266134, -38.62873187298696 18.223825032532268, -38.981781514648006 18.21250341769364 M-37.8125 18.25 C-38.21129236706385 18.237211504990515, -38.610084734127696 18.22442300998103, -38.981781514648006 18.21250341769364 M-38.981781514648006 18.21250341769364 C-39.24128841145624 18.187469099461254, -39.50079530826448 18.16243478122887, -40.14625820074224 18.100167752274242 M-38.981781514648006 18.21250341769364 C-39.265406686626974 18.185142438462005, -39.54903185860594 18.157781459230367, -40.14625820074224 18.100167752274242 M-40.14625820074224 18.100167752274242 C-40.54797477392451 18.035221332080685, -40.94969134710677 17.970274911887127, -41.30114497380004 17.91345461508694 M-40.14625820074224 18.100167752274242 C-40.453321612059355 18.05052412124481, -40.76038502337647 18.000880490215376, -41.30114497380004 17.91345461508694 M-41.30114497380004 17.91345461508694 C-41.589444429329184 17.84765214569218, -41.877743884858326 17.781849676297423, -42.441696156348506 17.653131250462287 M-41.30114497380004 17.91345461508694 C-41.642031437786855 17.835649504174018, -41.98291790177366 17.7578443932611, -42.441696156348506 17.653131250462287 M-42.441696156348506 17.653131250462287 C-42.748780523786735 17.56199022212536, -43.055864891224964 17.470849193788432, -43.56322497893107 17.320267382944706 M-42.441696156348506 17.653131250462287 C-42.71564922960074 17.571823416330048, -42.98960230285299 17.490515582197812, -43.56322497893107 17.320267382944706 M-43.56322497893107 17.320267382944706 C-43.900114475430854 17.19628893406042, -44.23700397193064 17.07231048517613, -44.66112283904858 16.9162308215649 M-43.56322497893107 17.320267382944706 C-43.78712939667537 17.237868487465057, -44.01103381441967 17.155469591985405, -44.66112283904858 16.9162308215649 M-44.66112283904858 16.9162308215649 C-44.94523108425034 16.790464529185734, -45.2293393294521 16.66469823680657, -45.730878238895436 16.44268183921915 M-44.66112283904858 16.9162308215649 C-45.0142839735076 16.759896863492727, -45.36744510796662 16.603562905420556, -45.730878238895436 16.44268183921915 M-45.730878238895436 16.44268183921915 C-46.099217405823765 16.25051953176514, -46.467556572752095 16.058357224311123, -46.76809532407186 15.90156635025186 M-45.730878238895436 16.44268183921915 C-46.12022472127763 16.239560028748684, -46.509571203659824 16.036438218278217, -46.76809532407186 15.90156635025186 M-46.76809532407186 15.90156635025186 C-47.08718183285815 15.708134233465149, -47.406268341644434 15.514702116678436, -47.768511947092506 15.2951079142761 M-46.76809532407186 15.90156635025186 C-47.06556007324152 15.721241471208309, -47.363024822411184 15.540916592164757, -47.768511947092506 15.2951079142761 M-47.768511947092506 15.2951079142761 C-48.11683127877599 15.052135426994544, -48.46515061045948 14.809162939712989, -48.72801718146469 14.62579859909021 M-47.768511947092506 15.2951079142761 C-48.06352344722338 15.08932066262681, -48.358534947354265 14.88353341097752, -48.72801718146469 14.62579859909021 M-48.72801718146469 14.62579859909021 C-48.94437198072999 14.453261404119141, -49.16072677999529 14.280724209148072, -49.642668214367134 13.896388740236707 M-48.72801718146469 14.62579859909021 C-49.092048997696445 14.335492912938859, -49.456080813928196 14.045187226787508, -49.642668214367134 13.896388740236707 M-49.642668214367134 13.896388740236707 C-49.91508136718554 13.648990322504085, -50.18749452000395 13.401591904771463, -50.508706548513615 13.109875639283537 M-49.642668214367134 13.896388740236707 C-49.948695019445545 13.618463292890052, -50.25472182452396 13.340537845543395, -50.508706548513615 13.109875639283537 M-50.508706548513615 13.109875639283537 C-50.78491289472181 12.824669909860814, -51.06111924093001 12.539464180438092, -51.32257344662451 12.26949124726903 M-50.508706548513615 13.109875639283537 C-50.700093526143576 12.912252871717515, -50.891480503773536 12.71463010415149, -51.32257344662451 12.26949124726903 M-51.32257344662451 12.26949124726903 C-51.527766956219146 12.028459275057712, -51.73296046581378 11.787427302846393, -52.08092455504154 11.37868888392189 M-51.32257344662451 12.26949124726903 C-51.556162800791064 11.995103900254207, -51.78975215495762 11.720716553239384, -52.08092455504154 11.37868888392189 M-52.08092455504154 11.37868888392189 C-52.24310415229729 11.161382998464445, -52.405283749553035 10.944077113006998, -52.78064364639444 10.441129047229602 M-52.08092455504154 11.37868888392189 C-52.23175547115041 11.176589197315145, -52.38258638725927 10.9744895107084, -52.78064364639444 10.441129047229602 M-52.78064364639444 10.441129047229602 C-53.0012008192379 10.10229400184845, -53.221757992081365 9.763458956467298, -53.418855424847564 9.460664371667093 M-52.78064364639444 10.441129047229602 C-52.952605018034305 10.176950202296945, -53.124566389674165 9.912771357364287, -53.418855424847564 9.460664371667093 M-53.418855424847564 9.460664371667093 C-53.63074187005934 9.084438532364413, -53.84262831527112 8.708212693061734, -53.992937341307254 8.441323796895245 M-53.418855424847564 9.460664371667093 C-53.592776613713035 9.151849689406355, -53.76669780257851 8.843035007145614, -53.992937341307254 8.441323796895245 M-53.992937341307254 8.441323796895245 C-54.147788206196736 8.119772662674494, -54.302639071086226 7.798221528453743, -54.500530370038575 7.387296011983693 M-53.992937341307254 8.441323796895245 C-54.18734529667715 8.037631517905771, -54.38175325204705 7.633939238916296, -54.500530370038575 7.387296011983693 M-54.500530370038575 7.387296011983693 C-54.658602338658405 6.996855193379105, -54.816674307278234 6.606414374774516, -54.939548702408125 6.302912243188875 M-54.500530370038575 7.387296011983693 C-54.62865249234715 7.0708318928087905, -54.756774614655725 6.754367773633888, -54.939548702408125 6.302912243188875 M-54.939548702408125 6.302912243188875 C-55.02595335781651 6.042675187811093, -55.1123580132249 5.782438132433311, -55.308188317919054 5.192628456016342 M-54.939548702408125 6.302912243188875 C-55.0318972077597 6.024773258806094, -55.12424571311127 5.746634274423313, -55.308188317919054 5.192628456016342 M-55.308188317919054 5.192628456016342 C-55.36881095918215 4.961448050861245, -55.429433600445236 4.730267645706148, -55.604934397318274 4.061007044702742 M-55.308188317919054 5.192628456016342 C-55.4210006514939 4.762426134920792, -55.53381298506875 4.332223813825243, -55.604934397318274 4.061007044702742 M-55.604934397318274 4.061007044702742 C-55.664006405678336 3.75768476664721, -55.7230784140384 3.454362488591678, -55.82856754731371 2.91269808435918 M-55.604934397318274 4.061007044702742 C-55.66500841470097 3.7525396620906704, -55.72508243208367 3.4440722794785983, -55.82856754731371 2.91269808435918 M-55.82856754731371 2.91269808435918 C-55.86493780595175 2.6306175404824734, -55.90130806458979 2.348536996605767, -55.97816881132287 1.7524202228152057 M-55.82856754731371 2.91269808435918 C-55.88429907154807 2.4804553878317326, -55.94003059578244 2.0482126913042857, -55.97816881132287 1.7524202228152057 M-55.97816881132287 1.7524202228152057 C-55.99888003785719 1.4298261517419528, -56.019591264391515 1.1072320806687, -56.05312344566255 0.5849412906827091 M-55.97816881132287 1.7524202228152057 C-56.00485614570115 1.3367434482449254, -56.03154348007942 0.9210666736746451, -56.05312344566255 0.5849412906827091 M-56.05312344566255 0.5849412906827091 C-56.05312344566255 0.286025818323753, -56.05312344566255 -0.012889654035203035, -56.05312344566255 -0.5849412906827002 M-56.05312344566255 0.5849412906827091 C-56.05312344566255 0.2416841434356174, -56.05312344566255 -0.10157300381147427, -56.05312344566255 -0.5849412906827002 M-56.05312344566255 -0.5849412906827002 C-56.024507738033776 -1.0306540351843663, -55.995892030404995 -1.4763667796860322, -55.97816881132287 -1.7524202228151808 M-56.05312344566255 -0.5849412906827002 C-56.02939829032345 -0.9544797356899335, -56.00567313498435 -1.324018180697167, -55.97816881132287 -1.7524202228151808 M-55.97816881132287 -1.7524202228151808 C-55.94088930450552 -2.0415527160192766, -55.90360979768816 -2.3306852092233723, -55.82856754731371 -2.912698084359171 M-55.97816881132287 -1.7524202228151808 C-55.920132856871994 -2.202535625040689, -55.862096902421115 -2.6526510272661974, -55.82856754731371 -2.912698084359171 M-55.82856754731371 -2.912698084359171 C-55.767039282955935 -3.2286327178330883, -55.70551101859815 -3.5445673513070055, -55.60493439731828 -4.061007044702734 M-55.82856754731371 -2.912698084359171 C-55.745286222986 -3.3403300832678244, -55.662004898658296 -3.767962082176478, -55.60493439731828 -4.061007044702734 M-55.60493439731828 -4.061007044702734 C-55.54475776613008 -4.290486620140268, -55.484581134941884 -4.519966195577802, -55.30818831791906 -5.192628456016333 M-55.60493439731828 -4.061007044702734 C-55.528286630600306 -4.353298198550616, -55.45163886388232 -4.645589352398498, -55.30818831791906 -5.192628456016333 M-55.30818831791906 -5.192628456016333 C-55.23140562679452 -5.42388568802298, -55.154622935669984 -5.655142920029628, -54.93954870240813 -6.302912243188851 M-55.30818831791906 -5.192628456016333 C-55.196825967452 -5.528034112442139, -55.085463616984946 -5.863439768867945, -54.93954870240813 -6.302912243188851 M-54.93954870240813 -6.302912243188851 C-54.79931548229113 -6.6492910081027246, -54.65908226217412 -6.995669773016598, -54.500530370038575 -7.387296011983684 M-54.93954870240813 -6.302912243188851 C-54.79164549908689 -6.668236014906228, -54.64374229576564 -7.033559786623604, -54.500530370038575 -7.387296011983684 M-54.500530370038575 -7.387296011983684 C-54.3320322962514 -7.737185867483984, -54.16353422246422 -8.087075722984284, -53.992937341307254 -8.441323796895237 M-54.500530370038575 -7.387296011983684 C-54.34710788020763 -7.705881094833043, -54.193685390376686 -8.024466177682402, -53.992937341307254 -8.441323796895237 M-53.992937341307254 -8.441323796895237 C-53.86840029874916 -8.662451926700157, -53.74386325619106 -8.88358005650508, -53.418855424847564 -9.460664371667086 M-53.992937341307254 -8.441323796895237 C-53.831291795059414 -8.728341832644764, -53.66964624881157 -9.015359868394292, -53.418855424847564 -9.460664371667086 M-53.418855424847564 -9.460664371667086 C-53.23762411544077 -9.739084330336583, -53.05639280603397 -10.017504289006078, -52.780643646394445 -10.441129047229596 M-53.418855424847564 -9.460664371667086 C-53.254896450184255 -9.712549385899289, -53.090937475520946 -9.96443440013149, -52.780643646394445 -10.441129047229596 M-52.780643646394445 -10.441129047229596 C-52.562009022235266 -10.73407952557888, -52.343374398076094 -11.02703000392816, -52.08092455504155 -11.378688883921884 M-52.780643646394445 -10.441129047229596 C-52.593478906859424 -10.691912747147981, -52.4063141673244 -10.942696447066366, -52.08092455504155 -11.378688883921884 M-52.08092455504155 -11.378688883921884 C-51.82520804627999 -11.67906804579476, -51.56949153751843 -11.979447207667638, -51.32257344662452 -12.269491247269025 M-52.08092455504155 -11.378688883921884 C-51.88822443746926 -11.605045406969605, -51.695524319896975 -11.831401930017327, -51.32257344662452 -12.269491247269025 M-51.32257344662452 -12.269491247269025 C-51.07405128936868 -12.52611077868425, -50.82552913211284 -12.782730310099478, -50.508706548513636 -13.10987563928352 M-51.32257344662452 -12.269491247269025 C-51.13496598176954 -12.463211357591105, -50.94735851691457 -12.656931467913184, -50.508706548513636 -13.10987563928352 M-50.508706548513636 -13.10987563928352 C-50.28606644866335 -13.312071487233311, -50.06342634881306 -13.514267335183103, -49.64266821436715 -13.896388740236691 M-50.508706548513636 -13.10987563928352 C-50.2565144026285 -13.338909873537872, -50.00432225674336 -13.567944107792226, -49.64266821436715 -13.896388740236691 M-49.64266821436715 -13.896388740236691 C-49.40889061031029 -14.082820158388728, -49.17511300625342 -14.269251576540764, -48.72801718146469 -14.625798599090205 M-49.64266821436715 -13.896388740236691 C-49.34038080528729 -14.137454904772087, -49.03809339620744 -14.378521069307482, -48.72801718146469 -14.625798599090205 M-48.72801718146469 -14.625798599090205 C-48.39372275808437 -14.858987917467969, -48.059428334704045 -15.092177235845734, -47.76851194709252 -15.295107914276086 M-48.72801718146469 -14.625798599090205 C-48.45273250172151 -14.817825274797329, -48.17744782197833 -15.009851950504453, -47.76851194709252 -15.295107914276086 M-47.76851194709252 -15.295107914276086 C-47.46875164231016 -15.476824372622236, -47.16899133752781 -15.658540830968384, -46.768095324071865 -15.901566350251855 M-47.76851194709252 -15.295107914276086 C-47.43902841025599 -15.49484277056657, -47.10954487341947 -15.694577626857058, -46.768095324071865 -15.901566350251855 M-46.768095324071865 -15.901566350251855 C-46.44804873980016 -16.068534448266785, -46.12800215552845 -16.235502546281715, -45.73087823889544 -16.442681839219148 M-46.768095324071865 -15.901566350251855 C-46.46594607898382 -16.05919741787846, -46.16379683389578 -16.216828485505065, -45.73087823889544 -16.442681839219148 M-45.73087823889544 -16.442681839219148 C-45.34328465888149 -16.614258019536283, -44.955691078867524 -16.78583419985342, -44.66112283904859 -16.91623082156489 M-45.73087823889544 -16.442681839219148 C-45.361188213251324 -16.606332647106825, -44.99149818760721 -16.769983454994502, -44.66112283904859 -16.91623082156489 M-44.66112283904859 -16.91623082156489 C-44.31491740987275 -17.043637619789507, -43.968711980696916 -17.17104441801412, -43.56322497893109 -17.3202673829447 M-44.66112283904859 -16.91623082156489 C-44.41478995577616 -17.006883599685356, -44.16845707250373 -17.097536377805824, -43.56322497893109 -17.3202673829447 M-43.56322497893109 -17.3202673829447 C-43.29910228003847 -17.39865761356769, -43.03497958114585 -17.477047844190682, -42.44169615634853 -17.65313125046228 M-43.56322497893109 -17.3202673829447 C-43.17230994326108 -17.436288913576664, -42.78139490759106 -17.55231044420863, -42.44169615634853 -17.65313125046228 M-42.44169615634853 -17.65313125046228 C-42.18640766518887 -17.71139918265638, -41.93111917402921 -17.76966711485048, -41.30114497380005 -17.91345461508694 M-42.44169615634853 -17.65313125046228 C-42.13837762225104 -17.722361726531616, -41.835059088153564 -17.791592202600956, -41.30114497380005 -17.91345461508694 M-41.30114497380005 -17.91345461508694 C-40.945823608986544 -17.97090021779165, -40.59050224417303 -18.028345820496362, -40.146258200742245 -18.100167752274242 M-41.30114497380005 -17.91345461508694 C-40.93562048051571 -17.972549780476374, -40.57009598723137 -18.031644945865803, -40.146258200742245 -18.100167752274242 M-40.146258200742245 -18.100167752274242 C-39.76294321860195 -18.137145687597602, -39.379628236461656 -18.174123622920966, -38.98178151464801 -18.21250341769364 M-40.146258200742245 -18.100167752274242 C-39.72891894473718 -18.14042796837716, -39.31157968873212 -18.18068818448008, -38.98178151464801 -18.21250341769364 M-38.98178151464801 -18.21250341769364 C-38.63047143840283 -18.22376924805524, -38.279161362157645 -18.235035078416843, -37.81250000000001 -18.25 M-38.98178151464801 -18.21250341769364 C-38.6968710230427 -18.221639942614793, -38.41196053143739 -18.230776467535943, -37.81250000000001 -18.25 M-37.81250000000001 -18.25 C-37.81250000000001 -18.25, -37.8125 -18.25, -37.8125 -18.25 M-37.81250000000001 -18.25 C-37.81250000000001 -18.25, -37.8125 -18.25, -37.8125 -18.25" stroke="#0b3d91" stroke-width="1.3" fill="none" stroke-dasharray="0 0" style="fill:#1f6feb !important;stroke:#0b3d91 !important"/></g><g class="label" style="color:#fff !important" transform="translate(-44.5, -11.25)"><rect/><foreignObject width="89" height="22.5"><div style="color: rgb(255, 255, 255) !important; display: table-cell; white-space: nowrap; line-height: 1.5; max-width: 200px; text-align: center;" xmlns="http://www.w3.org/1999/xhtml"><span style="color:#fff !important" class="nodeLabel"><p>call answered</p></span></div></foreignObject></g></g><g class="node default play" id="my-svg-flowchart-greet-1" data-look="classic" transform="translate(956.3398437518626, 142.25)"><rect class="basic label-container" style="fill:#eef4ff !important;stroke:#5b8def !important" x="-98.65625" y="-47.75" width="197.3125" height="95.5"/><g class="label" style="color:#0b2545 !important" transform="translate(-70.65625, -33.75)"><rect/><foreignObject width="141.3125" height="67.5"><div style="color: rgb(11, 37, 69) !important; display: table-cell; white-space: nowrap; line-height: 1.5; max-width: 200px; text-align: center;" xmlns="http://www.w3.org/1999/xhtml"><span style="color:#0b2545 !important" class="nodeLabel"><p><b>greeting</b> (per DID)<br />+ <b>recording notice</b><br /><i>always first, every call</i></p></span></div></foreignObject></g></g><g class="node default ask" id="my-svg-flowchart-known-2" data-look="classic" transform="translate(956.3398437518626, 322.7890625)"><polygon points="82.7890625,0 165.578125,-82.7890625 82.7890625,-165.578125 0,-82.7890625" class="label-container" transform="translate(-82.2890625, 82.7890625)" style="fill:#fff4e6 !important;stroke:#e8a33d !important"/><g class="label" style="color:#4a2f00 !important" transform="translate(-46.2890625, -22.5)"><rect/><foreignObject width="92.578125" height="45"><div style="color: rgb(74, 47, 0) !important; display: table-cell; white-space: nowrap; line-height: 1.5; max-width: 200px; text-align: center;" xmlns="http://www.w3.org/1999/xhtml"><span style="color:#4a2f00 !important" class="nodeLabel"><p>do we already<br />know why?</p></span></div></foreignObject></g></g><g class="node default done" id="my-svg-flowchart-skipped-3" data-look="classic" transform="translate(829.0234375018626, 570.125)"><rect class="basic label-container" style="fill:#e9f7ef !important;stroke:#2f9e5f !important" x="-112.5859375" y="-47.75" width="225.171875" height="95.5"/><g class="label" style="color:#08361d !important" transform="translate(-84.5859375, -33.75)"><rect/><foreignObject width="169.171875" height="67.5"><div style="color: rgb(8, 54, 29) !important; display: table-cell; white-space: nowrap; line-height: 1.5; max-width: 200px; text-align: center;" xmlns="http://www.w3.org/1999/xhtml"><span style="color:#08361d !important" class="nodeLabel"><p><b>SKIPPED</b><br />the app said both (D48)<br /><i>asking twice is bad service</i></p></span></div></foreignObject></g></g><g class="node default ask" id="my-svg-flowchart-didq-4" data-look="classic" transform="translate(1083.6562500018626, 570.125)"><polygon points="92.046875,0 184.09375,-92.046875 92.046875,-184.09375 0,-92.046875" class="label-container" transform="translate(-91.546875, 92.046875)" style="fill:#fff4e6 !important;stroke:#e8a33d !important"/><g class="label" style="color:#4a2f00 !important" transform="translate(-55.546875, -22.5)"><rect/><foreignObject width="111.09375" height="45"><div style="color: rgb(74, 47, 0) !important; display: table-cell; white-space: nowrap; line-height: 1.5; max-width: 200px; text-align: center;" xmlns="http://www.w3.org/1999/xhtml"><span style="color:#4a2f00 !important" class="nodeLabel"><p>did the NUMBER<br />say the line?</p></span></div></foreignObject></g></g><g class="node default play" id="my-svg-flowchart-m1-5" data-look="classic" transform="translate(1299.6539062522352, 759.921875)"><rect class="basic label-container" style="fill:#eef4ff !important;stroke:#5b8def !important" x="-93.578125" y="-25.25" width="187.15625" height="50.5"/><g class="label" style="color:#0b2545 !important" transform="translate(-65.578125, -11.25)"><rect/><foreignObject width="131.15625" height="22.5"><div style="color: rgb(11, 37, 69) !important; display: table-cell; white-space: nowrap; line-height: 1.5; max-width: 200px; text-align: center;" xmlns="http://www.w3.org/1999/xhtml"><span style="color:#0b2545 !important" class="nodeLabel"><p><b>STEP 1</b> product line</p></span></div></foreignObject></g></g><g class="node default play" id="my-svg-flowchart-m2-6" data-look="classic" transform="translate(867.7250000014901, 1051.671875)"><rect class="basic label-container" style="fill:#eef4ff !important;stroke:#5b8def !important" x="-75.8125" y="-25.25" width="151.625" height="50.5"/><g class="label" style="color:#0b2545 !important" transform="translate(-47.8125, -11.25)"><rect/><foreignObject width="95.625" height="22.5"><div style="color: rgb(11, 37, 69) !important; display: table-cell; white-space: nowrap; line-height: 1.5; max-width: 200px; text-align: center;" xmlns="http://www.w3.org/1999/xhtml"><span style="color:#0b2545 !important" class="nodeLabel"><p><b>STEP 2</b> reason</p></span></div></foreignObject></g></g><g class="node default done" id="my-svg-flowchart-routed-7" data-look="classic" transform="translate(347.7578125, 1500.921875)"><rect class="basic label-container" style="fill:#e9f7ef !important;stroke:#2f9e5f !important" x="-117.4140625" y="-47.75" width="234.828125" height="95.5"/><g class="label" style="color:#08361d !important" transform="translate(-89.4140625, -33.75)"><rect/><foreignObject width="178.828125" height="67.5"><div style="color: rgb(8, 54, 29) !important; display: table-cell; white-space: nowrap; line-height: 1.5; max-width: 200px; text-align: center;" xmlns="http://www.w3.org/1999/xhtml"><span style="color:#08361d !important" class="nodeLabel"><p><b>ROUTED</b><br />line + reason -&gt; the queue<br /><i>before a word is transcribed</i></p></span></div></foreignObject></g></g><g class="node default soft" id="my-svg-flowchart-exhausted-8" data-look="classic" transform="translate(1681.1890625022352, 1500.921875)"><rect class="basic label-container" style="fill:#f3e8ff !important;stroke:#8b5cf6 !important" x="-119" y="-47.75" width="238" height="95.5"/><g class="label" style="color:#2e1065 !important" transform="translate(-91, -33.75)"><rect/><foreignObject width="182" height="67.5"><div style="color: rgb(46, 16, 101) !important; display: table-cell; white-space: nowrap; line-height: 1.5; max-width: 200px; text-align: center;" xmlns="http://www.w3.org/1999/xhtml"><span style="color:#2e1065 !important" class="nodeLabel"><p><b>EXHAUSTED</b><br />line's queue if we have one,<br />general if we do not (D40)</p></span></div></foreignObject></g></g><g class="node default soft" id="my-svg-flowchart-abandoned-9" data-look="classic" transform="translate(740.7523437514901, 1500.921875)"><rect class="basic label-container" style="fill:#f3e8ff !important;stroke:#8b5cf6 !important" x="-75.9453125" y="-25.25" width="151.890625" height="50.5"/><g class="label" style="color:#2e1065 !important" transform="translate(-47.9453125, -11.25)"><rect/><foreignObject width="95.890625" height="22.5"><div style="color: rgb(46, 16, 101) !important; display: table-cell; white-space: nowrap; line-height: 1.5; max-width: 200px; text-align: center;" xmlns="http://www.w3.org/1999/xhtml"><span style="color:#2e1065 !important" class="nodeLabel"><p><b>ABANDONED</b></p></span></div></foreignObject></g></g><g class="node default note" id="my-svg-flowchart-floor-39" data-look="classic" transform="translate(1681.1890625022352, 1905.171875)"><rect class="basic label-container" style="fill:#f6f8fa !important;stroke:#8b949e !important" x="-128" y="-81.5" width="256" height="163"/><g class="label" style="color:#24292f !important" transform="translate(-100, -67.5)"><rect/><foreignObject width="200" height="135"><div style="color: rgb(36, 41, 47) !important; display: table; white-space: break-spaces; line-height: 1.5; max-width: 200px; text-align: center; width: 200px;" xmlns="http://www.w3.org/1999/xhtml"><span style="color:#24292f !important" class="nodeLabel"><p><b>EVERY path still ends with a human.</b><br />Not one of them hangs up on the caller.<br />That is the floor the AI layer sits on (D37).</p></span></div></foreignObject></g></g><g class="node default fix" id="my-svg-flowchart-strikes-42" data-look="classic" transform="translate(1148.9750000014901, 1051.671875)"><rect class="basic label-container" style="fill:#e9f7ef !important;stroke:#2f9e5f !important" x="-128" y="-194" width="256" height="388"/><g class="label" style="color:#08361d !important" transform="translate(-100, -180)"><rect/><foreignObject width="200" height="360"><div style="color: rgb(8, 54, 29) !important; display: table; white-space: break-spaces; line-height: 1.5; max-width: 200px; text-align: center; width: 200px;" xmlns="http://www.w3.org/1999/xhtml"><span style="color:#08361d !important" class="nodeLabel"><p><b>a wrong key is not a strike (D82).</b> There is no attempt<br />limit: sorry, here are the options again, for as long as they<br />keep pressing. A wrong key PROVES somebody is there - silence<br />does not - so only silence is bounded. The apology names both<br />escape keys every time, because without a ceiling 'try again'<br />stops being survivable advice on its own.</p></span></div></foreignObject></g></g><g class="node default fix" id="my-svg-flowchart-noop-45" data-look="classic" transform="translate(994.6976562514901, 1500.921875)"><rect class="basic label-container" style="fill:#e9f7ef !important;stroke:#2f9e5f !important" x="-128" y="-182.75" width="256" height="365.5"/><g class="label" style="color:#08361d !important" transform="translate(-100, -168.75)"><rect/><foreignObject width="200" height="337.5"><div style="color: rgb(8, 54, 29) !important; display: table; white-space: break-spaces; line-height: 1.5; max-width: 200px; text-align: center; width: 200px;" xmlns="http://www.w3.org/1999/xhtml"><span style="color:#08361d !important" class="nodeLabel"><p><b>and there is NO operator key (D86).</b> Every menu already<br />ends in a spoken เรื่องอื่นๆ that routes to the same place 0<br />used to - so the shortcut cost a reserved key, a prompt and a<br />clause in every hint, to save two keypresses. The way out is<br />now part of the menu instead of a convention you must know.</p></span></div></foreignObject></g></g><g class="node default fix" id="my-svg-flowchart-noid-48" data-look="classic" transform="translate(136, 1905.171875)"><rect class="basic label-container" style="fill:#e9f7ef !important;stroke:#2f9e5f !important" x="-128" y="-149" width="256" height="298"/><g class="label" style="color:#08361d !important" transform="translate(-100, -135)"><rect/><foreignObject width="200" height="270"><div style="color: rgb(8, 54, 29) !important; display: table; white-space: break-spaces; line-height: 1.5; max-width: 200px; text-align: center; width: 200px;" xmlns="http://www.w3.org/1999/xhtml"><span style="color:#08361d !important" class="nodeLabel"><p><b>and there is NO identity step here (D84).</b> Asking a caller<br />to key their citizen id before anyone says hello would reach L3<br />with no human in the loop - exactly what D44 refuses. The agent's<br />own keypad capture does it during the call, with judgement.</p></span></div></foreignObject></g></g><g class="node default note" id="my-svg-flowchart-ai-51" data-look="classic" transform="translate(442, 1905.171875)"><rect class="basic label-container" style="fill:#f6f8fa !important;stroke:#8b949e !important" x="-128" y="-92.75" width="256" height="185.5"/><g class="label" style="color:#24292f !important" transform="translate(-100, -78.75)"><rect/><foreignObject width="200" height="157.5"><div style="color: rgb(36, 41, 47) !important; display: table; white-space: break-spaces; line-height: 1.5; max-width: 200px; text-align: center; width: 200px;" xmlns="http://www.w3.org/1999/xhtml"><span style="color:#24292f !important" class="nodeLabel"><p>AI intake runs AFTER this, while they wait.<br />It adds detail a keypad cannot capture.<br />If it fails, routing is unaffected -<br />it was never the AI's job.</p></span></div></foreignObject></g></g><g class="label edgeLabel" id="m1---m1---1" transform="translate(1327.0250000022352, 1051.671875)"><rect width="0.1" height="0.1"/><g class="label" style="" transform="translate(0, 0)"><rect/><foreignObject width="0" height="0"><div xmlns="http://www.w3.org/1999/xhtml" style="display: table-cell; white-space: nowrap; line-height: 1.5; max-width: 10px; text-align: center;"><span class="nodeLabel"></span></div></foreignObject></g></g><g class="label edgeLabel" id="m1---m1---2" transform="translate(1442.6734375022352, 1500.921875)"><rect width="0.1" height="0.1"/><g class="label" style="" transform="translate(0, 0)"><rect/><foreignObject width="0" height="0"><div xmlns="http://www.w3.org/1999/xhtml" style="display: table-cell; white-space: nowrap; line-height: 1.5; max-width: 10px; text-align: center;"><span class="nodeLabel"></span></div></foreignObject></g></g><g class="label edgeLabel" id="m2---m2---1" transform="translate(614.7570312507451, 1500.921875)"><rect width="0.1" height="0.1"/><g class="label" style="" transform="translate(0, 0)"><rect/><foreignObject width="0" height="0"><div xmlns="http://www.w3.org/1999/xhtml" style="display: table-cell; white-space: nowrap; line-height: 1.5; max-width: 10px; text-align: center;"><span class="nodeLabel"></span></div></foreignObject></g></g><g class="label edgeLabel" id="m2---m2---2" transform="translate(1223.3242187518626, 1905.171875)"><rect width="0.1" height="0.1"/><g class="label" style="" transform="translate(0, 0)"><rect/><foreignObject width="0" height="0"><div xmlns="http://www.w3.org/1999/xhtml" style="display: table-cell; white-space: nowrap; line-height: 1.5; max-width: 10px; text-align: center;"><span class="nodeLabel"></span></div></foreignObject></g></g></g></g></g><defs><filter id="my-svg-drop-shadow" height="130%" width="130%"><feDropShadow dx="4" dy="4" stdDeviation="0" flood-opacity="0.06" flood-color="#000000"/></filter></defs><defs><filter id="my-svg-drop-shadow-small" height="150%" width="150%"><feDropShadow dx="2" dy="2" stdDeviation="0" flood-opacity="0.06" flood-color="#000000"/></filter></defs><linearGradient id="my-svg-gradient" gradientUnits="objectBoundingBox" x1="0%" y1="0%" x2="100%" y2="0%"><stop offset="0%" stop-color="#5b8def" stop-opacity="1"/><stop offset="100%" stop-color="hsl(33.6, 60%, 85.0980392157%)" stop-opacity="1"/></linearGradient></svg>