<svg id="my-svg" width="100%" xmlns="http://www.w3.org/2000/svg" xmlns:xlink="http://www.w3.org/1999/xlink" class="flowchart" style="max-width: 1817.19px; background-color: transparent;" viewBox="0 0 1817.1890869140625 2062.171875" role="graphics-document document" aria-roledescription="flowchart-v2"><style>#my-svg{font-family:Segoe UI,Noto Sans Thai,Tahoma,sans-serif;font-size:15px;fill:#0b2545;}@keyframes edge-animation-frame{from{stroke-dashoffset:0;}}@keyframes dash{to{stroke-dashoffset:0;}}#my-svg .edge-animation-slow{stroke-dasharray:9,5!important;stroke-dashoffset:900;animation:dash 50s linear infinite;stroke-linecap:round;}#my-svg .edge-animation-fast{stroke-dasharray:9,5!important;stroke-dashoffset:900;animation:dash 20s linear infinite;stroke-linecap:round;}#my-svg .error-icon{fill:#f7f9fc;}#my-svg .error-text{fill:#080603;stroke:#080603;}#my-svg .edge-thickness-normal{stroke-width:1px;}#my-svg .edge-thickness-thick{stroke-width:3.5px;}#my-svg .edge-pattern-solid{stroke-dasharray:0;}#my-svg .edge-thickness-invisible{stroke-width:0;fill:none;}#my-svg .edge-pattern-dashed{stroke-dasharray:3;}#my-svg .edge-pattern-dotted{stroke-dasharray:2;}#my-svg .marker{fill:#7a8699;stroke:#7a8699;}#my-svg .marker.cross{stroke:#7a8699;}#my-svg svg{font-family:Segoe UI,Noto Sans Thai,Tahoma,sans-serif;font-size:15px;}#my-svg p{margin:0;}#my-svg .label{font-family:Segoe UI,Noto Sans Thai,Tahoma,sans-serif;color:#0b2545;}#my-svg .cluster-label text{fill:#080603;}#my-svg .cluster-label span{color:#080603;}#my-svg .cluster-label span p{background-color:transparent;}#my-svg .label text,#my-svg span{fill:#0b2545;color:#0b2545;}#my-svg .node rect,#my-svg .node circle,#my-svg .node ellipse,#my-svg .node polygon,#my-svg .node path{fill:#eef4ff;stroke:#5b8def;stroke-width:1px;}#my-svg .rough-node .label text,#my-svg .node .label text,#my-svg .image-shape .label,#my-svg .icon-shape .label{text-anchor:middle;}#my-svg .node .katex path{fill:#000;stroke:#000;stroke-width:1px;}#my-svg .rough-node .label,#my-svg .node .label,#my-svg .image-shape .label,#my-svg .icon-shape .label{text-align:center;}#my-svg .node.clickable{cursor:pointer;}#my-svg .root .anchor path{fill:#7a8699!important;stroke-width:0;stroke:#7a8699;}#my-svg .arrowheadPath{fill:#0b0b0b;}#my-svg .edgePath .path{stroke:#7a8699;stroke-width:1px;}#my-svg .flowchart-link{stroke:#7a8699;fill:none;}#my-svg .edgeLabel{background-color:#fff4e6;text-align:center;}#my-svg .edgeLabel p{background-color:#fff4e6;}#my-svg .edgeLabel rect{opacity:0.5;background-color:#fff4e6;fill:#fff4e6;}#my-svg .labelBkg{background-color:rgba(255, 244, 230, 0.5);}#my-svg .cluster rect{fill:#f7f9fc;stroke:hsl(216, 5.4545454545%, 87.8431372549%);stroke-width:1px;}#my-svg .cluster text{fill:#080603;}#my-svg .cluster span{color:#080603;}#my-svg .node .collapsed-indicator{fill:hsl(216, 5.4545454545%, 87.8431372549%);stroke:none;opacity:0.6;}#my-svg .node .collapsed-separator{stroke:hsl(216, 5.4545454545%, 87.8431372549%);stroke-width:0.75px;}#my-svg div.mermaidTooltip{position:absolute;text-align:center;max-width:200px;padding:2px;font-family:Segoe UI,Noto Sans Thai,Tahoma,sans-serif;font-size:12px;background:#f7f9fc;border:1px solid hsl(216, 5.4545454545%, 87.8431372549%);border-radius:2px;pointer-events:none;z-index:100;}#my-svg .flowchartTitleText{text-anchor:middle;font-size:18px;fill:#0b2545;}#my-svg rect.text{fill:none;stroke-width:0;}#my-svg .icon-shape,#my-svg .image-shape{background-color:#fff4e6;text-align:center;}#my-svg .icon-shape p,#my-svg .image-shape p{background-color:#fff4e6;padding:2px;}#my-svg .icon-shape .label rect,#my-svg .image-shape .label rect{opacity:0.5;background-color:#fff4e6;fill:#fff4e6;}#my-svg .label-icon{display:inline-block;height:1em;overflow:visible;vertical-align:-0.125em;}#my-svg .node .label-icon path{fill:currentColor;stroke:revert;stroke-width:revert;}#my-svg .node .neo-node{stroke:#5b8def;}#my-svg [data-look="neo"].node rect,#my-svg [data-look="neo"].cluster rect,#my-svg [data-look="neo"].node polygon{stroke:url(#my-svg-gradient);filter:drop-shadow( 1px 2px 2px rgba(185,185,185,1));}#my-svg [data-look="neo"].swimlane.cluster rect{filter:none;}#my-svg [data-look="neo"].node path{stroke:url(#my-svg-gradient);stroke-width:1px;}#my-svg [data-look="neo"].node .outer-path{filter:drop-shadow( 1px 2px 2px rgba(185,185,185,1));}#my-svg [data-look="neo"].node .neo-line path{stroke:#5b8def;filter:none;}#my-svg [data-look="neo"].node circle{stroke:url(#my-svg-gradient);filter:drop-shadow( 1px 2px 2px rgba(185,185,185,1));}#my-svg [data-look="neo"].node circle .state-start{fill:#000000;}#my-svg [data-look="neo"].icon-shape .icon{fill:url(#my-svg-gradient);filter:drop-shadow( 1px 2px 2px rgba(185,185,185,1));}#my-svg [data-look="neo"].icon-shape .icon-neo path{stroke:url(#my-svg-gradient);filter:drop-shadow( 1px 2px 2px rgba(185,185,185,1));}#my-svg :root{--mermaid-font-family:"trebuchet ms",verdana,arial,sans-serif;}#my-svg .entry&gt;*{fill:rgb(31, 111, 235)!important;stroke:rgb(11, 61, 145)!important;color:rgb(255, 255, 255)!important;}#my-svg .entry span{fill:rgb(31, 111, 235)!important;stroke:rgb(11, 61, 145)!important;color:rgb(255, 255, 255)!important;}#my-svg .entry tspan{fill:rgb(255, 255, 255)!important;}#my-svg .play&gt;*{fill:rgb(238, 244, 255)!important;stroke:rgb(91, 141, 239)!important;color:rgb(11, 37, 69)!important;}#my-svg .play span{fill:rgb(238, 244, 255)!important;stroke:rgb(91, 141, 239)!important;color:rgb(11, 37, 69)!important;}#my-svg .play tspan{fill:rgb(11, 37, 69)!important;}#my-svg .ask&gt;*{fill:rgb(255, 244, 230)!important;stroke:rgb(232, 163, 61)!important;color:rgb(74, 47, 0)!important;}#my-svg .ask span{fill:rgb(255, 244, 230)!important;stroke:rgb(232, 163, 61)!important;color:rgb(74, 47, 0)!important;}#my-svg .ask tspan{fill:rgb(74, 47, 0)!important;}#my-svg .done&gt;*{fill:rgb(233, 247, 239)!important;stroke:rgb(47, 158, 95)!important;color:rgb(8, 54, 29)!important;}#my-svg .done span{fill:rgb(233, 247, 239)!important;stroke:rgb(47, 158, 95)!important;color:rgb(8, 54, 29)!important;}#my-svg .done tspan{fill:rgb(8, 54, 29)!important;}#my-svg .soft&gt;*{fill:rgb(243, 232, 255)!important;stroke:rgb(139, 92, 246)!important;color:rgb(46, 16, 101)!important;}#my-svg .soft span{fill:rgb(243, 232, 255)!important;stroke:rgb(139, 92, 246)!important;color:rgb(46, 16, 101)!important;}#my-svg .soft tspan{fill:rgb(46, 16, 101)!important;}#my-svg .note&gt;*{fill:rgb(246, 248, 250)!important;stroke:rgb(139, 148, 158)!important;color:rgb(36, 41, 47)!important;}#my-svg .note span{fill:rgb(246, 248, 250)!important;stroke:rgb(139, 148, 158)!important;color:rgb(36, 41, 47)!important;}#my-svg .note tspan{fill:rgb(36, 41, 47)!important;}#my-svg .fix&gt;*{fill:rgb(233, 247, 239)!important;stroke:rgb(47, 158, 95)!important;color:rgb(8, 54, 29)!important;}#my-svg .fix span{fill:rgb(233, 247, 239)!important;stroke:rgb(47, 158, 95)!important;color:rgb(8, 54, 29)!important;}#my-svg .fix tspan{fill:rgb(8, 54, 29)!important;}</style><g><marker id="my-svg_flowchart-v2-pointEnd" class="marker flowchart-v2" viewBox="0 0 10 10" refX="5" refY="5" markerUnits="userSpaceOnUse" markerWidth="8" markerHeight="8" orient="auto"><path d="M 0 0 L 10 5 L 0 10 z" class="arrowMarkerPath" style="stroke-width: 1; stroke-dasharray: 1, 0;"/></marker><marker id="my-svg_flowchart-v2-pointStart" class="marker flowchart-v2" viewBox="0 0 10 10" refX="4.5" refY="5" markerUnits="userSpaceOnUse" markerWidth="8" markerHeight="8" orient="auto"><path d="M 0 5 L 10 10 L 10 0 z" class="arrowMarkerPath" style="stroke-width: 1; stroke-dasharray: 1, 0;"/></marker><marker id="my-svg_flowchart-v2-pointEnd-margin" class="marker flowchart-v2" viewBox="0 0 11.5 14" refX="11.5" refY="7" markerUnits="userSpaceOnUse" markerWidth="10.5" markerHeight="14" orient="auto"><path d="M 0 0 L 11.5 7 L 0 14 z" class="arrowMarkerPath" style="stroke-width: 0; stroke-dasharray: 1, 0;"/></marker><marker id="my-svg_flowchart-v2-pointStart-margin" class="marker flowchart-v2" viewBox="0 0 11.5 14" refX="1" refY="7" markerUnits="userSpaceOnUse" markerWidth="11.5" markerHeight="14" orient="auto"><polygon points="0,7 11.5,14 11.5,0" class="arrowMarkerPath" style="stroke-width: 0; stroke-dasharray: 1, 0;"/></marker><marker id="my-svg_flowchart-v2-circleEnd" class="marker flowchart-v2" viewBox="0 0 10 10" refX="11" refY="5" markerUnits="userSpaceOnUse" markerWidth="11" markerHeight="11" orient="auto"><circle cx="5" cy="5" r="5" class="arrowMarkerPath" style="stroke-width: 1; stroke-dasharray: 1, 0;"/></marker><marker id="my-svg_flowchart-v2-circleStart" class="marker flowchart-v2" viewBox="0 0 10 10" refX="-1" refY="5" markerUnits="userSpaceOnUse" markerWidth="11" markerHeight="11" orient="auto"><circle cx="5" cy="5" r="5" class="arrowMarkerPath" style="stroke-width: 1; stroke-dasharray: 1, 0;"/></marker><marker id="my-svg_flowchart-v2-circleEnd-margin" class="marker flowchart-v2" viewBox="0 0 10 10" refY="5" refX="12.25" markerUnits="userSpaceOnUse" markerWidth="14" markerHeight="14" orient="auto"><circle cx="5" cy="5" r="5" class="arrowMarkerPath" style="stroke-width: 0; stroke-dasharray: 1, 0;"/></marker><marker id="my-svg_flowchart-v2-circleStart-margin" class="marker flowchart-v2" viewBox="0 0 10 10" refX="-2" refY="5" markerUnits="userSpaceOnUse" markerWidth="14" markerHeight="14" orient="auto"><circle cx="5" cy="5" r="5" class="arrowMarkerPath" style="stroke-width: 0; stroke-dasharray: 1, 0;"/></marker><marker id="my-svg_flowchart-v2-crossEnd" class="marker cross flowchart-v2" viewBox="0 0 11 11" refX="12" refY="5.2" markerUnits="userSpaceOnUse" markerWidth="11" markerHeight="11" orient="auto"><path d="M 1,1 l 9,9 M 10,1 l -9,9" class="arrowMarkerPath" style="stroke-width: 2; stroke-dasharray: 1, 0;"/></marker><marker id="my-svg_flowchart-v2-crossStart" class="marker cross flowchart-v2" viewBox="0 0 11 11" refX="-1" refY="5.2" markerUnits="userSpaceOnUse" markerWidth="11" markerHeight="11" orient="auto"><path d="M 1,1 l 9,9 M 10,1 l -9,9" class="arrowMarkerPath" style="stroke-width: 2; stroke-dasharray: 1, 0;"/></marker><marker id="my-svg_flowchart-v2-crossEnd-margin" class="marker cross flowchart-v2" viewBox="0 0 15 15" refX="17.7" refY="7.5" markerUnits="userSpaceOnUse" markerWidth="12" markerHeight="12" orient="auto"><path d="M 1,1 L 14,14 M 1,14 L 14,1" class="arrowMarkerPath" style="stroke-width: 2.5;"/></marker><marker id="my-svg_flowchart-v2-crossStart-margin" class="marker cross flowchart-v2" viewBox="0 0 15 15" refX="-3.5" refY="7.5" markerUnits="userSpaceOnUse" markerWidth="12" markerHeight="12" orient="auto"><path d="M 1,1 L 14,14 M 1,14 L 14,1" class="arrowMarkerPath" style="stroke-width: 2.5; stroke-dasharray: 1, 0;"/></marker><g class="root"><g class="clusters"/><g class="edgePaths"><path d="M956.84,45L956.757,49.083C956.673,53.167,956.507,61.333,956.423,68.917C956.34,76.5,956.34,83.5,956.34,87L956.34,90.5" id="my-svg-L_start_greet_0" class="edge-thickness-normal edge-pattern-solid edge-thickness-normal edge-pattern-solid flowchart-link" style=";" data-edge="true" data-et="edge" data-id="L_start_greet_0" data-points="W3sieCI6OTU2LjgzOTg0Mzc1MTg2MjYsInkiOjQ1fSx7IngiOjk1Ni4zMzk4NDM3NTE4NjI2LCJ5Ijo2OS41fSx7IngiOjk1Ni4zMzk4NDM3NTE4NjI2LCJ5Ijo5NC41fV0=" data-look="classic" marker-end="url(#my-svg_flowchart-v2-pointEnd)"/><path d="M956.34,190L956.34,194.167C956.34,198.333,956.34,206.667,956.34,214.333C956.34,222,956.34,229,956.34,232.5L956.34,236" id="my-svg-L_greet_known_0" class="edge-thickness-normal edge-pattern-solid edge-thickness-normal edge-pattern-solid flowchart-link" style=";" data-edge="true" data-et="edge" data-id="L_greet_known_0" data-points="W3sieCI6OTU2LjMzOTg0Mzc1MTg2MjYsInkiOjE5MH0seyJ4Ijo5NTYuMzM5ODQzNzUxODYyNiwieSI6MjE1fSx7IngiOjk1Ni4zMzk4NDM3NTE4NjI1LCJ5IjoyNDB9XQ==" data-look="classic" marker-end="url(#my-svg_flowchart-v2-pointEnd)"/><path d="M913.554,362.793L899.466,375.965C885.377,389.138,857.2,415.483,843.112,441.413C829.023,467.344,829.023,492.859,829.023,505.617L829.023,518.375" id="my-svg-L_known_skipped_0" class="edge-thickness-normal edge-pattern-solid edge-thickness-normal edge-pattern-solid flowchart-link" style=";" data-edge="true" data-et="edge" data-id="L_known_skipped_0" data-points="W3sieCI6OTEzLjU1NDQ4OTg1NzM5MzIsInkiOjM2Mi43OTI3NzExMDU1MzA2fSx7IngiOjgyOS4wMjM0Mzc1MDE4NjI2LCJ5Ijo0NDEuODI4MTI1fSx7IngiOjgyOS4wMjM0Mzc1MDE4NjI2LCJ5Ijo1MjIuMzc1fV0=" data-look="classic" marker-end="url(#my-svg_flowchart-v2-pointEnd)"/><path d="M999.125,362.793L1013.214,375.965C1027.302,389.138,1055.479,415.483,1069.568,434.031C1083.656,452.578,1083.656,463.328,1083.656,468.703L1083.656,474.078" id="my-svg-L_known_didq_0" class="edge-thickness-normal edge-pattern-solid edge-thickness-normal edge-pattern-solid flowchart-link" style=";" data-edge="true" data-et="edge" data-id="L_known_didq_0" data-points="W3sieCI6OTk5LjEyNTE5NzY0NjMzMTksInkiOjM2Mi43OTI3NzExMDU1MzA1Nn0seyJ4IjoxMDgzLjY1NjI1MDAwMTg2MjYsInkiOjQ0MS44MjgxMjV9LHsieCI6MTA4My42NTYyNTAwMDE4NjI5LCJ5Ijo0NzguMDc4MTI0OTk5OTk5OTR9XQ==" data-look="classic" marker-end="url(#my-svg_flowchart-v2-pointEnd)"/><path d="M1021.444,599.959L987.224,616.37C953.004,632.78,884.564,665.601,850.343,692.261C816.123,718.922,816.123,739.422,816.123,759.922C816.123,780.422,816.123,800.922,823.635,844.688C831.146,888.454,846.169,955.486,853.68,989.003L861.191,1022.519" id="my-svg-L_didq_m2_0" class="edge-thickness-normal edge-pattern-solid edge-thickness-normal edge-pattern-solid flowchart-link" style=";" data-edge="true" data-et="edge" data-id="L_didq_m2_0" data-points="W3sieCI6MTAyMS40NDM3Mzc1Nzk4NDU0LCJ5Ijo1OTkuOTU5MzYyNTc3OTgyM30seyJ4Ijo4MTYuMTIzNDM3NTAxNDkwMSwieSI6Njk4LjQyMTg3NX0seyJ4Ijo4MTYuMTIzNDM3NTAxNDkwMSwieSI6NzU5LjkyMTg3NX0seyJ4Ijo4MTYuMTIzNDM3NTAxNDkwMSwieSI6ODIxLjQyMTg3NX0seyJ4Ijo4NjIuMDY2MTk2NzMwNTg4OSwieSI6MTAyNi40MjE4NzV9XQ==" data-look="classic" marker-end="url(#my-svg_flowchart-v2-pointEnd)"/><path d="M1141.403,604.425L1167.778,620.091C1194.153,635.757,1246.904,667.09,1273.279,688.131C1299.654,709.172,1299.654,719.922,1299.654,725.297L1299.654,730.672" id="my-svg-L_didq_m1_0" class="edge-thickness-normal edge-pattern-solid edge-thickness-normal edge-pattern-solid flowchart-link" style=";" data-edge="true" data-et="edge" data-id="L_didq_m1_0" data-points="W3sieCI6MTE0MS40MDMwNTUzMTExNjAyLCJ5Ijo2MDQuNDI1MDY5NjkwNzAyOH0seyJ4IjoxMjk5LjY1MzkwNjI1MjIzNTIsInkiOjY5OC40MjE4NzV9LHsieCI6MTI5OS42NTM5MDYyNTIyMzUyLCJ5Ijo3MzQuNjcxODc1fV0=" data-look="classic" marker-end="url(#my-svg_flowchart-v2-pointEnd)"/><path d="M1206.076,776.629L1164.26,784.094C1122.443,791.56,1038.811,806.491,984.254,847.5C929.697,888.509,904.216,955.596,891.476,989.139L878.736,1022.683" id="my-svg-L_m1_m2_0" class="edge-thickness-normal edge-pattern-solid edge-thickness-normal edge-pattern-solid flowchart-link" style=";" data-edge="true" data-et="edge" data-id="L_m1_m2_0" data-points="W3sieCI6MTIwNi4wNzU3ODEyNTIyMzUyLCJ5Ijo3NzYuNjI4NTc4MzQ2NzYxMn0seyJ4Ijo5NTUuMTc4MTI1MDAxNDkwMSwieSI6ODIxLjQyMTg3NX0seyJ4Ijo4NzcuMzE1NDA3ODQ2MjI0LCJ5IjoxMDI2LjQyMTg3NX1d" data-look="classic" marker-end="url(#my-svg_flowchart-v2-pointEnd)"/><path d="M810.704,1076.922L733.546,1111.089C656.388,1145.255,502.073,1213.589,424.915,1275.63C347.758,1337.672,347.758,1393.422,347.758,1421.297L347.758,1449.172" id="my-svg-L_m2_routed_0" class="edge-thickness-normal edge-pattern-solid edge-thickness-normal edge-pattern-solid flowchart-link" style=";" data-edge="true" data-et="edge" data-id="L_m2_routed_0" data-points="W3sieCI6ODEwLjcwMzYyNTQ3NjM1MzksInkiOjEwNzYuOTIxODc1fSx7IngiOjM0Ny43NTc4MTI1LCJ5IjoxMjgxLjkyMTg3NX0seyJ4IjozNDcuNzU3ODEyNSwieSI6MTQ1My4xNzE4NzV9XQ==" data-look="classic" marker-end="url(#my-svg_flowchart-v2-pointEnd)"/><path d="M1393.232,781.865L1421.349,788.457C1449.465,795.05,1505.698,808.236,1533.815,853.204C1561.931,898.172,1561.931,974.922,1561.931,1051.672C1561.931,1128.422,1561.931,1205.172,1577.155,1271.503C1592.379,1337.834,1622.826,1393.747,1638.05,1421.703L1653.274,1449.659" id="my-svg-L_m1_exhausted_0" class="edge-thickness-normal edge-pattern-dotted edge-thickness-normal edge-pattern-solid flowchart-link" style=";" data-edge="true" data-et="edge" data-id="L_m1_exhausted_0" data-points="W3sieCI6MTM5My4yMzIwMzEyNTIyMzUyLCJ5Ijo3ODEuODY0NTA0OTA5Mjk4fSx7IngiOjE1NjEuOTMxMjUwMDAyMjM1MiwieSI6ODIxLjQyMTg3NX0seyJ4IjoxNTYxLjkzMTI1MDAwMjIzNTIsInkiOjEwNTEuNjcxODc1fSx7IngiOjE1NjEuOTMxMjUwMDAyMjM1MiwieSI6MTI4MS45MjE4NzV9LHsieCI6MTY1NS4xODY1MDI5Mjc0NjM0LCJ5IjoxNDUzLjE3MTg3NX1d" data-look="classic" marker-end="url(#my-svg_flowchart-v2-pointEnd)"/><path d="M943.538,1073.131L1066.479,1107.929C1189.421,1142.728,1435.305,1212.325,1558.247,1274.998C1681.189,1337.672,1681.189,1393.422,1681.189,1421.297L1681.189,1449.172" id="my-svg-L_m2_exhausted_0" class="edge-thickness-normal edge-pattern-dotted edge-thickness-normal edge-pattern-solid flowchart-link" style=";" data-edge="true" data-et="edge" data-id="L_m2_exhausted_0" data-points="W3sieCI6OTQzLjUzNzUwMDAwMTQ5MDEsInkiOjEwNzMuMTMwNTA5NjU4NDcyMn0seyJ4IjoxNjgxLjE4OTA2MjUwMjIzNTIsInkiOjEyODEuOTIxODc1fSx7IngiOjE2ODEuMTg5MDYyNTAyMjM1MiwieSI6MTQ1My4xNzE4NzV9XQ==" data-look="classic" marker-end="url(#my-svg_flowchart-v2-pointEnd)"/><path d="M853.801,1076.922L834.959,1111.089C816.118,1145.255,778.435,1213.589,759.594,1279.38C740.752,1345.172,740.752,1408.422,740.752,1440.047L740.752,1471.672" id="my-svg-L_m2_abandoned_0" class="edge-thickness-normal edge-pattern-dotted edge-thickness-normal edge-pattern-solid flowchart-link" style=";" data-edge="true" data-et="edge" data-id="L_m2_abandoned_0" data-points="W3sieCI6ODUzLjgwMDc0NTYyNDQ1NDMsInkiOjEwNzYuOTIxODc1fSx7IngiOjc0MC43NTIzNDM3NTE0OTAxLCJ5IjoxMjgxLjkyMTg3NX0seyJ4Ijo3NDAuNzUyMzQzNzUxNDkwMSwieSI6MTQ3NS42NzE4NzV9XQ==" data-look="classic" marker-end="url(#my-svg_flowchart-v2-pointEnd)"/><path d="M1681.189,1548.672L1681.189,1577.214C1681.189,1605.755,1681.189,1662.839,1681.189,1708.672C1681.189,1754.505,1681.189,1789.089,1681.189,1806.38L1681.189,1823.672" id="my-svg-L_exhausted_floor_0" class="edge-thickness-normal edge-pattern-dotted edge-thickness-normal edge-pattern-solid flowchart-link" style=";" data-edge="true" data-et="edge" data-id="L_exhausted_floor_0" data-points="W3sieCI6MTY4MS4xODkwNjI1MDIyMzUyLCJ5IjoxNTQ4LjY3MTg3NX0seyJ4IjoxNjgxLjE4OTA2MjUwMjIzNTIsInkiOjE3MTkuOTIxODc1fSx7IngiOjE2ODEuMTg5MDYyNTAyMjM1MiwieSI6MTgyMy42NzE4NzV9XQ==" data-look="classic"/><path d="M1237.79,785.172L1222.987,791.214C1208.185,797.255,1178.58,809.339,1163.777,821.422C1148.975,833.505,1148.975,845.589,1148.975,851.63L1148.975,857.672" id="my-svg-L_m1_strikes_0" class="edge-thickness-normal edge-pattern-dotted edge-thickness-normal edge-pattern-solid flowchart-link" style=";" data-edge="true" data-et="edge" data-id="L_m1_strikes_0" data-points="W3sieCI6MTIzNy43ODk4MDI0NjYzNjAyLCJ5Ijo3ODUuMTcxODc1fSx7IngiOjExNDguOTc1MDAwMDAxNDkwMSwieSI6ODIxLjQyMTg3NX0seyJ4IjoxMTQ4Ljk3NTAwMDAwMTQ5MDEsInkiOjg1Ny42NzE4NzV9XQ==" data-look="classic"/><path d="M881.649,1076.922L900.491,1111.089C919.332,1145.255,957.015,1213.589,975.856,1253.797C994.698,1294.005,994.698,1306.089,994.698,1312.13L994.698,1318.172" id="my-svg-L_m2_noop_0" class="edge-thickness-normal edge-pattern-dotted edge-thickness-normal edge-pattern-solid flowchart-link" style=";" data-edge="true" data-et="edge" data-id="L_m2_noop_0" data-points="W3sieCI6ODgxLjY0OTI1NDM3ODUyNTksInkiOjEwNzYuOTIxODc1fSx7IngiOjk5NC42OTc2NTYyNTE0OTAxLCJ5IjoxMjgxLjkyMTg3NX0seyJ4Ijo5OTQuNjk3NjU2MjUxNDkwMSwieSI6MTMxOC4xNzE4NzV9XQ==" data-look="classic"/><path d="M301.587,1548.672L273.989,1577.214C246.391,1605.755,191.196,1662.839,163.598,1697.422C136,1732.005,136,1744.089,136,1750.13L136,1756.172" id="my-svg-L_routed_noid_0" class="edge-thickness-normal edge-pattern-dotted edge-thickness-normal edge-pattern-solid flowchart-link" style=";" data-edge="true" data-et="edge" data-id="L_routed_noid_0" data-points="W3sieCI6MzAxLjU4Njg3MzkyOTc5NDU0LCJ5IjoxNTQ4LjY3MTg3NX0seyJ4IjoxMzYsInkiOjE3MTkuOTIxODc1fSx7IngiOjEzNiwieSI6MTc1Ni4xNzE4NzV9XQ==" data-look="classic"/><path d="M368.306,1548.672L380.588,1577.214C392.871,1605.755,417.435,1662.839,429.718,1706.797C442,1750.755,442,1781.589,442,1797.005L442,1812.422" id="my-svg-L_routed_ai_0" class="edge-thickness-normal edge-pattern-dotted edge-thickness-normal edge-pattern-solid flowchart-link" style=";" data-edge="true" data-et="edge" data-id="L_routed_ai_0" data-points="W3sieCI6MzY4LjMwNjA1MjAxMTk4NjMsInkiOjE1NDguNjcxODc1fSx7IngiOjQ0MiwieSI6MTcxOS45MjE4NzV9LHsieCI6NDQyLCJ5IjoxODEyLjQyMTg3NX1d" data-look="classic"/><path d="M1274.019,785.172L1269.958,789.172C1265.898,793.172,1257.776,801.172,1270.381,805.172C1282.987,809.172,1316.321,809.172,1329.401,805.64C1342.482,802.108,1335.31,795.043,1331.724,791.511L1328.138,787.979" id="my-svg-L_m1_m1_2" class="edge-thickness-normal edge-pattern-dotted edge-thickness-normal edge-pattern-solid flowchart-link" style=";" data-edge="true" data-et="edge" data-id="L_m1_m1_2" data-points="W3sieCI6MTI3NC4wMTkzODg0ODU3Mzc2LCJ5Ijo3ODUuMTcxODc1fSx7IngiOjEyNDkuNjUzOTA2MjUyMjM1MiwieSI6ODA5LjE3MTg3NX0seyJ4IjoxMzQ5LjY1MzkwNjI1MjIzNTIsInkiOjgwOS4xNzE4NzV9LHsieCI6MTMyNS4yODg0MjQwMTg3MzI3LCJ5Ijo3ODUuMTcxODc1fV0=" data-look="classic" marker-end="url(#my-svg_flowchart-v2-pointEnd)"/><path d="M842.09,1076.922L838.03,1080.922C833.969,1084.922,825.847,1092.922,838.453,1096.922C851.058,1100.922,884.392,1100.922,897.472,1097.39C910.553,1093.858,903.381,1086.793,899.795,1083.261L896.209,1079.729" id="my-svg-L_m2_m2_2" class="edge-thickness-normal edge-pattern-dotted edge-thickness-normal edge-pattern-solid flowchart-link" style=";" data-edge="true" data-et="edge" data-id="L_m2_m2_2" data-points="W3sieCI6ODQyLjA5MDQ4MjIzNDk5MjcsInkiOjEwNzYuOTIxODc1fSx7IngiOjgxNy43MjUwMDAwMDE0OTAxLCJ5IjoxMTAwLjkyMTg3NX0seyJ4Ijo5MTcuNzI1MDAwMDAxNDkwMSwieSI6MTEwMC45MjE4NzV9LHsieCI6ODkzLjM1OTUxNzc2Nzk4NzUsInkiOjEwNzYuOTIxODc1fV0=" data-look="classic" marker-end="url(#my-svg_flowchart-v2-pointEnd)"/></g><g class="edgeLabels"><g class="edgeLabel"><g class="label" data-id="L_start_greet_0" transform="translate(0, 0)"><foreignObject width="0" height="0"><div xmlns="http://www.w3.org/1999/xhtml" class="labelBkg" style="display: table-cell; white-space: nowrap; line-height: 1.5; max-width: 200px; text-align: center;"><span class="edgeLabel"></span></div></foreignObject></g></g><g class="edgeLabel"><g class="label" data-id="L_greet_known_0" transform="translate(0, 0)"><foreignObject width="0" height="0"><div xmlns="http://www.w3.org/1999/xhtml" class="labelBkg" style="display: table-cell; white-space: nowrap; line-height: 1.5; max-width: 200px; text-align: center;"><span class="edgeLabel"></span></div></foreignObject></g></g><g class="edgeLabel" transform="translate(829.0234375018626, 441.828125)"><g class="label" data-id="L_known_skipped_0" transform="translate(-10.734375, -11.25)"><foreignObject width="21.46875" height="22.5"><div xmlns="http://www.w3.org/1999/xhtml" class="labelBkg" style="display: table-cell; white-space: nowrap; line-height: 1.5; max-width: 200px; text-align: center;"><span class="edgeLabel"><p>yes</p></span></div></foreignObject></g></g><g class="edgeLabel" transform="translate(1083.6562500018626, 441.828125)"><g class="label" data-id="L_known_didq_0" transform="translate(-8.640625, -11.25)"><foreignObject width="17.28125" height="22.5"><div xmlns="http://www.w3.org/1999/xhtml" class="labelBkg" style="display: table-cell; white-space: nowrap; line-height: 1.5; max-width: 200px; text-align: center;"><span class="edgeLabel"><p>no</p></span></div></foreignObject></g></g><g class="edgeLabel" transform="translate(816.1234375014901, 759.921875)"><g class="label" data-id="L_didq_m2_0" transform="translate(-49.7578125, -11.25)"><foreignObject width="99.515625" height="22.5"><div xmlns="http://www.w3.org/1999/xhtml" class="labelBkg" style="display: table-cell; white-space: nowrap; line-height: 1.5; max-width: 200px; text-align: center;"><span class="edgeLabel"><p>yes, skip step 1</p></span></div></foreignObject></g></g><g class="edgeLabel" transform="translate(1299.6539062522352, 698.421875)"><g class="label" data-id="L_didq_m1_0" transform="translate(-8.640625, -11.25)"><foreignObject width="17.28125" height="22.5"><div xmlns="http://www.w3.org/1999/xhtml" class="labelBkg" style="display: table-cell; white-space: nowrap; line-height: 1.5; max-width: 200px; text-align: center;"><span class="edgeLabel"><p>no</p></span></div></foreignObject></g></g><g class="edgeLabel" transform="translate(972.68922, 818.29558)"><g class="label" data-id="L_m1_m2_0" transform="translate(-59.0390625, -11.25)"><foreignObject width="118.078125" height="22.5"><div xmlns="http://www.w3.org/1999/xhtml" class="labelBkg" style="display: table-cell; white-space: nowrap; line-height: 1.5; max-width: 200px; text-align: center;"><span class="edgeLabel"><p>1-5, incl. <b>เรื่องอื่นๆ</b></p></span></div></foreignObject></g></g><g class="edgeLabel" transform="translate(347.7578125, 1281.921875)"><g class="label" data-id="L_m2_routed_0" transform="translate(-75.9921875, -11.25)"><foreignObject width="151.984375" height="22.5"><div xmlns="http://www.w3.org/1999/xhtml" class="labelBkg" style="display: table-cell; white-space: nowrap; line-height: 1.5; max-width: 200px; text-align: center;"><span class="edgeLabel"><p>a reason, incl. <b>เรื่องอื่นๆ</b></p></span></div></foreignObject></g></g><g class="edgeLabel" transform="translate(1299.6539062522352, 824.421875)"><g class="label" data-id="L_m1_m1_2" transform="translate(-95.6484375, -11.25)"><foreignObject width="191.296875" height="22.5"><div xmlns="http://www.w3.org/1999/xhtml" class="labelBkg" style="display: table-cell; white-space: nowrap; line-height: 1.5; max-width: 200px; text-align: center;"><span class="edgeLabel"><p><b>wrong key - NEVER a strike</b></p></span></div></foreignObject></g></g><g class="edgeLabel" transform="translate(867.7250000014901, 1116.171875)"><g class="label" data-id="L_m2_m2_2" transform="translate(-95.6484375, -11.25)"><foreignObject width="191.296875" height="22.5"><div xmlns="http://www.w3.org/1999/xhtml" class="labelBkg" style="display: table-cell; white-space: nowrap; line-height: 1.5; max-width: 200px; text-align: center;"><span class="edgeLabel"><p><b>wrong key - NEVER a strike</b></p></span></div></foreignObject></g></g><g class="edgeLabel" transform="translate(1561.9312500022352, 1051.671875)"><g class="label" data-id="L_m1_exhausted_0" transform="translate(-99.2578125, -11.25)"><foreignObject width="198.515625" height="22.5"><div xmlns="http://www.w3.org/1999/xhtml" class="labelBkg" style="display: table-cell; white-space: nowrap; line-height: 1.5; max-width: 200px; text-align: center;"><span class="edgeLabel"><p>silence x2 (re-prompted once)</p></span></div></foreignObject></g></g><g class="edgeLabel" transform="translate(1681.1890625022352, 1281.921875)"><g class="label" data-id="L_m2_exhausted_0" transform="translate(-99.2578125, -11.25)"><foreignObject width="198.515625" height="22.5"><div xmlns="http://www.w3.org/1999/xhtml" class="labelBkg" style="display: table-cell; white-space: nowrap; line-height: 1.5; max-width: 200px; text-align: center;"><span class="edgeLabel"><p>silence x2 (re-prompted once)</p></span></div></foreignObject></g></g><g class="edgeLabel" transform="translate(740.7523437514901, 1281.921875)"><g class="label" data-id="L_m2_abandoned_0" transform="translate(-30.6171875, -11.25)"><foreignObject width="61.234375" height="22.5"><div xmlns="http://www.w3.org/1999/xhtml" class="labelBkg" style="display: table-cell; white-space: nowrap; line-height: 1.5; max-width: 200px; text-align: center;"><span class="edgeLabel"><p>hangs up</p></span></div></foreignObject></g></g><g class="edgeLabel"><g class="label" data-id="L_exhausted_floor_0" transform="translate(0, 0)"><foreignObject width="0" height="0"><div xmlns="http://www.w3.org/1999/xhtml" class="labelBkg" style="display: table-cell; white-space: nowrap; line-height: 1.5; max-width: 200px; text-align: center;"><span class="edgeLabel"></span></div></foreignObject></g></g><g class="edgeLabel"><g class="label" data-id="L_m1_strikes_0" transform="translate(0, 0)"><foreignObject width="0" height="0"><div xmlns="http://www.w3.org/1999/xhtml" class="labelBkg" style="display: table-cell; white-space: nowrap; line-height: 1.5; max-width: 200px; text-align: center;"><span class="edgeLabel"></span></div></foreignObject></g></g><g class="edgeLabel"><g class="label" data-id="L_m2_noop_0" transform="translate(0, 0)"><foreignObject width="0" height="0"><div xmlns="http://www.w3.org/1999/xhtml" class="labelBkg" style="display: table-cell; white-space: nowrap; line-height: 1.5; max-width: 200px; text-align: center;"><span class="edgeLabel"></span></div></foreignObject></g></g><g class="edgeLabel"><g class="label" data-id="L_routed_noid_0" transform="translate(0, 0)"><foreignObject width="0" height="0"><div xmlns="http://www.w3.org/1999/xhtml" class="labelBkg" style="display: table-cell; white-space: nowrap; line-height: 1.5; max-width: 200px; text-align: center;"><span class="edgeLabel"></span></div></foreignObject></g></g><g class="edgeLabel"><g class="label" data-id="L_routed_ai_0" transform="translate(0, 0)"><foreignObject width="0" height="0"><div xmlns="http://www.w3.org/1999/xhtml" class="labelBkg" style="display: table-cell; white-space: nowrap; line-height: 1.5; max-width: 200px; text-align: center;"><span class="edgeLabel"></span></div></foreignObject></g></g></g><g class="nodes"><g class="node default entry" id="my-svg-flowchart-start-0" data-look="classic" transform="translate(956.3398437518626, 26.25)"><g class="basic label-container outer-path"><path d="M-37.8125 -18.25 C-15.127964751849593 -18.25, 7.5565704963008145 -18.25, 37.8125 -18.25 C37.8125 -18.25, 37.8125 -18.25, 37.8125 -18.25 C38.24788559239676 -18.236038031478483, 38.68327118479352 -18.222076062956962, 38.981781514648006 -18.21250341769364 C39.31716710610536 -18.180149173045937, 39.65255269756272 -18.14779492839823, 40.14625820074223 -18.100167752274242 C40.51154516427961 -18.041110988852232, 40.87683212781698 -17.98205422543022, 41.30114497380004 -17.913454615086945 C41.74233327277896 -17.812756264867716, 42.18352157175787 -17.712057914648486, 42.441696156348506 -17.653131250462287 C42.83846741271041 -17.5353716242689, 43.2352386690723 -17.417611998075515, 43.563224978931075 -17.320267382944703 C43.828387173307256 -17.222685244281813, 44.09354936768344 -17.125103105618923, 44.66112283904857 -16.9162308215649 C44.88999492645322 -16.814915937720112, 45.118867013857866 -16.713601053875326, 45.730878238895436 -16.442681839219148 C46.099151202098 -16.250554070206462, 46.46742416530056 -16.05842630119378, 46.768095324071865 -15.901566350251858 C47.0377881135588 -15.738076996374128, 47.307480903045736 -15.574587642496397, 47.76851194709251 -15.295107914276093 C48.09754532948603 -15.065588470343933, 48.42657871187955 -14.83606902641177, 48.72801718146469 -14.625798599090208 C49.072291719156034 -14.35124881681157, 49.416566256847375 -14.07669903453293, 49.642668214367134 -13.896388740236706 C49.98645796390929 -13.584167985880837, 50.33024771345145 -13.271947231524969, 50.50870654851363 -13.109875639283528 C50.785022382382316 -12.824556854862244, 51.06133821625101 -12.539238070440959, 51.3225734466245 -12.269491247269036 C51.50876700622029 -12.050777697454148, 51.69496056581608 -11.832064147639262, 52.08092455504155 -11.378688883921889 C52.25419725627605 -11.146519249735471, 52.42746995751055 -10.914349615549055, 52.78064364639444 -10.4411290472296 C52.97569394867769 -10.141479404582709, 53.17074425096094 -9.841829761935818, 53.418855424847564 -9.460664371667084 C53.59516237091345 -9.147613535912905, 53.771469316979335 -8.834562700158726, 53.992937341307254 -8.441323796895244 C54.1282703433633 -8.160301922463496, 54.26360334541935 -7.879280048031748, 54.500530370038575 -7.3872960119836915 C54.65310934812701 -7.01042298619139, 54.80568832621545 -6.633549960399088, 54.939548702408125 -6.302912243188873 C55.06937748611013 -5.911888632085995, 55.19920626981212 -5.520865020983118, 55.308188317919054 -5.192628456016347 C55.38141126349125 -4.913397629524207, 55.45463420906345 -4.634166803032066, 55.60493439731828 -4.061007044702739 C55.64986200780888 -3.8303132602873564, 55.694789618299474 -3.599619475871973, 55.82856754731371 -2.9126980843591777 C55.87345574639045 -2.56455407649751, 55.918343945467186 -2.2164100686358417, 55.97816881132287 -1.7524202228151955 C55.999287868898946 -1.4234738540712437, 56.02040692647503 -1.094527485327292, 56.05312344566255 -0.5849412906827067 C56.05312344566255 -0.29031084153487857, 56.05312344566255 0.004319607612949583, 56.05312344566255 0.5849412906827023 C56.03734971514427 0.8306298758309649, 56.021575984626 1.0763184609792276, 55.97816881132287 1.752420222815183 C55.92807219824361 2.140959661162706, 55.87797558516435 2.529499099510229, 55.82856754731371 2.9126980843591648 C55.77850307913385 3.16976854733365, 55.728438610953994 3.4268390103081345, 55.60493439731828 4.061007044702736 C55.52015547406515 4.384305822484709, 55.43537655081201 4.707604600266682, 55.30818831791906 5.192628456016335 C55.19414548043294 5.536107312265967, 55.080102642946805 5.8795861685155995, 54.93954870240813 6.302912243188861 C54.81253886911486 6.616628986991315, 54.68552903582159 6.930345730793769, 54.500530370038575 7.387296011983686 C54.35005511299656 7.699761102886161, 54.19957985595454 8.012226193788635, 53.992937341307254 8.44132379689524 C53.78729322855301 8.806465742814854, 53.581649115798776 9.171607688734468, 53.418855424847564 9.46066437166708 C53.191479172701655 9.809975354035975, 52.96410292055575 10.159286336404872, 52.78064364639445 10.441129047229591 C52.62418715536377 10.650766491731153, 52.46773066433308 10.860403936232714, 52.08092455504155 11.378688883921884 C51.87004084402761 11.626404890501943, 51.65915713301368 11.874120897082001, 51.32257344662452 12.269491247269025 C51.15103350147664 12.446620324325625, 50.97949355632876 12.623749401382225, 50.50870654851363 13.109875639283525 C50.243502416691456 13.350727014887608, 49.97829828486928 13.591578390491692, 49.64266821436715 13.896388740236693 C49.36166792579361 14.120478992642367, 49.08066763722007 14.344569245048042, 48.72801718146469 14.625798599090206 C48.41216486539536 14.84612350175378, 48.096312549326036 15.066448404417352, 47.76851194709252 15.295107914276088 C47.37523830466024 15.53351270745099, 46.981964662227966 15.771917500625891, 46.768095324071865 15.901566350251857 C46.47266043064201 16.055694544919135, 46.17722553721215 16.20982273958641, 45.73087823889544 16.442681839219148 C45.34713326491881 16.612554355808403, 44.963388290942184 16.782426872397654, 44.66112283904859 16.916230821564895 C44.27872855573149 17.056955452639592, 43.896334272414386 17.197680083714292, 43.56322497893109 17.3202673829447 C43.20847202565671 17.425556197340285, 42.85371907238234 17.530845011735867, 42.44169615634853 17.653131250462284 C42.01011350801388 17.751637173604685, 41.57853085967923 17.850143096747086, 41.30114497380005 17.91345461508694 C41.03940743318967 17.955770310847885, 40.7776698925793 17.998086006608826, 40.146258200742245 18.100167752274242 C39.86617418029092 18.127187120876865, 39.586090159839586 18.154206489479485, 38.98178151464801 18.21250341769364 C38.52286279700786 18.227220047737262, 38.06394407936771 18.24193667778089, 37.8125 18.25 C37.8125 18.25, 37.8125 18.25, 37.8125 18.25 C17.230154774048163 18.25, -3.352190451903674 18.25, -37.8125 18.25 C-38.054884905187194 18.242227187864245, -38.29726981037439 18.23445437572849, -38.981781514648006 18.21250341769364 C-39.27303682718281 18.184406367979168, -39.56429213971761 18.1563093182647, -40.14625820074224 18.100167752274242 C-40.500363753945884 18.042918712561853, -40.85446930714953 17.98566967284947, -41.30114497380004 17.91345461508694 C-41.693063635717834 17.824001738012488, -42.084982297635634 17.73454886093803, -42.441696156348506 17.653131250462287 C-42.77759016236471 17.553439672620296, -43.113484168380914 17.4537480947783, -43.56322497893107 17.320267382944706 C-43.89092140581524 17.199672068658767, -44.218617832699415 17.079076754372828, -44.66112283904858 16.9162308215649 C-45.02857233020048 16.753571831833828, -45.396021821352385 16.590912842102757, -45.730878238895436 16.44268183921915 C-46.06370975164575 16.269043852206067, -46.39654126439607 16.095405865192983, -46.76809532407186 15.90156635025186 C-47.026795880528795 15.744740552634447, -47.28549643698573 15.587914755017032, -47.768511947092506 15.2951079142761 C-48.05012880351212 15.098664186235006, -48.33174565993174 14.902220458193911, -48.72801718146469 14.62579859909021 C-49.04177764681431 14.37558297749053, -49.35553811216393 14.125367355890852, -49.642668214367134 13.896388740236707 C-49.93432551696606 13.631513294845718, -50.22598281956499 13.366637849454728, -50.508706548513615 13.109875639283537 C-50.77085129703037 12.839189663955874, -51.03299604554712 12.568503688628212, -51.32257344662451 12.26949124726903 C-51.52504904424774 12.0316518891129, -51.727524641870964 11.793812530956771, -52.08092455504154 11.37868888392189 C-52.32139526983245 11.056480033434863, -52.56186598462337 10.734271182947833, -52.78064364639444 10.441129047229602 C-53.00093527979109 10.10270194174607, -53.22122691318775 9.764274836262539, -53.418855424847564 9.460664371667093 C-53.57122545526965 9.19011595351402, -53.72359548569174 8.919567535360947, -53.992937341307254 8.441323796895245 C-54.1460392766353 8.123404352329928, -54.29914121196334 7.805484907764611, -54.500530370038575 7.387296011983693 C-54.665038469732814 6.980957825191197, -54.829546569427045 6.574619638398702, -54.939548702408125 6.302912243188875 C-55.02956692211571 6.031791707885194, -55.11958514182329 5.760671172581512, -55.308188317919054 5.192628456016342 C-55.42247255513729 4.7568131284014745, -55.536756792355526 4.320997800786607, -55.604934397318274 4.061007044702742 C-55.69034409364486 3.6224463054114495, -55.77575378997144 3.1838855661201575, -55.82856754731371 2.91269808435918 C-55.862568662687735 2.64899214779793, -55.89656977806175 2.3852862112366804, -55.97816881132287 1.7524202228152057 C-55.997680789237734 1.448505417006027, -56.0171927671526 1.1445906111968485, -56.05312344566255 0.5849412906827091 C-56.05312344566255 0.324815352787934, -56.05312344566255 0.06468941489315894, -56.05312344566255 -0.5849412906827002 C-56.03734529029138 -0.8306987964865649, -56.0215671349202 -1.0764563022904294, -55.97816881132287 -1.7524202228151808 C-55.927551597738265 -2.1449973358779784, -55.87693438415366 -2.5375744489407763, -55.82856754731371 -2.912698084359171 C-55.77032391303203 -3.2117668365991316, -55.712080278750356 -3.5108355888390927, -55.60493439731828 -4.061007044702734 C-55.53460158812768 -4.32921652857882, -55.46426877893708 -4.597426012454905, -55.30818831791906 -5.192628456016333 C-55.18633589197468 -5.559628548413292, -55.06448346603029 -5.92662864081025, -54.93954870240813 -6.302912243188851 C-54.83524531024804 -6.5605436383931846, -54.73094191808794 -6.818175033597518, -54.500530370038575 -7.387296011983684 C-54.33952691631435 -7.721623128564093, -54.178523462590114 -8.055950245144501, -53.992937341307254 -8.441323796895237 C-53.799144977272256 -8.785421762844145, -53.60535261323726 -9.129519728793053, -53.418855424847564 -9.460664371667086 C-53.19771446222042 -9.800396274925482, -52.97657349959328 -10.140128178183879, -52.780643646394445 -10.441129047229596 C-52.53899029372987 -10.764922524726815, -52.29733694106528 -11.088716002224034, -52.08092455504155 -11.378688883921884 C-51.84128948746808 -11.660177869915305, -51.601654419894615 -11.941666855908727, -51.32257344662452 -12.269491247269025 C-51.006493474946396 -12.595869768674975, -50.690413503268275 -12.922248290080923, -50.508706548513636 -13.10987563928352 C-50.29064140213323 -13.307916635538598, -50.07257625575283 -13.505957631793677, -49.64266821436715 -13.896388740236691 C-49.33351955490414 -14.14292656936711, -49.02437089544114 -14.389464398497525, -48.72801718146469 -14.625798599090205 C-48.392534536360145 -14.859816769505496, -48.0570518912556 -15.09383493992079, -47.76851194709252 -15.295107914276086 C-47.50060381518357 -15.457515398242235, -47.232695683274606 -15.619922882208384, -46.768095324071865 -15.901566350251855 C-46.45781385815442 -16.063439992276226, -46.14753239223697 -16.225313634300594, -45.73087823889544 -16.442681839219148 C-45.31414407402632 -16.627157692026927, -44.8974099091572 -16.81163354483471, -44.66112283904859 -16.91623082156489 C-44.31573097907769 -17.043338218801534, -43.970339119106804 -17.17044561603818, -43.56322497893109 -17.3202673829447 C-43.13844358973236 -17.44634026953587, -42.71366220053363 -17.57241315612704, -42.44169615634853 -17.65313125046228 C-42.11521087873757 -17.72764938456144, -41.788725601126615 -17.802167518660596, -41.30114497380005 -17.91345461508694 C-41.03514249110486 -17.95645983360904, -40.769140008409664 -17.999465052131136, -40.146258200742245 -18.100167752274242 C-39.85805261184984 -18.12797059881676, -39.56984702295745 -18.155773445359277, -38.98178151464801 -18.21250341769364 C-38.64366865710098 -18.22334603893842, -38.30555579955395 -18.2341886601832, -37.81250000000001 -18.25 C-37.81250000000001 -18.25, -37.8125 -18.25, -37.8125 -18.25" stroke="none" stroke-width="0" fill="#1f6feb" style="fill:#1f6feb !important;stroke:#0b3d91 !important"/><path d="M-37.8125 -18.25 C-13.886636443922082 -18.25, 10.039227112155835 -18.25, 37.8125 -18.25 M-37.8125 -18.25 C-10.669427942738945 -18.25, 16.47364411452211 -18.25, 37.8125 -18.25 M37.8125 -18.25 C37.8125 -18.25, 37.8125 -18.25, 37.8125 -18.25 M37.8125 -18.25 C37.8125 -18.25, 37.8125 -18.25, 37.8125 -18.25 M37.8125 -18.25 C38.0821365991444 -18.241353279081242, 38.351773198288804 -18.232706558162484, 38.981781514648006 -18.21250341769364 M37.8125 -18.25 C38.093406567773954 -18.240991873122955, 38.37431313554791 -18.23198374624591, 38.981781514648006 -18.21250341769364 M38.981781514648006 -18.21250341769364 C39.29778329589966 -18.182019105904036, 39.61378507715132 -18.151534794114433, 40.14625820074223 -18.100167752274242 M38.981781514648006 -18.21250341769364 C39.38403426650455 -18.173698578501753, 39.786287018361094 -18.134893739309863, 40.14625820074223 -18.100167752274242 M40.14625820074223 -18.100167752274242 C40.574909278651916 -18.030866770236564, 41.00356035656159 -17.961565788198882, 41.30114497380004 -17.913454615086945 M40.14625820074223 -18.100167752274242 C40.401783922302215 -18.05885633524399, 40.65730964386219 -18.01754491821374, 41.30114497380004 -17.913454615086945 M41.30114497380004 -17.913454615086945 C41.72082913517663 -17.817664443947834, 42.140513296553216 -17.721874272808726, 42.441696156348506 -17.653131250462287 M41.30114497380004 -17.913454615086945 C41.6652682309502 -17.830345857768734, 42.02939148810035 -17.747237100450526, 42.441696156348506 -17.653131250462287 M42.441696156348506 -17.653131250462287 C42.70960299374287 -17.573617907395327, 42.97750983113723 -17.494104564328364, 43.563224978931075 -17.320267382944703 M42.441696156348506 -17.653131250462287 C42.729778227220294 -17.567630004001188, 43.017860298092074 -17.482128757540092, 43.563224978931075 -17.320267382944703 M43.563224978931075 -17.320267382944703 C43.82272364981061 -17.224769473281615, 44.08222232069015 -17.129271563618527, 44.66112283904857 -16.9162308215649 M43.563224978931075 -17.320267382944703 C43.838407871710444 -17.21899753463912, 44.113590764489814 -17.117727686333538, 44.66112283904857 -16.9162308215649 M44.66112283904857 -16.9162308215649 C44.92446880413901 -16.79965537469986, 45.18781476922944 -16.68307992783482, 45.730878238895436 -16.442681839219148 M44.66112283904857 -16.9162308215649 C44.97262568196211 -16.7783377534106, 45.28412852487565 -16.6404446852563, 45.730878238895436 -16.442681839219148 M45.730878238895436 -16.442681839219148 C45.961279369175486 -16.322481717131012, 46.19168049945554 -16.202281595042876, 46.768095324071865 -15.901566350251858 M45.730878238895436 -16.442681839219148 C46.10485069854023 -16.24758064656325, 46.47882315818503 -16.052479453907356, 46.768095324071865 -15.901566350251858 M46.768095324071865 -15.901566350251858 C46.995278325187634 -15.763846679899972, 47.22246132630341 -15.626127009548084, 47.76851194709251 -15.295107914276093 M46.768095324071865 -15.901566350251858 C47.0408389078936 -15.736227586919913, 47.31358249171534 -15.570888823587968, 47.76851194709251 -15.295107914276093 M47.76851194709251 -15.295107914276093 C47.99893788395175 -15.13437275570113, 48.22936382081098 -14.973637597126167, 48.72801718146469 -14.625798599090208 M47.76851194709251 -15.295107914276093 C48.032567768565215 -15.110914004009016, 48.29662359003792 -14.92672009374194, 48.72801718146469 -14.625798599090208 M48.72801718146469 -14.625798599090208 C49.01756477446626 -14.39489209885651, 49.307112367467816 -14.163985598622808, 49.642668214367134 -13.896388740236706 M48.72801718146469 -14.625798599090208 C48.99252215124346 -14.414862924464495, 49.25702712102223 -14.203927249838781, 49.642668214367134 -13.896388740236706 M49.642668214367134 -13.896388740236706 C49.97843862154892 -13.591450940432354, 50.31420902873071 -13.286513140628003, 50.50870654851363 -13.109875639283528 M49.642668214367134 -13.896388740236706 C49.94003517966502 -13.626327930251922, 50.2374021449629 -13.35626712026714, 50.50870654851363 -13.109875639283528 M50.50870654851363 -13.109875639283528 C50.68623236716878 -12.926565656381317, 50.86375818582392 -12.743255673479107, 51.3225734466245 -12.269491247269036 M50.50870654851363 -13.109875639283528 C50.82724589367548 -12.780957612837307, 51.145785238837334 -12.452039586391086, 51.3225734466245 -12.269491247269036 M51.3225734466245 -12.269491247269036 C51.58966927043874 -11.955745294433918, 51.85676509425297 -11.641999341598797, 52.08092455504155 -11.378688883921889 M51.3225734466245 -12.269491247269036 C51.58367689495155 -11.962784279656992, 51.8447803432786 -11.656077312044948, 52.08092455504155 -11.378688883921889 M52.08092455504155 -11.378688883921889 C52.24984666283507 -11.152348648599169, 52.418768770628596 -10.92600841327645, 52.78064364639444 -10.4411290472296 M52.08092455504155 -11.378688883921889 C52.22409409296208 -11.18685474612159, 52.367263630882626 -10.995020608321292, 52.78064364639444 -10.4411290472296 M52.78064364639444 -10.4411290472296 C53.00485065593465 -10.096686872563854, 53.22905766547487 -9.752244697898108, 53.418855424847564 -9.460664371667084 M52.78064364639444 -10.4411290472296 C52.951261080538146 -10.179014851188786, 53.12187851468185 -9.916900655147971, 53.418855424847564 -9.460664371667084 M53.418855424847564 -9.460664371667084 C53.562033552374984 -9.206437107884586, 53.70521167990241 -8.952209844102088, 53.992937341307254 -8.441323796895244 M53.418855424847564 -9.460664371667084 C53.61466507247194 -9.112984514433137, 53.8104747200963 -8.765304657199188, 53.992937341307254 -8.441323796895244 M53.992937341307254 -8.441323796895244 C54.14767243273582 -8.120013068743253, 54.30240752416438 -7.7987023405912606, 54.500530370038575 -7.3872960119836915 M53.992937341307254 -8.441323796895244 C54.100552173942575 -8.217859294339455, 54.20816700657789 -7.994394791783667, 54.500530370038575 -7.3872960119836915 M54.500530370038575 -7.3872960119836915 C54.59928750806778 -7.143363971712181, 54.69804464609699 -6.899431931440669, 54.939548702408125 -6.302912243188873 M54.500530370038575 -7.3872960119836915 C54.63840699040557 -7.046738094014109, 54.77628361077256 -6.706180176044526, 54.939548702408125 -6.302912243188873 M54.939548702408125 -6.302912243188873 C55.0762246171057 -5.891266164469488, 55.21290053180328 -5.479620085750103, 55.308188317919054 -5.192628456016347 M54.939548702408125 -6.302912243188873 C55.085070574793974 -5.86462354932438, 55.230592447179816 -5.426334855459888, 55.308188317919054 -5.192628456016347 M55.308188317919054 -5.192628456016347 C55.420725825389844 -4.76347416596597, 55.53326333286063 -4.334319875915594, 55.60493439731828 -4.061007044702739 M55.308188317919054 -5.192628456016347 C55.377697808634274 -4.927558642315365, 55.4472072993495 -4.662488828614383, 55.60493439731828 -4.061007044702739 M55.60493439731828 -4.061007044702739 C55.661002782244296 -3.7731077381649896, 55.71707116717032 -3.48520843162724, 55.82856754731371 -2.9126980843591777 M55.60493439731828 -4.061007044702739 C55.67153229548067 -3.7190409131096316, 55.73813019364306 -3.377074781516524, 55.82856754731371 -2.9126980843591777 M55.82856754731371 -2.9126980843591777 C55.87888384060219 -2.522454849689678, 55.929200133890674 -2.132211615020178, 55.97816881132287 -1.7524202228151955 M55.82856754731371 -2.9126980843591777 C55.88472166123957 -2.4771778656342636, 55.94087577516542 -2.0416576469093495, 55.97816881132287 -1.7524202228151955 M55.97816881132287 -1.7524202228151955 C56.00356968493311 -1.3567811131194234, 56.028970558543364 -0.9611420034236514, 56.05312344566255 -0.5849412906827067 M55.97816881132287 -1.7524202228151955 C55.99895721283786 -1.4286240891235285, 56.01974561435285 -1.1048279554318614, 56.05312344566255 -0.5849412906827067 M56.05312344566255 -0.5849412906827067 C56.05312344566255 -0.34074510329711294, 56.05312344566255 -0.0965489159115191, 56.05312344566255 0.5849412906827023 M56.05312344566255 -0.5849412906827067 C56.05312344566255 -0.18692916473413257, 56.05312344566255 0.2110829612144416, 56.05312344566255 0.5849412906827023 M56.05312344566255 0.5849412906827023 C56.034180810218494 0.8799881279440047, 56.01523817477444 1.1750349652053071, 55.97816881132287 1.752420222815183 M56.05312344566255 0.5849412906827023 C56.02950238575519 0.9528583653162812, 56.005881325847824 1.3207754399498604, 55.97816881132287 1.752420222815183 M55.97816881132287 1.752420222815183 C55.92508127759615 2.1641566510802988, 55.87199374386944 2.5758930793454144, 55.82856754731371 2.9126980843591648 M55.97816881132287 1.752420222815183 C55.94563335555059 2.004758792932496, 55.91309789977832 2.257097363049809, 55.82856754731371 2.9126980843591648 M55.82856754731371 2.9126980843591648 C55.74256227223744 3.3543169946544817, 55.656556997161175 3.7959359049497983, 55.60493439731828 4.061007044702736 M55.82856754731371 2.9126980843591648 C55.77290486801914 3.198514178225355, 55.71724218872457 3.4843302720915457, 55.60493439731828 4.061007044702736 M55.60493439731828 4.061007044702736 C55.48983202932922 4.499942259526864, 55.37472966134017 4.938877474350993, 55.30818831791906 5.192628456016335 M55.60493439731828 4.061007044702736 C55.49162905386559 4.493089426134362, 55.378323710412886 4.925171807565988, 55.30818831791906 5.192628456016335 M55.30818831791906 5.192628456016335 C55.18115125819868 5.575243839287373, 55.05411419847831 5.957859222558412, 54.93954870240813 6.302912243188861 M55.30818831791906 5.192628456016335 C55.21006970690951 5.488146079299463, 55.111951095899954 5.783663702582591, 54.93954870240813 6.302912243188861 M54.93954870240813 6.302912243188861 C54.775031516407545 6.709272873333722, 54.61051433040695 7.115633503478583, 54.500530370038575 7.387296011983686 M54.93954870240813 6.302912243188861 C54.79361373799442 6.6633744267513215, 54.64767877358071 7.023836610313782, 54.500530370038575 7.387296011983686 M54.500530370038575 7.387296011983686 C54.34442221565974 7.711457934730757, 54.188314061280906 8.035619857477828, 53.992937341307254 8.44132379689524 M54.500530370038575 7.387296011983686 C54.380838568437206 7.635838599003223, 54.261146766835836 7.88438118602276, 53.992937341307254 8.44132379689524 M53.992937341307254 8.44132379689524 C53.87811778240484 8.645197550467572, 53.76329822350243 8.849071304039903, 53.418855424847564 9.46066437166708 M53.992937341307254 8.44132379689524 C53.826646824291906 8.736589448596769, 53.66035630727655 9.0318551002983, 53.418855424847564 9.46066437166708 M53.418855424847564 9.46066437166708 C53.285593649851734 9.665390243857752, 53.152331874855896 9.870116116048424, 52.78064364639445 10.441129047229591 M53.418855424847564 9.46066437166708 C53.16942864443944 9.843850886842649, 52.92000186403132 10.227037402018217, 52.78064364639445 10.441129047229591 M52.78064364639445 10.441129047229591 C52.58668718643352 10.701013033780233, 52.39273072647259 10.960897020330876, 52.08092455504155 11.378688883921884 M52.78064364639445 10.441129047229591 C52.549656112300525 10.75063129951819, 52.318668578206605 11.06013355180679, 52.08092455504155 11.378688883921884 M52.08092455504155 11.378688883921884 C51.89532966449503 11.596699203006263, 51.70973477394852 11.814709522090642, 51.32257344662452 12.269491247269025 M52.08092455504155 11.378688883921884 C51.92052877510258 11.567098893816619, 51.76013299516362 11.755508903711354, 51.32257344662452 12.269491247269025 M51.32257344662452 12.269491247269025 C51.155810439760984 12.441687743353114, 50.98904743289745 12.613884239437203, 50.50870654851363 13.109875639283525 M51.32257344662452 12.269491247269025 C51.07683494699511 12.523236423642414, 50.83109644736571 12.776981600015805, 50.50870654851363 13.109875639283525 M50.50870654851363 13.109875639283525 C50.17291235584042 13.414835040441863, 49.8371181631672 13.719794441600204, 49.64266821436715 13.896388740236693 M50.50870654851363 13.109875639283525 C50.16863433534785 13.41872022546299, 49.82856212218208 13.727564811642452, 49.64266821436715 13.896388740236693 M49.64266821436715 13.896388740236693 C49.32897729185728 14.146548903272286, 49.015286369347415 14.39670906630788, 48.72801718146469 14.625798599090206 M49.64266821436715 13.896388740236693 C49.420859943003954 14.073274934082848, 49.19905167164076 14.250161127929003, 48.72801718146469 14.625798599090206 M48.72801718146469 14.625798599090206 C48.404381143702295 14.85155308905498, 48.080745105939904 15.077307579019754, 47.76851194709252 15.295107914276088 M48.72801718146469 14.625798599090206 C48.41663082700586 14.843008240262657, 48.105244472547035 15.060217881435108, 47.76851194709252 15.295107914276088 M47.76851194709252 15.295107914276088 C47.3806961522705 15.530204128155775, 46.99288035744849 15.765300342035465, 46.768095324071865 15.901566350251857 M47.76851194709252 15.295107914276088 C47.4477769239453 15.489539370156143, 47.12704190079808 15.6839708260362, 46.768095324071865 15.901566350251857 M46.768095324071865 15.901566350251857 C46.36289151919472 16.11296091571084, 45.95768771431757 16.324355481169825, 45.73087823889544 16.442681839219148 M46.768095324071865 15.901566350251857 C46.50637569429196 16.03810531346861, 46.244656064512064 16.17464427668536, 45.73087823889544 16.442681839219148 M45.73087823889544 16.442681839219148 C45.34074943943227 16.615380285981836, 44.95062063996911 16.788078732744527, 44.66112283904859 16.916230821564895 M45.73087823889544 16.442681839219148 C45.303038495888316 16.632073802033354, 44.87519875288118 16.82146576484756, 44.66112283904859 16.916230821564895 M44.66112283904859 16.916230821564895 C44.2535594850211 17.066217903321355, 43.84599613099361 17.216204985077816, 43.56322497893109 17.3202673829447 M44.66112283904859 16.916230821564895 C44.430441501223115 17.00112368627958, 44.19976016339765 17.086016550994263, 43.56322497893109 17.3202673829447 M43.56322497893109 17.3202673829447 C43.26179143949873 17.409731275191287, 42.96035790006636 17.49919516743788, 42.44169615634853 17.653131250462284 M43.56322497893109 17.3202673829447 C43.304246330907134 17.397130886271547, 43.04526768288318 17.473994389598392, 42.44169615634853 17.653131250462284 M42.44169615634853 17.653131250462284 C41.99231019897993 17.755700662714236, 41.54292424161133 17.85827007496619, 41.30114497380005 17.91345461508694 M42.44169615634853 17.653131250462284 C42.09615177940943 17.731999499610843, 41.75060740247034 17.8108677487594, 41.30114497380005 17.91345461508694 M41.30114497380005 17.91345461508694 C40.93779610037196 17.9721980431302, 40.574447226943875 18.030941471173453, 40.146258200742245 18.100167752274242 M41.30114497380005 17.91345461508694 C40.885710457113 17.98061884600211, 40.47027594042595 18.04778307691728, 40.146258200742245 18.100167752274242 M40.146258200742245 18.100167752274242 C39.828442584562744 18.130827042537877, 39.51062696838324 18.161486332801513, 38.98178151464801 18.21250341769364 M40.146258200742245 18.100167752274242 C39.75585383057503 18.137829592334324, 39.36544946040781 18.175491432394406, 38.98178151464801 18.21250341769364 M38.98178151464801 18.21250341769364 C38.59763052885066 18.224822392103626, 38.2134795430533 18.237141366513615, 37.8125 18.25 M38.98178151464801 18.21250341769364 C38.60472563447813 18.22459486587594, 38.22766975430824 18.23668631405824, 37.8125 18.25 M37.8125 18.25 C37.8125 18.25, 37.8125 18.25, 37.8125 18.25 M37.8125 18.25 C37.8125 18.25, 37.8125 18.25, 37.8125 18.25 M37.8125 18.25 C17.25078253284886 18.25, -3.3109349343022814 18.25, -37.8125 18.25 M37.8125 18.25 C8.187828273893345 18.25, -21.43684345221331 18.25, -37.8125 18.25 M-37.8125 18.25 C-38.22873962977686 18.236652005234347, -38.64497925955373 18.22330401046869, -38.981781514648006 18.21250341769364 M-37.8125 18.25 C-38.06401328520751 18.241934458484305, -38.31552657041502 18.233868916968614, -38.981781514648006 18.21250341769364 M-38.981781514648006 18.21250341769364 C-39.28248913851153 18.183494514873356, -39.58319676237505 18.15448561205307, -40.14625820074224 18.100167752274242 M-38.981781514648006 18.21250341769364 C-39.216007991145766 18.189907871204454, -39.450234467643526 18.167312324715265, -40.14625820074224 18.100167752274242 M-40.14625820074224 18.100167752274242 C-40.60241847347661 18.026419296954295, -41.05857874621098 17.95267084163435, -41.30114497380004 17.91345461508694 M-40.14625820074224 18.100167752274242 C-40.58889017010274 18.028606448130226, -41.031522139463235 17.957045143986207, -41.30114497380004 17.91345461508694 M-41.30114497380004 17.91345461508694 C-41.74622303555811 17.811868451896448, -42.19130109731617 17.710282288705955, -42.441696156348506 17.653131250462287 M-41.30114497380004 17.91345461508694 C-41.627634884674535 17.83893542347562, -41.95412479554903 17.764416231864292, -42.441696156348506 17.653131250462287 M-42.441696156348506 17.653131250462287 C-42.834427603347095 17.53657061848254, -43.22715905034568 17.42000998650279, -43.56322497893107 17.320267382944706 M-42.441696156348506 17.653131250462287 C-42.732792844499166 17.566735281416868, -43.023889532649825 17.48033931237145, -43.56322497893107 17.320267382944706 M-43.56322497893107 17.320267382944706 C-43.94405091318728 17.180119918822072, -44.3248768474435 17.03997245469944, -44.66112283904858 16.9162308215649 M-43.56322497893107 17.320267382944706 C-43.870065855944695 17.207347103797716, -44.17690673295833 17.09442682465073, -44.66112283904858 16.9162308215649 M-44.66112283904858 16.9162308215649 C-45.03371174876982 16.751296763688618, -45.406300658491055 16.58636270581234, -45.730878238895436 16.44268183921915 M-44.66112283904858 16.9162308215649 C-44.90363454720144 16.808878082219852, -45.1461462553543 16.701525342874803, -45.730878238895436 16.44268183921915 M-45.730878238895436 16.44268183921915 C-46.0568363356898 16.272629708907655, -46.38279443248417 16.102577578596158, -46.76809532407186 15.90156635025186 M-45.730878238895436 16.44268183921915 C-46.05892329259945 16.27154094482465, -46.386968346303476 16.100400050430146, -46.76809532407186 15.90156635025186 M-46.76809532407186 15.90156635025186 C-47.099619794780594 15.70059426785418, -47.43114426548934 15.499622185456502, -47.768511947092506 15.2951079142761 M-46.76809532407186 15.90156635025186 C-47.01786408344768 15.750155060514087, -47.267632842823495 15.598743770776313, -47.768511947092506 15.2951079142761 M-47.768511947092506 15.2951079142761 C-48.035050921998774 15.109181863667743, -48.30158989690505 14.923255813059388, -48.72801718146469 14.62579859909021 M-47.768511947092506 15.2951079142761 C-48.03612365868157 15.108433568995851, -48.30373537027064 14.9217592237156, -48.72801718146469 14.62579859909021 M-48.72801718146469 14.62579859909021 C-49.04728774964766 14.371188817110928, -49.36655831783062 14.116579035131647, -49.642668214367134 13.896388740236707 M-48.72801718146469 14.62579859909021 C-49.0155141359109 14.396527428534624, -49.3030110903571 14.167256257979037, -49.642668214367134 13.896388740236707 M-49.642668214367134 13.896388740236707 C-49.84882306136504 13.709164362751562, -50.05497790836294 13.521939985266414, -50.508706548513615 13.109875639283537 M-49.642668214367134 13.896388740236707 C-49.9614294205028 13.606898246783642, -50.280190626638465 13.317407753330574, -50.508706548513615 13.109875639283537 M-50.508706548513615 13.109875639283537 C-50.785610538402715 12.823949535482672, -51.062514528291814 12.53802343168181, -51.32257344662451 12.26949124726903 M-50.508706548513615 13.109875639283537 C-50.7169572412669 12.894839701315929, -50.92520793402017 12.679803763348321, -51.32257344662451 12.26949124726903 M-51.32257344662451 12.26949124726903 C-51.59064570680243 11.954598316720325, -51.85871796698034 11.63970538617162, -52.08092455504154 11.37868888392189 M-51.32257344662451 12.26949124726903 C-51.5623236602285 11.987867004196167, -51.802073873832484 11.706242761123303, -52.08092455504154 11.37868888392189 M-52.08092455504154 11.37868888392189 C-52.28449520926769 11.105922752926976, -52.48806586349383 10.83315662193206, -52.78064364639444 10.441129047229602 M-52.08092455504154 11.37868888392189 C-52.33160703823157 11.042797194091289, -52.58228952142159 10.706905504260687, -52.78064364639444 10.441129047229602 M-52.78064364639444 10.441129047229602 C-52.948063781303055 10.183926761408946, -53.11548391621167 9.926724475588292, -53.418855424847564 9.460664371667093 M-52.78064364639444 10.441129047229602 C-52.94891182846411 10.182623933237016, -53.11718001053379 9.924118819244429, -53.418855424847564 9.460664371667093 M-53.418855424847564 9.460664371667093 C-53.58420300434755 9.167073001006862, -53.749550583847544 8.873481630346632, -53.992937341307254 8.441323796895245 M-53.418855424847564 9.460664371667093 C-53.620646751989526 9.102363436738925, -53.82243807913149 8.744062501810758, -53.992937341307254 8.441323796895245 M-53.992937341307254 8.441323796895245 C-54.10943345735197 8.199417119310812, -54.22592957339669 7.957510441726381, -54.500530370038575 7.387296011983693 M-53.992937341307254 8.441323796895245 C-54.14047710257467 8.134954325778272, -54.288016863842095 7.8285848546613, -54.500530370038575 7.387296011983693 M-54.500530370038575 7.387296011983693 C-54.62721438749093 7.074384039607519, -54.753898404943286 6.761472067231345, -54.939548702408125 6.302912243188875 M-54.500530370038575 7.387296011983693 C-54.67028531067224 6.967998026630029, -54.84004025130591 6.548700041276365, -54.939548702408125 6.302912243188875 M-54.939548702408125 6.302912243188875 C-55.05244539317709 5.962885398237649, -55.16534208394606 5.622858553286424, -55.308188317919054 5.192628456016342 M-54.939548702408125 6.302912243188875 C-55.05094267365157 5.967411350022684, -55.162336644895014 5.631910456856493, -55.308188317919054 5.192628456016342 M-55.308188317919054 5.192628456016342 C-55.396363562763895 4.856378032030094, -55.48453880760874 4.520127608043847, -55.604934397318274 4.061007044702742 M-55.308188317919054 5.192628456016342 C-55.39251182677326 4.871066370715335, -55.47683533562746 4.5495042854143275, -55.604934397318274 4.061007044702742 M-55.604934397318274 4.061007044702742 C-55.667631642978584 3.739069939304616, -55.730328888638894 3.41713283390649, -55.82856754731371 2.91269808435918 M-55.604934397318274 4.061007044702742 C-55.67629506005291 3.6945851236418106, -55.74765572278754 3.3281632025808787, -55.82856754731371 2.91269808435918 M-55.82856754731371 2.91269808435918 C-55.88444211865958 2.4793459426827575, -55.940316690005446 2.045993801006335, -55.97816881132287 1.7524202228152057 M-55.82856754731371 2.91269808435918 C-55.865866560908394 2.6234143004421293, -55.903165574503085 2.3341305165250783, -55.97816881132287 1.7524202228152057 M-55.97816881132287 1.7524202228152057 C-56.004563184234684 1.3413065595592448, -56.03095755714651 0.930192896303284, -56.05312344566255 0.5849412906827091 M-55.97816881132287 1.7524202228152057 C-55.99448701133482 1.4982510858150484, -56.01080521134677 1.244081948814891, -56.05312344566255 0.5849412906827091 M-56.05312344566255 0.5849412906827091 C-56.05312344566255 0.12050821130478101, -56.05312344566255 -0.34392486807314704, -56.05312344566255 -0.5849412906827002 M-56.05312344566255 0.5849412906827091 C-56.05312344566255 0.2929984154715258, -56.05312344566255 0.0010555402603424913, -56.05312344566255 -0.5849412906827002 M-56.05312344566255 -0.5849412906827002 C-56.026534217351504 -0.9990899840660875, -55.99994498904045 -1.413238677449475, -55.97816881132287 -1.7524202228151808 M-56.05312344566255 -0.5849412906827002 C-56.03421852060245 -0.8794007582745567, -56.01531359554236 -1.173860225866413, -55.97816881132287 -1.7524202228151808 M-55.97816881132287 -1.7524202228151808 C-55.92635805956735 -2.154254182240823, -55.87454730781183 -2.556088141666466, -55.82856754731371 -2.912698084359171 M-55.97816881132287 -1.7524202228151808 C-55.92593845142695 -2.157508580116743, -55.873708091531036 -2.5625969374183057, -55.82856754731371 -2.912698084359171 M-55.82856754731371 -2.912698084359171 C-55.75379665109903 -3.296630833587062, -55.67902575488434 -3.6805635828149526, -55.60493439731828 -4.061007044702734 M-55.82856754731371 -2.912698084359171 C-55.75888892624546 -3.2704830769628424, -55.68921030517722 -3.6282680695665137, -55.60493439731828 -4.061007044702734 M-55.60493439731828 -4.061007044702734 C-55.52386843715966 -4.370146684996918, -55.44280247700105 -4.679286325291103, -55.30818831791906 -5.192628456016333 M-55.60493439731828 -4.061007044702734 C-55.53944534190788 -4.31074519611876, -55.473956286497476 -4.5604833475347855, -55.30818831791906 -5.192628456016333 M-55.30818831791906 -5.192628456016333 C-55.187000002278545 -5.557628353989657, -55.06581168663802 -5.922628251962981, -54.93954870240813 -6.302912243188851 M-55.30818831791906 -5.192628456016333 C-55.22928277130114 -5.430279390537953, -55.15037722468322 -5.667930325059572, -54.93954870240813 -6.302912243188851 M-54.93954870240813 -6.302912243188851 C-54.80956078135542 -6.6239849213345305, -54.67957286030271 -6.94505759948021, -54.500530370038575 -7.387296011983684 M-54.93954870240813 -6.302912243188851 C-54.78644570478315 -6.681079607367644, -54.63334270715817 -7.059246971546436, -54.500530370038575 -7.387296011983684 M-54.500530370038575 -7.387296011983684 C-54.30882946367264 -7.785367045794865, -54.1171285573067 -8.183438079606045, -53.992937341307254 -8.441323796895237 M-54.500530370038575 -7.387296011983684 C-54.346646793271745 -7.706838551721092, -54.192763216504915 -8.0263810914585, -53.992937341307254 -8.441323796895237 M-53.992937341307254 -8.441323796895237 C-53.86812063464421 -8.662948498637565, -53.74330392798115 -8.884573200379892, -53.418855424847564 -9.460664371667086 M-53.992937341307254 -8.441323796895237 C-53.837978515158206 -8.716468884005522, -53.68301968900916 -8.991613971115807, -53.418855424847564 -9.460664371667086 M-53.418855424847564 -9.460664371667086 C-53.26771874887544 -9.692850891840331, -53.11658207290331 -9.925037412013575, -52.780643646394445 -10.441129047229596 M-53.418855424847564 -9.460664371667086 C-53.25266822958507 -9.715972531100643, -53.08648103432258 -9.9712806905342, -52.780643646394445 -10.441129047229596 M-52.780643646394445 -10.441129047229596 C-52.59005399162883 -10.69650182154078, -52.39946433686322 -10.951874595851962, -52.08092455504155 -11.378688883921884 M-52.780643646394445 -10.441129047229596 C-52.569772017766546 -10.723677818790408, -52.35890038913865 -11.006226590351218, -52.08092455504155 -11.378688883921884 M-52.08092455504155 -11.378688883921884 C-51.79291155974948 -11.71700533659565, -51.5048985644574 -12.055321789269415, -51.32257344662452 -12.269491247269025 M-52.08092455504155 -11.378688883921884 C-51.89754704311594 -11.59409454390573, -51.71416953119033 -11.809500203889574, -51.32257344662452 -12.269491247269025 M-51.32257344662452 -12.269491247269025 C-51.09268914520585 -12.50686566233595, -50.86280484378718 -12.744240077402875, -50.508706548513636 -13.10987563928352 M-51.32257344662452 -12.269491247269025 C-51.05304967053915 -12.54779667439071, -50.78352589445379 -12.826102101512395, -50.508706548513636 -13.10987563928352 M-50.508706548513636 -13.10987563928352 C-50.30354125369057 -13.296201331665596, -50.09837595886749 -13.482527024047673, -49.64266821436715 -13.896388740236691 M-50.508706548513636 -13.10987563928352 C-50.31128338215988 -13.289170135435258, -50.11386021580613 -13.468464631586997, -49.64266821436715 -13.896388740236691 M-49.64266821436715 -13.896388740236691 C-49.430100868508625 -14.065905541904225, -49.2175335226501 -14.235422343571761, -48.72801718146469 -14.625798599090205 M-49.64266821436715 -13.896388740236691 C-49.27899194825436 -14.186410884629757, -48.91531568214157 -14.476433029022822, -48.72801718146469 -14.625798599090205 M-48.72801718146469 -14.625798599090205 C-48.52016288402246 -14.770788759118389, -48.31230858658024 -14.915778919146572, -47.76851194709252 -15.295107914276086 M-48.72801718146469 -14.625798599090205 C-48.46559507861844 -14.80885289796601, -48.20317297577219 -14.991907196841815, -47.76851194709252 -15.295107914276086 M-47.76851194709252 -15.295107914276086 C-47.39521118643591 -15.5214050291449, -47.02191042577929 -15.747702144013713, -46.768095324071865 -15.901566350251855 M-47.76851194709252 -15.295107914276086 C-47.433743657814226 -15.498046418553423, -47.09897536853594 -15.70098492283076, -46.768095324071865 -15.901566350251855 M-46.768095324071865 -15.901566350251855 C-46.44861901402949 -16.06823693656662, -46.129142703987114 -16.234907522881386, -45.73087823889544 -16.442681839219148 M-46.768095324071865 -15.901566350251855 C-46.414121600731704 -16.086234214987428, -46.06014787739154 -16.270902079723, -45.73087823889544 -16.442681839219148 M-45.73087823889544 -16.442681839219148 C-45.50733193260367 -16.54163915774895, -45.2837856263119 -16.64059647627875, -44.66112283904859 -16.91623082156489 M-45.73087823889544 -16.442681839219148 C-45.469206838505016 -16.558516005965686, -45.2075354381146 -16.674350172712224, -44.66112283904859 -16.91623082156489 M-44.66112283904859 -16.91623082156489 C-44.25162941146874 -17.066928188230023, -43.8421359838889 -17.217625554895157, -43.56322497893109 -17.3202673829447 M-44.66112283904859 -16.91623082156489 C-44.2648780531096 -17.06205256563709, -43.86863326717061 -17.20787430970929, -43.56322497893109 -17.3202673829447 M-43.56322497893109 -17.3202673829447 C-43.17386452822309 -17.43582752092012, -42.784504077515095 -17.551387658895543, -42.44169615634853 -17.65313125046228 M-43.56322497893109 -17.3202673829447 C-43.1733416052864 -17.435982721702853, -42.78345823164172 -17.551698060461003, -42.44169615634853 -17.65313125046228 M-42.44169615634853 -17.65313125046228 C-42.09719723529497 -17.731760881127204, -41.75269831424141 -17.810390511792125, -41.30114497380005 -17.91345461508694 M-42.44169615634853 -17.65313125046228 C-42.03297234428434 -17.746419793393798, -41.62424853222016 -17.839708336325316, -41.30114497380005 -17.91345461508694 M-41.30114497380005 -17.91345461508694 C-41.01939715873604 -17.959005416839553, -40.73764934367204 -18.00455621859216, -40.146258200742245 -18.100167752274242 M-41.30114497380005 -17.91345461508694 C-41.00745091777074 -17.96093679243434, -40.71375686174143 -18.008418969781737, -40.146258200742245 -18.100167752274242 M-40.146258200742245 -18.100167752274242 C-39.76585802722995 -18.13686449951483, -39.38545785371766 -18.17356124675542, -38.98178151464801 -18.21250341769364 M-40.146258200742245 -18.100167752274242 C-39.83773009580436 -18.129931087498267, -39.529201990866476 -18.15969442272229, -38.98178151464801 -18.21250341769364 M-38.98178151464801 -18.21250341769364 C-38.548578241068235 -18.226395403498323, -38.11537496748846 -18.240287389303006, -37.81250000000001 -18.25 M-38.98178151464801 -18.21250341769364 C-38.70335378354071 -18.22143205310355, -38.42492605243341 -18.230360688513457, -37.81250000000001 -18.25 M-37.81250000000001 -18.25 C-37.81250000000001 -18.25, -37.8125 -18.25, -37.8125 -18.25 M-37.81250000000001 -18.25 C-37.81250000000001 -18.25, -37.8125 -18.25, -37.8125 -18.25" stroke="#0b3d91" stroke-width="1.3" fill="none" stroke-dasharray="0 0" style="fill:#1f6feb !important;stroke:#0b3d91 !important"/></g><g class="label" style="color:#fff !important" transform="translate(-44.5, -11.25)"><rect/><foreignObject width="89" height="22.5"><div style="color: rgb(255, 255, 255) !important; display: table-cell; white-space: nowrap; line-height: 1.5; max-width: 200px; text-align: center;" xmlns="http://www.w3.org/1999/xhtml"><span style="color:#fff !important" class="nodeLabel"><p>call answered</p></span></div></foreignObject></g></g><g class="node default play" id="my-svg-flowchart-greet-1" data-look="classic" transform="translate(956.3398437518626, 142.25)"><rect class="basic label-container" style="fill:#eef4ff !important;stroke:#5b8def !important" x="-98.65625" y="-47.75" width="197.3125" height="95.5"/><g class="label" style="color:#0b2545 !important" transform="translate(-70.65625, -33.75)"><rect/><foreignObject width="141.3125" height="67.5"><div style="color: rgb(11, 37, 69) !important; display: table-cell; white-space: nowrap; line-height: 1.5; max-width: 200px; text-align: center;" xmlns="http://www.w3.org/1999/xhtml"><span style="color:#0b2545 !important" class="nodeLabel"><p><b>greeting</b> (per DID)<br />+ <b>recording notice</b><br /><i>always first, every call</i></p></span></div></foreignObject></g></g><g class="node default ask" id="my-svg-flowchart-known-2" data-look="classic" transform="translate(956.3398437518626, 322.7890625)"><polygon points="82.7890625,0 165.578125,-82.7890625 82.7890625,-165.578125 0,-82.7890625" class="label-container" transform="translate(-82.2890625, 82.7890625)" style="fill:#fff4e6 !important;stroke:#e8a33d !important"/><g class="label" style="color:#4a2f00 !important" transform="translate(-46.2890625, -22.5)"><rect/><foreignObject width="92.578125" height="45"><div style="color: rgb(74, 47, 0) !important; display: table-cell; white-space: nowrap; line-height: 1.5; max-width: 200px; text-align: center;" xmlns="http://www.w3.org/1999/xhtml"><span style="color:#4a2f00 !important" class="nodeLabel"><p>do we already<br />know why?</p></span></div></foreignObject></g></g><g class="node default done" id="my-svg-flowchart-skipped-3" data-look="classic" transform="translate(829.0234375018626, 570.125)"><rect class="basic label-container" style="fill:#e9f7ef !important;stroke:#2f9e5f !important" x="-112.5859375" y="-47.75" width="225.171875" height="95.5"/><g class="label" style="color:#08361d !important" transform="translate(-84.5859375, -33.75)"><rect/><foreignObject width="169.171875" height="67.5"><div style="color: rgb(8, 54, 29) !important; display: table-cell; white-space: nowrap; line-height: 1.5; max-width: 200px; text-align: center;" xmlns="http://www.w3.org/1999/xhtml"><span style="color:#08361d !important" class="nodeLabel"><p><b>SKIPPED</b><br />the app said both (D48)<br /><i>asking twice is bad service</i></p></span></div></foreignObject></g></g><g class="node default ask" id="my-svg-flowchart-didq-4" data-look="classic" transform="translate(1083.6562500018626, 570.125)"><polygon points="92.046875,0 184.09375,-92.046875 92.046875,-184.09375 0,-92.046875" class="label-container" transform="translate(-91.546875, 92.046875)" style="fill:#fff4e6 !important;stroke:#e8a33d !important"/><g class="label" style="color:#4a2f00 !important" transform="translate(-55.546875, -22.5)"><rect/><foreignObject width="111.09375" height="45"><div style="color: rgb(74, 47, 0) !important; display: table-cell; white-space: nowrap; line-height: 1.5; max-width: 200px; text-align: center;" xmlns="http://www.w3.org/1999/xhtml"><span style="color:#4a2f00 !important" class="nodeLabel"><p>did the NUMBER<br />say the line?</p></span></div></foreignObject></g></g><g class="node default play" id="my-svg-flowchart-m1-5" data-look="classic" transform="translate(1299.6539062522352, 759.921875)"><rect class="basic label-container" style="fill:#eef4ff !important;stroke:#5b8def !important" x="-93.578125" y="-25.25" width="187.15625" height="50.5"/><g class="label" style="color:#0b2545 !important" transform="translate(-65.578125, -11.25)"><rect/><foreignObject width="131.15625" height="22.5"><div style="color: rgb(11, 37, 69) !important; display: table-cell; white-space: nowrap; line-height: 1.5; max-width: 200px; text-align: center;" xmlns="http://www.w3.org/1999/xhtml"><span style="color:#0b2545 !important" class="nodeLabel"><p><b>STEP 1</b> product line</p></span></div></foreignObject></g></g><g class="node default play" id="my-svg-flowchart-m2-6" data-look="classic" transform="translate(867.7250000014901, 1051.671875)"><rect class="basic label-container" style="fill:#eef4ff !important;stroke:#5b8def !important" x="-75.8125" y="-25.25" width="151.625" height="50.5"/><g class="label" style="color:#0b2545 !important" transform="translate(-47.8125, -11.25)"><rect/><foreignObject width="95.625" height="22.5"><div style="color: rgb(11, 37, 69) !important; display: table-cell; white-space: nowrap; line-height: 1.5; max-width: 200px; text-align: center;" xmlns="http://www.w3.org/1999/xhtml"><span style="color:#0b2545 !important" class="nodeLabel"><p><b>STEP 2</b> reason</p></span></div></foreignObject></g></g><g class="node default done" id="my-svg-flowchart-routed-7" data-look="classic" transform="translate(347.7578125, 1500.921875)"><rect class="basic label-container" style="fill:#e9f7ef !important;stroke:#2f9e5f !important" x="-117.4140625" y="-47.75" width="234.828125" height="95.5"/><g class="label" style="color:#08361d !important" transform="translate(-89.4140625, -33.75)"><rect/><foreignObject width="178.828125" height="67.5"><div style="color: rgb(8, 54, 29) !important; display: table-cell; white-space: nowrap; line-height: 1.5; max-width: 200px; text-align: center;" xmlns="http://www.w3.org/1999/xhtml"><span style="color:#08361d !important" class="nodeLabel"><p><b>ROUTED</b><br />line + reason -&gt; the queue<br /><i>before a word is transcribed</i></p></span></div></foreignObject></g></g><g class="node default soft" id="my-svg-flowchart-exhausted-8" data-look="classic" transform="translate(1681.1890625022352, 1500.921875)"><rect class="basic label-container" style="fill:#f3e8ff !important;stroke:#8b5cf6 !important" x="-119" y="-47.75" width="238" height="95.5"/><g class="label" style="color:#2e1065 !important" transform="translate(-91, -33.75)"><rect/><foreignObject width="182" height="67.5"><div style="color: rgb(46, 16, 101) !important; display: table-cell; white-space: nowrap; line-height: 1.5; max-width: 200px; text-align: center;" xmlns="http://www.w3.org/1999/xhtml"><span style="color:#2e1065 !important" class="nodeLabel"><p><b>EXHAUSTED</b><br />line's queue if we have one,<br />general if we do not (D40)</p></span></div></foreignObject></g></g><g class="node default soft" id="my-svg-flowchart-abandoned-9" data-look="classic" transform="translate(740.7523437514901, 1500.921875)"><rect class="basic label-container" style="fill:#f3e8ff !important;stroke:#8b5cf6 !important" x="-75.9453125" y="-25.25" width="151.890625" height="50.5"/><g class="label" style="color:#2e1065 !important" transform="translate(-47.9453125, -11.25)"><rect/><foreignObject width="95.890625" height="22.5"><div style="color: rgb(46, 16, 101) !important; display: table-cell; white-space: nowrap; line-height: 1.5; max-width: 200px; text-align: center;" xmlns="http://www.w3.org/1999/xhtml"><span style="color:#2e1065 !important" class="nodeLabel"><p><b>ABANDONED</b></p></span></div></foreignObject></g></g><g class="node default note" id="my-svg-flowchart-floor-39" data-look="classic" transform="translate(1681.1890625022352, 1905.171875)"><rect class="basic label-container" style="fill:#f6f8fa !important;stroke:#8b949e !important" x="-128" y="-81.5" width="256" height="163"/><g class="label" style="color:#24292f !important" transform="translate(-100, -67.5)"><rect/><foreignObject width="200" height="135"><div style="color: rgb(36, 41, 47) !important; display: table; white-space: break-spaces; line-height: 1.5; max-width: 200px; text-align: center; width: 200px;" xmlns="http://www.w3.org/1999/xhtml"><span style="color:#24292f !important" class="nodeLabel"><p><b>EVERY path still ends with a human.</b><br />Not one of them hangs up on the caller.<br />That is the floor the AI layer sits on (D37).</p></span></div></foreignObject></g></g><g class="node default fix" id="my-svg-flowchart-strikes-42" data-look="classic" transform="translate(1148.9750000014901, 1051.671875)"><rect class="basic label-container" style="fill:#e9f7ef !important;stroke:#2f9e5f !important" x="-128" y="-194" width="256" height="388"/><g class="label" style="color:#08361d !important" transform="translate(-100, -180)"><rect/><foreignObject width="200" height="360"><div style="color: rgb(8, 54, 29) !important; display: table; white-space: break-spaces; line-height: 1.5; max-width: 200px; text-align: center; width: 200px;" xmlns="http://www.w3.org/1999/xhtml"><span style="color:#08361d !important" class="nodeLabel"><p><b>a wrong key is not a strike (D82).</b> There is no attempt<br />limit: sorry, here are the options again, for as long as they<br />keep pressing. A wrong key PROVES somebody is there - silence<br />does not - so only silence is bounded. The apology names both<br />escape keys every time, because without a ceiling 'try again'<br />stops being survivable advice on its own.</p></span></div></foreignObject></g></g><g class="node default fix" id="my-svg-flowchart-noop-45" data-look="classic" transform="translate(994.6976562514901, 1500.921875)"><rect class="basic label-container" style="fill:#e9f7ef !important;stroke:#2f9e5f !important" x="-128" y="-182.75" width="256" height="365.5"/><g class="label" style="color:#08361d !important" transform="translate(-100, -168.75)"><rect/><foreignObject width="200" height="337.5"><div style="color: rgb(8, 54, 29) !important; display: table; white-space: break-spaces; line-height: 1.5; max-width: 200px; text-align: center; width: 200px;" xmlns="http://www.w3.org/1999/xhtml"><span style="color:#08361d !important" class="nodeLabel"><p><b>and there is NO operator key (D86).</b> Every menu already<br />ends in a spoken เรื่องอื่นๆ that routes to the same place 0<br />used to - so the shortcut cost a reserved key, a prompt and a<br />clause in every hint, to save two keypresses. The way out is<br />now part of the menu instead of a convention you must know.</p></span></div></foreignObject></g></g><g class="node default fix" id="my-svg-flowchart-noid-48" data-look="classic" transform="translate(136, 1905.171875)"><rect class="basic label-container" style="fill:#e9f7ef !important;stroke:#2f9e5f !important" x="-128" y="-149" width="256" height="298"/><g class="label" style="color:#08361d !important" transform="translate(-100, -135)"><rect/><foreignObject width="200" height="270"><div style="color: rgb(8, 54, 29) !important; display: table; white-space: break-spaces; line-height: 1.5; max-width: 200px; text-align: center; width: 200px;" xmlns="http://www.w3.org/1999/xhtml"><span style="color:#08361d !important" class="nodeLabel"><p><b>and there is NO identity step here (D84).</b> Asking a caller<br />to key their citizen id before anyone says hello would reach L3<br />with no human in the loop - exactly what D44 refuses. The agent's<br />own keypad capture does it during the call, with judgement.</p></span></div></foreignObject></g></g><g class="node default note" id="my-svg-flowchart-ai-51" data-look="classic" transform="translate(442, 1905.171875)"><rect class="basic label-container" style="fill:#f6f8fa !important;stroke:#8b949e !important" x="-128" y="-92.75" width="256" height="185.5"/><g class="label" style="color:#24292f !important" transform="translate(-100, -78.75)"><rect/><foreignObject width="200" height="157.5"><div style="color: rgb(36, 41, 47) !important; display: table; white-space: break-spaces; line-height: 1.5; max-width: 200px; text-align: center; width: 200px;" xmlns="http://www.w3.org/1999/xhtml"><span style="color:#24292f !important" class="nodeLabel"><p>AI intake runs AFTER this, while they wait.<br />It adds detail a keypad cannot capture.<br />If it fails, routing is unaffected -<br />it was never the AI's job.</p></span></div></foreignObject></g></g><g class="label edgeLabel" id="m1---m1---1" transform="translate(1327.0250000022352, 1051.671875)"><rect width="0.1" height="0.1"/><g class="label" style="" transform="translate(0, 0)"><rect/><foreignObject width="0" height="0"><div xmlns="http://www.w3.org/1999/xhtml" style="display: table-cell; white-space: nowrap; line-height: 1.5; max-width: 10px; text-align: center;"><span class="nodeLabel"></span></div></foreignObject></g></g><g class="label edgeLabel" id="m1---m1---2" transform="translate(1442.6734375022352, 1500.921875)"><rect width="0.1" height="0.1"/><g class="label" style="" transform="translate(0, 0)"><rect/><foreignObject width="0" height="0"><div xmlns="http://www.w3.org/1999/xhtml" style="display: table-cell; white-space: nowrap; line-height: 1.5; max-width: 10px; text-align: center;"><span class="nodeLabel"></span></div></foreignObject></g></g><g class="label edgeLabel" id="m2---m2---1" transform="translate(614.7570312507451, 1500.921875)"><rect width="0.1" height="0.1"/><g class="label" style="" transform="translate(0, 0)"><rect/><foreignObject width="0" height="0"><div xmlns="http://www.w3.org/1999/xhtml" style="display: table-cell; white-space: nowrap; line-height: 1.5; max-width: 10px; text-align: center;"><span class="nodeLabel"></span></div></foreignObject></g></g><g class="label edgeLabel" id="m2---m2---2" transform="translate(1223.3242187518626, 1905.171875)"><rect width="0.1" height="0.1"/><g class="label" style="" transform="translate(0, 0)"><rect/><foreignObject width="0" height="0"><div xmlns="http://www.w3.org/1999/xhtml" style="display: table-cell; white-space: nowrap; line-height: 1.5; max-width: 10px; text-align: center;"><span class="nodeLabel"></span></div></foreignObject></g></g></g></g></g><defs><filter id="my-svg-drop-shadow" height="130%" width="130%"><feDropShadow dx="4" dy="4" stdDeviation="0" flood-opacity="0.06" flood-color="#000000"/></filter></defs><defs><filter id="my-svg-drop-shadow-small" height="150%" width="150%"><feDropShadow dx="2" dy="2" stdDeviation="0" flood-opacity="0.06" flood-color="#000000"/></filter></defs><linearGradient id="my-svg-gradient" gradientUnits="objectBoundingBox" x1="0%" y1="0%" x2="100%" y2="0%"><stop offset="0%" stop-color="#5b8def" stop-opacity="1"/><stop offset="100%" stop-color="hsl(33.6, 60%, 85.0980392157%)" stop-opacity="1"/></linearGradient></svg>